<svg width="34" height="34" viewBox="0 0 34 34" fill="none" xmlns="http://www.w3.org/2000/svg">
<path d="M17.035 0.85C8.11118 0.85 0.85 8.10914 0.85 17.034C0.85 25.9589 8.11118 33.218 17.035 33.218C25.9588 33.218 33.22 25.9589 33.22 17.034C33.22 8.10914 25.9588 0.85 17.035 0.85ZM17.035 31.85C8.86586 31.85 2.22 25.2032 2.22 17.034C2.22 8.86483 8.86586 2.218 17.035 2.218C25.2041 2.218 31.85 8.86483 31.85 17.034C31.85 25.2032 25.2041 31.85 17.035 31.85Z" fill="#DC6A8D" stroke="#DC6A8D" stroke-width="0.3"/>
<path d="M19.8849 15.2172H17.5929C17.503 15.2172 17.4139 15.1995 17.3309 15.165C17.2478 15.1306 17.1723 15.0801 17.1088 15.0164C17.0453 14.9528 16.9949 14.8772 16.9606 14.7941C16.9263 14.711 16.9088 14.6219 16.9089 14.5319V14.5319L16.9129 12.6362C16.9129 12.6362 16.9129 12.6362 16.9129 12.6361L16.9129 12.6359L17.0629 12.6362L19.8849 15.2172ZM19.8849 15.2172V16.8492H17.5949C17.4135 16.8492 17.2394 16.9212 17.111 17.0494C16.9826 17.1776 16.9103 17.3515 16.9099 17.5329V17.5332L16.9089 24.8842H15.1849V17.5342C15.1849 17.1711 14.9308 16.8502 14.5379 16.8502H13.1849V15.2182L14.5377 15.2182L14.5379 15.2182M19.8849 15.2172L14.5379 15.2182M14.5379 15.2182C14.6277 15.2183 14.7167 15.2007 14.7997 15.1665C14.8827 15.1322 14.9583 15.0819 15.0219 15.0184L15.0225 15.0178C15.1671 14.8717 15.1839 14.6817 15.1839 14.5332V12.3782C15.1839 11.2563 15.3 10.4759 15.6778 9.9725C16.046 9.48175 16.6938 9.21822 17.8659 9.21822H19.849M14.5379 15.2182L19.849 9.21822M19.849 9.21822L19.8498 10.8224L19.849 9.21822ZM18.7161 12.184L18.7161 12.1842H18.7249H20.5139H20.5304L20.5466 12.1806C20.5737 12.1746 20.6027 12.1705 20.6375 12.1662C20.6419 12.1657 20.6465 12.1651 20.6512 12.1646C20.681 12.1609 20.7157 12.1567 20.7494 12.1506C20.8295 12.136 20.9266 12.1073 21.0094 12.0268C21.1363 11.9036 21.225 11.7215 21.1839 11.518V8.54365C21.1942 8.45651 21.185 8.36814 21.157 8.28489C21.1278 8.1982 21.079 8.11941 21.0144 8.05467C20.9498 7.98993 20.8711 7.94099 20.7845 7.91165C20.7013 7.88347 20.6128 7.87412 20.5256 7.88422H17.8677C16.1362 7.86705 15.1215 8.39632 14.5516 9.2577C13.9916 10.1042 13.8849 11.2397 13.8849 12.3792V13.8842H12.5442C12.4569 13.8742 12.3685 13.8835 12.2853 13.9117C12.1987 13.941 12.1199 13.9899 12.0553 14.0546C11.9906 14.1192 11.9417 14.1979 11.9124 14.2846C11.8842 14.3678 11.8749 14.4562 11.8849 14.5435V17.525C11.8749 17.6122 11.8842 17.7006 11.9124 17.7839C11.9417 17.8705 11.9906 17.9492 12.0553 18.0139C12.1199 18.0785 12.1987 18.1274 12.2853 18.1567C12.3685 18.1849 12.457 18.1943 12.5442 18.1842H13.8849V25.5257C13.8756 25.6132 13.8857 25.7016 13.9145 25.7848C13.9444 25.8711 13.9936 25.9494 14.0583 26.0137C14.123 26.0781 14.2016 26.1268 14.2881 26.1561C14.3713 26.1844 14.4596 26.1939 14.5468 26.1842H17.5849C17.7735 26.2032 17.9517 26.1371 18.0693 26.0091C18.1861 25.8819 18.235 25.702 18.1829 25.5126L18.1849 18.1842H20.5257C20.6129 18.1943 20.7013 18.1849 20.7846 18.1567C20.8712 18.1274 20.9499 18.0785 21.0146 18.0139C21.0792 17.9492 21.1281 17.8705 21.1574 17.7839C21.1856 17.7006 21.195 17.6122 21.1849 17.525V14.5435C21.195 14.4562 21.1856 14.3678 21.1574 14.2846C21.1281 14.1979 21.0792 14.1192 21.0146 14.0546C20.9499 13.9899 20.8712 13.941 20.7846 13.9117C20.7013 13.8835 20.6129 13.8742 20.5257 13.8842H18.1822L18.1849 12.5457C18.2087 12.389 18.2252 12.2897 18.2444 12.2231C18.2564 12.1814 18.266 12.1659 18.2696 12.1612C18.272 12.1604 18.2776 12.1588 18.2883 12.1576C18.3065 12.1556 18.3327 12.1553 18.3723 12.1575C18.4077 12.1594 18.4483 12.163 18.4982 12.1673C18.504 12.1678 18.51 12.1684 18.516 12.1689C18.5733 12.1739 18.6398 12.1795 18.7161 12.184ZM18.2712 12.1595C18.2712 12.1596 18.2709 12.16 18.2702 12.1605C18.2709 12.1597 18.2712 12.1594 18.2712 12.1595Z" fill="#DC6A8D" stroke="#DC6A8D" stroke-width="0.3"/>
</svg>
