<svg width="32" height="32" viewBox="0 0 32 32" fill="none" xmlns="http://www.w3.org/2000/svg">
<path d="M23.4667 7.46689H25.6H23.4667ZM9.59998 1.06689H22.4C24.6632 1.06689 26.8337 1.96594 28.434 3.56625C30.0343 5.16656 30.9333 7.33705 30.9333 9.60023V22.4002C30.9333 24.6634 30.0343 26.8339 28.434 28.4342C26.8337 30.0345 24.6632 30.9336 22.4 30.9336H9.59998C7.3368 30.9336 5.16632 30.0345 3.56601 28.4342C1.9657 26.8339 1.06665 24.6634 1.06665 22.4002V9.60023C1.06665 7.33705 1.9657 5.16656 3.56601 3.56625C5.16632 1.96594 7.3368 1.06689 9.59998 1.06689V1.06689ZM16 22.4002C14.3026 22.4002 12.6747 21.7259 11.4745 20.5257C10.2743 19.3255 9.59998 17.6976 9.59998 16.0002C9.59998 14.3028 10.2743 12.675 11.4745 11.4747C12.6747 10.2745 14.3026 9.60023 16 9.60023C17.6974 9.60023 19.3252 10.2745 20.5255 11.4747C21.7257 12.675 22.4 14.3028 22.4 16.0002C22.4 17.6976 21.7257 19.3255 20.5255 20.5257C19.3252 21.7259 17.6974 22.4002 16 22.4002Z" stroke="#DC6A8D" stroke-width="2"/>
</svg>
