<svg width="44" height="50" viewBox="0 0 44 50" fill="none" xmlns="http://www.w3.org/2000/svg">
<path fill-rule="evenodd" clip-rule="evenodd" d="M34.3616 1.76261C35.2108 0.759617 36.4219 0.132826 37.7311 0.0187986C39.0403 -0.0952286 40.3415 0.312749 41.3513 1.15384C42.361 1.99494 42.9975 3.201 43.122 4.50926C43.2465 5.81752 42.8489 7.12197 42.0159 8.13841L28.0688 24.8749L42.0159 41.6114C42.4407 42.1131 42.762 42.6941 42.9612 43.3207C43.1604 43.9472 43.2336 44.607 43.1765 45.262C43.1195 45.917 42.9333 46.5543 42.6288 47.137C42.3243 47.7197 41.9074 48.2363 41.4022 48.6571C40.8971 49.0779 40.3136 49.3945 39.6854 49.5887C39.0573 49.7829 38.3969 49.8508 37.7424 49.7885C37.0879 49.7262 36.4522 49.535 35.8719 49.2258C35.2917 48.9167 34.7784 48.4957 34.3616 47.9871L21.5851 32.657L8.80862 47.9905C7.96291 49.0055 6.74863 49.643 5.4329 49.7627C4.11717 49.8824 2.80777 49.4746 1.79275 48.6289C0.777729 47.7832 0.140235 46.5689 0.0205103 45.2532C-0.0992147 43.9374 0.308635 42.628 1.15434 41.613L15.1014 24.8765L1.15434 8.14007C0.321341 7.12363 -0.0762217 5.81918 0.0482666 4.51092C0.172755 3.20266 0.809205 1.9966 1.81896 1.1555C2.82871 0.314408 4.12994 -0.0935676 5.43916 0.0204597C6.74837 0.134487 7.95948 0.761278 8.80862 1.76428L21.5851 17.0928L34.3616 1.75929V1.76261ZM39.2514 3.67535C38.9131 3.39365 38.4769 3.25779 38.0385 3.29764C37.6001 3.3375 37.1955 3.5498 36.9136 3.88788L35.6384 2.82525L36.9136 3.88788L22.8603 20.7505C22.7045 20.9374 22.5095 21.0877 22.2891 21.1909C22.0688 21.2941 21.8284 21.3475 21.5851 21.3475C21.3418 21.3475 21.1015 21.2941 20.8811 21.1909C20.6608 21.0877 20.4658 20.9374 20.31 20.7505L6.25664 3.88788C6.11903 3.71445 5.94812 3.57029 5.75397 3.46388C5.55982 3.35747 5.34635 3.29097 5.12612 3.26828C4.90589 3.24559 4.68335 3.26717 4.47158 3.33176C4.25982 3.39635 4.06311 3.50264 3.89303 3.64437C3.72295 3.78611 3.58293 3.96043 3.48121 4.15707C3.3795 4.35372 3.31813 4.56872 3.30074 4.78943C3.28334 5.01014 3.31026 5.23211 3.37991 5.44226C3.44956 5.65241 3.56054 5.84652 3.70632 6.01315L18.5384 23.8122C18.7869 24.1106 18.9229 24.4866 18.9229 24.8749C18.9229 25.2632 18.7869 25.6392 18.5384 25.9375L3.70632 43.7366C3.56054 43.9032 3.44956 44.0973 3.37991 44.3075C3.31026 44.5177 3.28334 44.7396 3.30074 44.9603C3.31813 45.181 3.3795 45.396 3.48121 45.5927C3.58293 45.7893 3.72295 45.9637 3.89303 46.1054C4.06311 46.2471 4.25982 46.3534 4.47158 46.418C4.68335 46.4826 4.90589 46.5042 5.12612 46.4815C5.34635 46.4588 5.55982 46.3923 5.75397 46.2859C5.94812 46.1795 6.11903 46.0353 6.25664 45.8619L20.31 28.9992C20.4658 28.8124 20.6608 28.662 20.8811 28.5589C21.1015 28.4557 21.3418 28.4022 21.5851 28.4022C21.8284 28.4022 22.0688 28.4557 22.2891 28.5589C22.5095 28.662 22.7045 28.8124 22.8603 28.9992L36.9136 45.8619C37.199 46.1881 37.6007 46.3898 38.0328 46.4239C38.4649 46.4579 38.8932 46.3216 39.2262 46.0442C39.5592 45.7667 39.7704 45.37 39.8149 44.9388C39.8593 44.5076 39.7333 44.0762 39.4639 43.7366L24.6319 25.9375C24.3834 25.6392 24.2473 25.2632 24.2473 24.8749C24.2473 24.4866 24.3834 24.1106 24.6319 23.8122L39.4639 6.01315C39.7456 5.6749 39.8815 5.23864 39.8416 4.80025C39.8018 4.36187 39.5895 3.95726 39.2514 3.67535Z" fill="#DC6A8D"/>
</svg>
