<svg width="45" height="44" viewBox="0 0 45 44" fill="none" xmlns="http://www.w3.org/2000/svg">
<path d="M44.724 4.49261C44.4386 3.2689 43.6798 2.20814 42.614 1.5426L41.614 0.902602C40.9509 0.48869 40.2127 0.209501 39.4417 0.0809774C38.6706 -0.0475459 37.8818 -0.0228836 37.1203 0.153563C36.3588 0.330011 35.6395 0.654779 35.0036 1.10931C34.3676 1.56385 33.8275 2.13925 33.414 2.80261L17.414 28.4126L17.724 28.6126L17.274 28.4426L9.08401 23.3426C8.42091 22.9287 7.68276 22.6495 6.91171 22.521C6.14067 22.3925 5.35181 22.4171 4.5903 22.5936C3.82879 22.77 3.10955 23.0948 2.4736 23.5493C1.83765 24.0038 1.29749 24.5792 0.884002 25.2426C0.0612985 26.5853 -0.200577 28.1976 0.154876 29.7317C0.510328 31.2657 1.45464 32.5986 2.78403 33.4426L18.154 43.0326C18.7178 43.3851 19.3692 43.5722 20.034 43.5726C20.2999 43.5729 20.565 43.5427 20.824 43.4826C21.7369 43.2664 22.5275 42.6986 23.024 41.9026L44.124 8.07262C44.4569 7.54569 44.6814 6.9577 44.7844 6.34302C44.8874 5.72833 44.8669 5.09927 44.724 4.49261ZM40.414 2.7926L41.414 3.43262C41.9794 3.78723 42.3818 4.35089 42.5335 5.00082C42.6853 5.65076 42.574 6.33431 42.224 6.9026L21.114 40.7326C21.0237 40.8778 20.9057 41.0038 20.7668 41.1033C20.6278 41.2028 20.4705 41.2739 20.304 41.3126C20.1345 41.3539 19.9584 41.3601 19.7865 41.3309C19.6145 41.3017 19.4503 41.2376 19.304 41.1426L3.93399 31.5526C3.09721 31.029 2.50214 30.1951 2.27908 29.2335C2.05603 28.2719 2.22317 27.2611 2.74399 26.4226C3.00031 26.0051 3.33766 25.6431 3.73611 25.358C4.13457 25.0729 4.58606 24.8704 5.06399 24.7626C5.34222 24.6949 5.62769 24.6613 5.91403 24.6626C6.62171 24.6558 7.31627 24.8537 7.91403 25.2326L16.094 30.3326C16.617 30.6568 17.2471 30.761 17.8466 30.6223C18.4461 30.4837 18.9665 30.1135 19.294 29.5926L35.294 3.9826C35.5533 3.5669 35.8919 3.20636 36.2906 2.92157C36.6893 2.63678 37.1401 2.43332 37.6175 2.32281C38.0948 2.21231 38.5892 2.19692 39.0725 2.27753C39.5557 2.35813 40.0184 2.53315 40.434 2.7926H40.414Z" fill="#DC6A8D"/>
</svg>
