<svg width="31" height="30" viewBox="0 0 31 30" fill="none" xmlns="http://www.w3.org/2000/svg">
<path d="M15.0093 0C6.70921 0 0 6.08671 0 13.5568C0 17.7068 2.07501 21.5801 5.6717 24.1393V29.1194C5.6717 29.396 5.81003 29.6035 6.01754 29.7419C6.15587 29.811 6.2942 29.8802 6.36337 29.8802C6.50171 29.8802 6.57087 29.8802 6.70921 29.811L12.4501 26.906C13.2801 27.0443 14.1793 27.1135 15.0093 27.1135C23.3093 27.1135 30.0185 21.0268 30.0185 13.5568C30.0185 6.08671 23.2401 0 15.0093 0ZM15.0093 25.661C14.1101 25.661 13.2801 25.5918 12.4501 25.4535H12.3809C12.3117 25.4535 12.2426 25.4535 12.2426 25.4535C12.1734 25.4535 12.1734 25.4535 12.1042 25.4535H12.0351L7.12421 27.9435V23.7935V23.7243C7.12421 23.6551 7.12421 23.6551 7.12421 23.586C7.12421 23.5168 7.12421 23.5168 7.05504 23.4476C7.05504 23.3785 6.98588 23.3785 6.98588 23.3785C6.98588 23.3093 6.91671 23.3093 6.84754 23.2401C6.84754 23.2401 6.84755 23.2401 6.77838 23.171C3.38919 20.8885 1.38334 17.3609 1.38334 13.5568C1.38334 6.84754 7.47005 1.45251 14.9401 1.45251C22.4101 1.45251 28.4968 6.91671 28.4968 13.5568C28.566 20.1968 22.4793 25.661 15.0093 25.661Z" fill="#575756"/>
<path d="M23.1018 9.19928H6.91671C6.50171 9.19928 6.22504 9.54512 6.22504 9.89095C6.22504 10.306 6.57087 10.5826 6.91671 10.5826H23.1018C23.5168 10.5826 23.7935 10.2368 23.7935 9.89095C23.7935 9.54512 23.5168 9.19928 23.1018 9.19928Z" fill="#575756"/>
<path d="M23.1018 12.7959H6.91671C6.50171 12.7959 6.22504 13.1417 6.22504 13.4876C6.22504 13.9026 6.57087 14.1792 6.91671 14.1792H23.1018C23.5168 14.1792 23.7935 13.8334 23.7935 13.4876C23.7935 13.0726 23.5168 12.7959 23.1018 12.7959Z" fill="#575756"/>
<path d="M23.1018 16.3234H6.91671C6.50171 16.3234 6.22504 16.6693 6.22504 17.0151C6.22504 17.4301 6.57087 17.7068 6.91671 17.7068H23.1018C23.5168 17.7068 23.7935 17.3609 23.7935 17.0151C23.7935 16.6693 23.5168 16.3234 23.1018 16.3234Z" fill="#575756"/>
</svg>
