<svg width="38" height="36" viewBox="0 0 38 36" fill="none" xmlns="http://www.w3.org/2000/svg">
<path d="M19.3125 16.6111H8.68826C8.17234 16.6111 7.75195 17.0289 7.75195 17.5416V19.4027C7.75195 19.9154 8.17234 20.3332 8.68826 20.3332C9.20418 20.3332 9.62456 19.9154 9.62456 19.4027V18.4721H13.0641V27.1698H12.4399C11.9239 27.1698 11.5035 27.5876 11.5035 28.1003C11.5035 28.613 11.9239 29.0308 12.4399 29.0308H15.5672C16.0832 29.0308 16.5035 28.613 16.5035 28.1003C16.5035 27.5876 16.0832 27.1698 15.5672 27.1698H14.943V18.4721H18.3825V19.4027C18.3825 19.9154 18.8029 20.3332 19.3188 20.3332C19.8348 20.3332 20.2551 19.9154 20.2551 19.4027V17.5416C20.2488 17.0289 19.8284 16.6111 19.3125 16.6111Z" fill="#575650"/>
<path d="M7.43949 34.7501H30.5605C32.8675 34.7501 34.75 32.8877 34.75 30.5881V10.0911C34.75 7.78617 32.8684 5.92285 30.5605 5.92285H7.43949C5.13157 5.92285 3.25 7.78617 3.25 10.0911V30.5818C3.25 32.8868 5.13157 34.7501 7.43949 34.7501Z" stroke="#575650" stroke-width="1.5" stroke-miterlimit="10"/>
<path d="M4.03906 12.6865H29.4913" stroke="#575650" stroke-width="1.5" stroke-miterlimit="10" stroke-linecap="round"/>
<path d="M22.7393 17.1807H29.4909" stroke="#575650" stroke-width="1.5" stroke-miterlimit="10" stroke-linecap="round"/>
<path d="M22.7393 20.9663H29.4909" stroke="#575650" stroke-width="1.5" stroke-miterlimit="10" stroke-linecap="round"/>
<path d="M22.7393 24.7517H29.4909" stroke="#575650" stroke-width="1.5" stroke-miterlimit="10" stroke-linecap="round"/>
<path d="M22.7393 28.5371H29.4909" stroke="#575650" stroke-width="1.5" stroke-miterlimit="10" stroke-linecap="round"/>
</svg>
