<svg width="37" height="36" viewBox="0 0 37 36" fill="none" xmlns="http://www.w3.org/2000/svg">
<g clip-path="url(#clip0)">
<path d="M13.5157 27.0019H29.8706C31.512 27.0019 32.939 25.8336 33.2569 24.2144L36.695 6.8244C36.7468 6.55823 36.6802 6.27727 36.5028 6.07024C36.3327 5.86322 36.0739 5.73752 35.8004 5.73752H9.36044L7.81516 0.643253C7.80776 0.628466 7.80037 0.613678 7.79298 0.598891C7.7708 0.539741 7.74122 0.487985 7.70425 0.436229C7.67468 0.384473 7.6451 0.340111 7.60813 0.295749C7.57117 0.251386 7.5268 0.221811 7.48244 0.192237C7.43068 0.155268 7.38632 0.118299 7.33457 0.0961183C7.28281 0.0739372 7.23105 0.0591497 7.1793 0.0443623C7.12015 0.0295749 7.061 0.0147874 6.99446 0.00739372C6.97227 0.00739372 6.96488 0 6.9427 0H0.909427C0.406654 0 0 0.406654 0 0.909427C0 1.4122 0.406654 1.81885 0.909427 1.81885H6.26987L7.46765 5.7671C7.23845 5.79667 7.03142 5.89279 6.88355 6.07763C6.71349 6.28466 6.63956 6.55823 6.69131 6.83179L10.1294 24.2218C10.4473 25.8262 11.8743 27.0019 13.5157 27.0019ZM8.69501 7.56377H34.6987L33.9372 11.4085H25.2717C24.7689 11.4085 24.3623 11.8152 24.3623 12.3179C24.3623 12.8207 24.7689 13.2274 25.2717 13.2274H33.5749L33.22 15.0092C33.1682 15.0018 33.1238 14.9797 33.0647 14.9797H23.6451C23.1423 14.9797 22.7357 15.3863 22.7357 15.8891C22.7357 16.3919 23.1423 16.7985 23.6451 16.7985H32.8651L31.4677 23.8595C31.3198 24.6211 30.6396 25.1756 29.8632 25.1756H13.5157C12.7394 25.1756 12.0592 24.6211 11.9113 23.8595L8.69501 7.56377Z" fill="#575756"/>
<path d="M13.841 29.7744C12.1257 29.7744 10.7283 31.1718 10.7283 32.8872C10.7283 34.6025 12.1257 35.9999 13.841 35.9999C15.5564 35.9999 16.9538 34.6025 16.9538 32.8872C16.9538 31.1718 15.5564 29.7744 13.841 29.7744ZM13.841 34.1811C13.1238 34.1811 12.5471 33.597 12.5471 32.8872C12.5471 32.17 13.1312 31.5933 13.841 31.5933C14.5582 31.5933 15.1349 32.1774 15.1349 32.8872C15.1349 33.6044 14.5582 34.1811 13.841 34.1811Z" fill="#575756"/>
<path d="M30.9279 29.7744C29.2126 29.7744 27.8152 31.1718 27.8152 32.8872C27.8152 34.6025 29.2126 35.9999 30.9279 35.9999C32.6433 35.9999 34.0407 34.6025 34.0407 32.8872C34.0407 31.1718 32.6433 29.7744 30.9279 29.7744ZM30.9279 34.1811C30.2108 34.1811 29.634 33.597 29.634 32.8872C29.634 32.17 30.2181 31.5933 30.9279 31.5933C31.6451 31.5933 32.2218 32.1774 32.2218 32.8872C32.2218 33.6044 31.6451 34.1811 30.9279 34.1811Z" fill="#575756"/>
</g>
<defs>
<clipPath id="clip0">
<rect width="36.7098" height="36" fill="white"/>
</clipPath>
</defs>
</svg>
