<svg width="38" height="36" viewBox="0 0 38 36" fill="none" xmlns="http://www.w3.org/2000/svg">
<path d="M15.38 28.5015H29.1506C30.5326 28.5015 31.7341 27.528 32.0018 26.1787L34.8966 11.687C34.9402 11.4652 34.8842 11.2311 34.7348 11.0585C34.5916 10.886 34.3737 10.7813 34.1433 10.7813H11.8813L10.5802 6.53604C10.574 6.52372 10.5678 6.5114 10.5616 6.49908C10.5429 6.44978 10.518 6.40665 10.4869 6.36352C10.462 6.32039 10.4371 6.28343 10.4059 6.24646C10.3748 6.20949 10.3374 6.18484 10.3001 6.1602C10.2565 6.12939 10.2192 6.09858 10.1756 6.0801C10.132 6.06161 10.0884 6.04929 10.0449 6.03697C9.99505 6.02465 9.94525 6.01232 9.88922 6.00616C9.87054 6.00616 9.86432 6 9.84564 6H4.76572C4.3424 6 4 6.33888 4 6.75786C4 7.17683 4.3424 7.51571 4.76572 7.51571H9.27913L10.2876 10.8059C10.0947 10.8306 9.92035 10.9107 9.79584 11.0647C9.65266 11.2372 9.5904 11.4652 9.63398 11.6932L12.5288 26.1848C12.7965 27.5219 13.998 28.5015 15.38 28.5015ZM11.3211 12.3031H33.2158L32.5746 15.5071H25.2784C24.8551 15.5071 24.5127 15.846 24.5127 16.2649C24.5127 16.6839 24.8551 17.0228 25.2784 17.0228H32.2695L31.9707 18.5077C31.9271 18.5015 31.8898 18.4831 31.84 18.4831H23.9088C23.4855 18.4831 23.1431 18.8219 23.1431 19.2409C23.1431 19.6599 23.4855 19.9988 23.9088 19.9988H31.6719L30.4953 25.8829C30.3708 26.5176 29.798 26.9797 29.1444 26.9797H15.38C14.7264 26.9797 14.1536 26.5176 14.0291 25.8829L11.3211 12.3031Z" fill="#575650"/>
<path d="M15.6541 30.812C14.2098 30.812 13.0332 31.9765 13.0332 33.406C13.0332 34.8354 14.2098 35.9999 15.6541 35.9999C17.0984 35.9999 18.275 34.8354 18.275 33.406C18.275 31.9765 17.0984 30.812 15.6541 30.812ZM15.6541 34.4842C15.0502 34.4842 14.5646 33.9975 14.5646 33.406C14.5646 32.8083 15.0565 32.3277 15.6541 32.3277C16.258 32.3277 16.7435 32.8145 16.7435 33.406C16.7435 34.0036 16.258 34.4842 15.6541 34.4842Z" fill="#575650"/>
<path d="M30.0398 30.812C28.5955 30.812 27.4189 31.9765 27.4189 33.406C27.4189 34.8354 28.5955 35.9999 30.0398 35.9999C31.4841 35.9999 32.6607 34.8354 32.6607 33.406C32.6607 31.9765 31.4841 30.812 30.0398 30.812ZM30.0398 34.4842C29.436 34.4842 28.9504 33.9975 28.9504 33.406C28.9504 32.8083 29.4422 32.3277 30.0398 32.3277C30.6437 32.3277 31.1293 32.8145 31.1293 33.406C31.1293 34.0036 30.6437 34.4842 30.0398 34.4842Z" fill="#575650"/>
</svg>
