<svg width="24" height="24" viewBox="0 0 24 24" fill="none" xmlns="http://www.w3.org/2000/svg">
<path d="M12 1.91992C9.32663 1.91992 6.76274 2.98192 4.87238 4.87229C2.98201 6.76265 1.92001 9.32654 1.92001 11.9999C1.92001 14.6733 2.98201 17.2372 4.87238 19.1276C6.76274 21.0179 9.32663 22.0799 12 22.0799C14.6734 22.0799 17.2373 21.0179 19.1276 19.1276C21.018 17.2372 22.08 14.6733 22.08 11.9999C22.08 9.32654 21.018 6.76265 19.1276 4.87229C17.2373 2.98192 14.6734 1.91992 12 1.91992ZM17.7468 15.6731L15.672 17.7479L12 14.0747L8.32681 17.7467L6.25201 15.6719L9.92641 11.9999L6.25321 8.32672L8.32801 6.25312L12 9.92512L15.6732 6.25192L17.748 8.32672L14.0736 11.9999L17.7468 15.6731Z" fill="#575756"/>
</svg>
