<svg width="38" height="36" viewBox="0 0 38 36" fill="none" xmlns="http://www.w3.org/2000/svg">
<path d="M18.4965 29.7534C18.898 29.7534 19.2349 29.4232 19.2349 29.0211V26.9607C20.6401 26.5586 21.4575 25.0868 21.0416 23.6797C20.719 22.5382 19.6794 21.7556 18.4965 21.7556C17.0339 21.7556 15.8438 22.9402 15.8438 24.412C15.8438 25.5966 16.6252 26.6376 17.7652 26.9607V29.0211C17.758 29.4232 18.0878 29.7534 18.4965 29.7534ZM17.3135 24.4048C17.3135 23.7515 17.844 23.2202 18.4965 23.2202C19.1489 23.2202 19.6794 23.7515 19.6794 24.4048C19.6794 25.0581 19.1489 25.5894 18.4965 25.5894C17.844 25.5894 17.3135 25.0581 17.3135 24.4048Z" fill="#575650"/>
<path d="M30.9857 31.8857L30.9928 19.5371C30.9857 17.5987 29.5876 15.9905 27.6805 15.7608V10.2614C27.6949 7.77733 26.7055 5.37942 24.9346 3.63483C23.2211 1.93332 20.9771 1 18.604 1C18.5681 1 18.5251 1 18.4892 1C13.4276 1.00718 9.3123 5.15686 9.3123 10.2686V15.768C7.39805 15.9905 6 17.5987 6 19.5371V31.8857C6 33.982 7.67766 35.7123 9.77115 35.7123H27.2217V35.6979C27.2432 35.6979 27.2575 35.7123 27.279 35.7123C27.6877 35.7123 28.0103 35.382 28.0103 34.98C28.0103 34.5707 27.6805 34.2477 27.279 34.2477C27.2719 34.2477 27.2647 34.2549 27.2575 34.2549V34.2477H9.79983C8.51649 34.2477 7.46974 33.1995 7.46974 31.9144V19.573C7.46974 18.2879 8.51649 17.2397 9.79983 17.2397H27.2647C28.548 17.2397 29.5948 18.2879 29.5948 19.573V31.9072C29.5948 31.9144 29.5948 31.9144 29.5948 31.9216C29.5948 32.3092 29.9102 32.6251 30.2974 32.6251C30.6845 32.6251 31 32.3092 31 31.9216C30.9928 31.9072 30.9857 31.9 30.9857 31.8857ZM23.1207 15.768H13.8649V10.2614C13.8649 7.65528 15.9369 5.53736 18.5108 5.53736H18.5538C19.7439 5.53736 20.891 6.01838 21.737 6.86555C22.6332 7.76297 23.1422 8.99064 23.1279 10.2686V15.768H23.1207ZM26.2036 15.768H24.5833V10.2614C24.5976 8.5886 23.9381 6.9876 22.7551 5.81018C21.6367 4.6902 20.1239 4.05841 18.5466 4.05841H18.5036C15.1196 4.05841 12.388 6.84401 12.388 10.2542V15.768H10.7677V10.2614H10.7749C10.7749 5.96095 14.2377 2.44305 18.4892 2.44305H18.4964C20.5182 2.43587 22.4611 3.23996 23.8879 4.66866C25.3791 6.14761 26.2108 8.16501 26.1964 10.2614V15.768H26.2036Z" fill="#575650"/>
</svg>
