<svg width="26" height="36" viewBox="0 0 26 36" fill="none" xmlns="http://www.w3.org/2000/svg">
<g clip-path="url(#clip0)">
<path d="M12.96 29.8202C13.3764 29.8202 13.7259 29.4777 13.7259 29.0607V26.9238C15.1832 26.5068 16.0309 24.9804 15.5996 23.5211C15.265 22.3372 14.1869 21.5256 12.96 21.5256C11.4432 21.5256 10.2089 22.7542 10.2089 24.2805C10.2089 25.5091 11.0194 26.5887 12.2016 26.9238V29.0607C12.1942 29.4777 12.5362 29.8202 12.96 29.8202ZM11.7332 24.2731C11.7332 23.5955 12.2834 23.0446 12.96 23.0446C13.6366 23.0446 14.1869 23.5955 14.1869 24.2731C14.1869 24.9507 13.6366 25.5016 12.96 25.5016C12.2834 25.5016 11.7332 24.9507 11.7332 24.2731Z" fill="#575756"/>
<path d="M25.9126 32.0314L25.92 19.2248C25.9126 17.2145 24.4627 15.5466 22.4848 15.3084V9.60496C22.4997 7.02875 21.4736 4.54188 19.637 2.73258C17.86 0.967942 15.5327 0 13.0715 0C13.0344 0 12.9897 0 12.9526 0C7.70313 0.00744571 3.43518 4.31107 3.43518 9.61241V15.3158C1.44991 15.5466 0 17.2145 0 19.2248V32.0314C0 34.2056 1.7399 36 3.91105 36H22.0089V35.9851C22.0313 35.9851 22.0461 36 22.0684 36C22.4923 36 22.8269 35.6575 22.8269 35.2405C22.8269 34.8161 22.4848 34.4811 22.0684 34.4811C22.061 34.4811 22.0536 34.4885 22.0461 34.4885V34.4811H3.94079C2.60985 34.4811 1.52427 33.394 1.52427 32.0612V19.262C1.52427 17.9293 2.60985 16.8422 3.94079 16.8422H22.0536C23.3845 16.8422 24.4701 17.9293 24.4701 19.262V32.0538C24.4701 32.0612 24.4701 32.0612 24.4701 32.0687C24.4701 32.4707 24.7972 32.7983 25.1988 32.7983C25.6003 32.7983 25.9274 32.4707 25.9274 32.0687C25.92 32.0538 25.9126 32.0463 25.9126 32.0314ZM17.7559 15.3158H8.1567V9.60496C8.1567 6.90217 10.3055 4.70569 12.9749 4.70569H13.0195C14.2538 4.70569 15.4434 5.20455 16.3208 6.08314C17.2503 7.01386 17.7782 8.28707 17.7633 9.61241V15.3158H17.7559ZM20.9531 15.3158H19.2727V9.60496C19.2876 7.87011 18.6035 6.20972 17.3767 4.98862C16.2167 3.82709 14.6478 3.17187 13.012 3.17187H12.9674C9.4579 3.17187 6.62499 6.06081 6.62499 9.59752V15.3158H4.94458V9.60496H4.95201C4.95201 5.14498 8.54334 1.49659 12.9526 1.49659H12.96C15.0568 1.48914 17.0718 2.32306 18.5515 3.80476C20.098 5.33857 20.9606 7.43082 20.9457 9.60496V15.3158H20.9531Z" fill="#575756"/>
</g>
<defs>
<clipPath id="clip0">
<rect width="25.92" height="36" fill="white"/>
</clipPath>
</defs>
</svg>
