<svg width="100" height="87" viewBox="0 0 100 87" fill="none" xmlns="http://www.w3.org/2000/svg">
<path d="M77.8102 0C72.6096 0 67.8536 2.80774 65.5059 7.26529L50.0178 36.6646L47.5811 32.1285C45.2334 27.6744 42.1493 24.8939 36.9487 24.8939L36.2763 24.9076C25.6937 24.9076 19.6607 35.8721 24.904 44.6984L35.5934 61.7976L43.5224 61.7942V56.1241L34.2274 40.4766C33.146 38.656 33.1567 36.487 34.2523 34.6766C35.3479 32.8663 37.3044 31.7835 39.4885 31.7835H39.5134C41.7971 31.7835 43.8603 32.9961 44.9026 34.9465L50.0071 43.1238L55.1331 34.9465C56.1753 32.9961 58.2349 31.7835 60.5187 31.7835C62.7028 31.7835 64.6628 32.8663 65.7584 34.6835C66.3631 35.6877 66.6335 36.8012 66.573 37.9045C67.7931 37.5971 69.0986 37.4331 70.4646 37.4331C73.3779 37.4331 75.9711 38.147 78.0984 39.3904L89.7766 19.8352C95.0449 11.0021 88.4071 0 77.8102 0Z" fill="#EC668D"/>
<path d="M57.3954 54.4983L56.4101 56.1515V61.7841L63.7984 61.7806C60.7428 60.2641 58.459 57.692 57.3954 54.4983Z" fill="#EC658B"/>
<path d="M91.7793 47.6223C89.6592 47.2602 87.9482 46.9733 87.9482 45.7539C87.9482 44.7599 88.777 44.1724 90.0114 44.1724C90.8758 44.1724 91.573 44.4183 91.9785 44.9307C92.5939 45.7095 93.5437 46.1808 94.561 46.1808C97.7127 46.1808 99.0182 42.2391 96.4037 40.5483C94.8029 39.5133 92.6544 38.9292 90.1074 38.9292C86.1767 38.9292 83.146 40.2374 81.6342 42.4508C83.3025 44.5686 84.2451 47.2192 84.2451 50.126V50.1465C84.2451 50.6179 84.0886 51.0551 83.8218 51.4138C85.3087 52.172 87.0802 52.5068 88.6241 52.7459C90.769 53.0875 92.4587 53.4393 92.4587 54.6758C92.4587 55.7859 91.3916 56.3358 90.2675 56.3358C89.3177 56.3358 88.5067 56.0318 88.0549 55.3863C87.4431 54.5152 86.3688 54.0439 85.2732 54.0439C82.0717 54.0439 80.6346 57.9583 83.1744 59.8336C84.857 61.0735 87.219 61.7771 90.1252 61.7771C96.0622 61.7771 100 58.843 100 54.3615C99.9964 48.9271 95.308 48.2234 91.7793 47.6223Z" fill="#EC668D"/>
<path d="M35.5898 72.1167V86.0905H27.6003V73.0663C27.6003 70.7402 26.7075 69.6164 25.0107 69.6164C22.8159 69.6164 21.6882 71.0681 21.6882 73.8758V86.0905H13.9051V73.0663C13.9051 70.8085 13.0194 69.6164 11.3475 69.6164C9.18113 69.6164 7.99303 71.1057 7.99303 73.8758V86.0905H0V66.2177C0 64.889 1.12052 63.8131 2.50427 63.8131H4.25085C5.63105 63.8131 6.74801 64.8822 6.75512 66.2075C8.43056 64.3322 10.8637 63.1538 13.5387 63.1538C16.3667 63.1538 18.75 64.3732 20.1942 66.4329C21.8626 64.4176 24.4308 63.1538 27.3193 63.1538C32.2887 63.1504 35.5898 66.8701 35.5898 72.1167Z" fill="#4B66AE"/>
<path d="M99.9964 72.1167V86.0905H92.0034V73.0663C92.0034 70.7402 91.1105 69.6164 89.4138 69.6164C87.219 69.6164 86.0913 71.0681 86.0913 73.8758V86.0905H78.3082V73.0663C78.3082 70.8085 77.4224 69.6164 75.7505 69.6164C73.5842 69.6164 72.3961 71.1057 72.3961 73.8758V86.0905H64.4031V66.2075C64.4031 64.8856 65.52 63.8131 66.8967 63.8131H68.6682C70.0448 63.8131 71.1618 64.8856 71.1618 66.2075C72.8372 64.3322 75.2703 63.1538 77.9453 63.1538C80.7733 63.1538 83.1566 64.3732 84.6009 66.4329C86.2692 64.4176 88.8375 63.1538 91.7259 63.1538C96.6953 63.1504 99.9964 66.8701 99.9964 72.1167Z" fill="#4B66AE"/>
<path d="M64.3035 39.6805C65.0897 38.3654 65.0861 36.801 64.2928 35.4894C63.5031 34.1777 62.0874 33.3955 60.5115 33.3955C58.8539 33.3955 57.3599 34.2768 56.6128 35.6977L56.5844 35.749L49.9965 46.2592L43.405 35.6977C42.658 34.2768 41.1639 33.3955 39.5063 33.3955H39.4849C37.9091 33.3955 36.4969 34.1777 35.7072 35.4825C34.9175 36.7908 34.9104 38.3552 35.6894 39.6668L45.2085 55.6867V63.7888C46.6527 63.3243 48.2356 63.0783 49.9289 63.0783C51.6506 63.0783 53.262 63.3379 54.7275 63.8195V55.7174L64.3035 39.6805Z" fill="#EC668D"/>
<path d="M54.724 63.8233C53.2584 63.3416 51.647 63.082 49.9253 63.082C48.2321 63.082 46.6456 63.3314 45.2049 63.7925C40.1999 65.3979 36.9166 69.589 36.9166 74.9483C36.9166 81.831 42.3591 86.818 49.9253 86.818C57.4666 86.818 62.934 81.831 62.934 74.9483C62.934 69.6198 59.6791 65.4491 54.724 63.8233ZM51.8355 79.2009C51.3411 79.604 50.7861 80.0617 50.2028 80.5467C50.1281 80.6116 50.0285 80.6458 49.9253 80.6458C49.8221 80.6458 49.7261 80.6116 49.6478 80.5467C49.068 80.0583 48.5095 79.604 48.0186 79.2009C45.1195 76.827 43.2022 75.2592 43.2022 72.9706C43.2022 71.4438 43.999 70.1868 45.2085 69.6027C45.678 69.3772 46.2045 69.2509 46.7736 69.2509C47.5028 69.2509 48.1716 69.4729 48.7621 69.9101C49.3277 70.3302 49.7048 70.8631 49.9253 71.2525C50.1458 70.8631 50.5229 70.3302 51.0885 69.9101C51.679 69.4729 52.3478 69.2509 53.077 69.2509C53.6781 69.2509 54.2331 69.3909 54.7204 69.6403C55.8836 70.238 56.6484 71.4745 56.6484 72.9706C56.6484 75.2626 54.7346 76.8304 51.8355 79.2009Z" fill="#4B66AE"/>
<path d="M70.4005 38.9292C68.91 38.9292 67.5049 39.1512 66.2137 39.5577C66.0927 39.8754 58.4946 52.6605 58.4946 52.6605C59.5582 58.013 64.2821 61.7805 70.4005 61.7805C75.2988 61.7805 79.3682 59.4442 81.3638 55.5878C81.7835 54.7783 81.1681 53.8287 80.2255 53.8287H74.4379C73.698 55.0857 72.1969 55.8405 70.4005 55.8405C67.9709 55.8405 66.3453 54.5699 65.8402 52.1071H80.5634C81.6768 52.1071 82.5804 51.2395 82.5804 50.1704V50.1499C82.5839 43.8615 77.5967 38.9292 70.4005 38.9292ZM65.9754 48.0151C66.5979 45.8837 68.1559 44.7155 70.4005 44.7155C72.7234 44.7155 74.3312 45.8734 75.0071 48.0151H65.9754Z" fill="#EC668D"/>
</svg>
