<svg width="31" height="31" viewBox="0 0 31 31" fill="none" xmlns="http://www.w3.org/2000/svg">
<g clip-path="url(#clip0)">
<path d="M3.83001 16.1201C6.91001 20.7901 13.54 21.4801 17.51 17.5101C20.13 14.8901 20.91 10.8101 19.19 7.30012C19.13 7.17012 19.06 7.05012 19.03 6.99012C18.87 6.70012 18.51 6.60012 18.23 6.76012C17.94 6.92012 17.84 7.28012 18 7.56012C19.68 10.6101 19 14.3501 16.68 16.6701C13.23 20.1201 7.48001 19.5101 4.82001 15.4701C2.89001 12.5401 3.17001 8.59012 5.67001 5.94012C8.09001 3.40012 11.9 2.80012 14.92 4.48012C15.21 4.64012 15.57 4.54012 15.72 4.25012C15.88 3.96012 15.78 3.60012 15.49 3.45012C12.18 1.61012 7.71001 2.07012 4.80001 5.12012C1.89001 8.21012 1.62001 12.7701 3.83001 16.1201Z" fill="#575756"/>
<path d="M3.29 19.1801C7.23 23.1201 13.41 23.5501 17.83 20.3401L19.67 22.1801C19.36 22.8301 19.46 23.6401 20.02 24.2001L25.24 29.4101C26.4 30.5701 28.27 30.5701 29.42 29.4101C30.58 28.2501 30.58 26.3801 29.42 25.2301L24.21 20.0101C23.65 19.4501 22.84 19.3501 22.19 19.6601L20.35 17.8201C23.56 13.4001 23.13 7.22009 19.19 3.28009C14.8 -1.09991 7.67 -1.09991 3.29 3.29009C-1.1 7.67009 -1.1 14.8001 3.29 19.1801ZM20.85 22.5301L22.52 20.8601C22.75 20.6301 23.13 20.6301 23.36 20.8601L28.57 26.0801C29.26 26.7701 29.26 27.9001 28.57 28.5901C27.88 29.2801 26.75 29.2801 26.06 28.5901L20.84 23.3801C20.62 23.1301 20.62 22.7601 20.85 22.5301ZM18.75 19.5901C18.9 19.4601 19.04 19.3201 19.18 19.1801C19.32 19.0401 19.45 18.9001 19.59 18.7501L21.27 20.4301L20.43 21.2701L18.75 19.5901ZM4.12 4.12009C8.04 0.200089 14.42 0.200089 18.34 4.12009C22.26 8.04009 22.29 14.3901 18.34 18.3401C14.39 22.2901 8.04 22.2601 4.12 18.3401C0.199997 14.4201 0.199997 8.04009 4.12 4.12009Z" fill="#575756"/>
<path d="M16.67 5.8001C16.9 6.0301 17.26 6.0301 17.49 5.8101C17.5 5.8101 17.5 5.8001 17.51 5.8001C17.74 5.5701 17.74 5.1901 17.51 4.9601C17.28 4.7301 16.9 4.7301 16.67 4.9601C16.66 4.9701 16.66 4.9701 16.66 4.9801C16.44 5.2101 16.45 5.5701 16.67 5.8001Z" fill="#575756"/>
</g>
<defs>
<clipPath id="clip0">
<rect width="30.28" height="30.28" fill="white"/>
</clipPath>
</defs>
</svg>
