<svg width="38" height="37" viewBox="0 0 38 37" fill="none" xmlns="http://www.w3.org/2000/svg">
<path d="M18.6957 20.1801C18.8559 20.1801 19.0962 20.1 19.1763 20.0199L21.8997 17.6169C21.8997 17.6169 22.941 16.7358 23.9022 15.6945C25.7444 13.8522 27.3464 12.0901 27.3464 9.44677C27.3464 6.48309 25.1037 4.0801 22.3803 4.0801C20.7783 4.0801 19.4967 5.52189 18.6957 6.64329C17.8947 5.44179 16.6131 4 14.931 4C12.2076 4 9.96484 6.40298 9.96484 9.36666C9.96484 12.0099 11.4066 13.7721 15.4116 17.5368L18.0549 20.0199C18.2952 20.1 18.4554 20.1801 18.6957 20.1801ZM11.5668 9.28657C11.5668 7.20399 13.0887 5.44179 15.0111 5.44179C16.1325 5.44179 17.334 6.88358 18.0549 8.40547C18.0549 8.48557 18.135 8.56567 18.2151 8.56567C18.3753 8.72587 18.6156 8.88607 18.8559 8.80597C19.0962 8.80597 19.3365 8.64577 19.4166 8.40547C20.0574 7.04378 21.2589 5.52189 22.3803 5.52189C24.3027 5.52189 25.8245 7.20398 25.8245 9.36666C25.8245 11.3692 24.6231 12.811 22.8609 14.493C21.8997 15.4542 20.9385 16.3353 20.8584 16.3353L18.6957 18.2577L16.533 16.2552C12.2877 12.4906 11.5668 11.1289 11.5668 9.28657Z" fill="#575756"/>
<path d="M14.851 36.12C15.2515 36.12 15.652 35.7996 15.652 35.319V29.3115C15.652 27.0687 13.8898 25.3866 12.2878 23.8647C11.3266 22.9836 10.2853 22.0224 10.2853 21.3016V18.0175C10.2853 16.015 9.1639 14.9737 7.96241 14.4931C7.96241 13.7722 7.88231 11.9299 7.96241 10.1677C8.12261 7.28413 6.92111 5.84235 5.63952 5.68215C4.59823 5.52195 3.23654 6.16275 2.67584 8.48563C1.95494 11.6095 1.95494 14.4931 2.03504 17.2966C2.03504 17.8573 2.03504 18.4981 2.03504 19.0588C2.03504 25.7871 4.43803 28.6707 6.04002 30.5931C6.76091 31.4742 7.24151 32.0349 7.24151 32.6757V35.2389C7.24151 35.6394 7.56191 36.0399 8.04251 36.0399C8.443 36.0399 8.8435 35.7195 8.8435 35.2389V32.6757C8.8435 31.5543 8.12261 30.6732 7.24151 29.6319C5.71962 27.7896 3.55693 25.2264 3.55693 19.0588C3.55693 18.4981 3.55693 17.9374 3.55693 17.2966C3.55693 14.5732 3.47683 11.7697 4.19773 8.80603C4.43803 7.60453 4.99872 7.04383 5.39922 7.12393C5.87982 7.20403 6.52062 8.16523 6.44052 10.0075C6.36042 11.6095 6.36042 13.1314 6.44052 14.0125C6.36042 14.0125 6.20022 14.0125 6.12012 14.0125C5.71962 14.0125 5.31912 14.3329 5.31912 14.8135V19.4593C5.31912 22.6632 5.95992 24.5055 5.95992 24.5856C6.12012 24.9861 6.52062 25.2264 6.92111 25.0662C7.32161 24.906 7.56191 24.5055 7.40171 24.105C7.40171 24.105 6.84101 22.4229 6.84101 19.4593V15.6145C7.64201 15.7747 8.7634 16.3354 8.7634 17.9374V21.2214C8.7634 22.5831 9.96489 23.7045 11.2465 24.8259C12.6082 26.1075 14.1301 27.5493 14.1301 29.1513V35.1588C14.1301 35.7996 14.4505 36.12 14.851 36.12Z" fill="#575756"/>
<path d="M33.7542 19.1388C33.7542 25.3065 31.5915 27.8697 30.0696 29.712C29.1885 30.7533 28.4676 31.6344 28.4676 32.7558V35.3189C28.4676 35.7194 28.788 36.1199 29.2686 36.1199C29.6691 36.1199 30.0696 35.7995 30.0696 35.3189V32.7558C30.0696 32.1951 30.5502 31.5543 31.2711 30.6732C32.8731 28.7508 35.2761 25.8672 35.2761 19.1388C35.2761 18.5781 35.2761 18.0175 35.2761 17.3767C35.2761 14.5732 35.3562 11.6896 34.6353 8.56571C34.0746 6.24282 32.7129 5.60203 31.6716 5.76223C30.39 5.92243 29.1885 7.44432 29.3487 10.2478C29.4288 12.0901 29.4288 13.8523 29.3487 14.5732C28.1472 15.0538 27.0258 16.0951 27.0258 18.0976V21.3816C27.0258 22.0224 25.9846 22.9836 25.0234 23.9448C23.4214 25.3866 21.6592 27.0687 21.6592 29.3916V35.399C21.6592 35.7995 21.9796 36.2 22.4602 36.2C22.8607 36.2 23.2612 35.8796 23.2612 35.399V29.3916C23.2612 27.7896 24.7831 26.3478 26.1448 25.0662C27.4263 23.8647 28.6278 22.7433 28.6278 21.4617V18.1777C28.6278 16.5757 29.7492 16.0951 30.5502 15.8548V19.6995C30.5502 22.5831 29.9895 24.2652 29.9895 24.3453C29.8293 24.7458 30.0696 25.1463 30.4701 25.3065C30.8706 25.4667 31.2711 25.2264 31.4313 24.8259C31.4313 24.7458 32.0721 22.9035 32.0721 19.6995V15.0538C32.0721 14.6533 31.7517 14.2528 31.2711 14.2528C31.191 14.2528 31.0308 14.2528 30.9507 14.2528C30.9507 13.3717 31.0308 11.7697 30.9507 10.2478C30.8706 8.32542 31.5114 7.36422 31.992 7.36422C32.3925 7.28412 32.9532 7.84482 33.1935 9.04631C33.9144 11.9299 33.8343 14.8135 33.8343 17.5369C33.7542 18.0174 33.7542 18.5781 33.7542 19.1388Z" fill="#575756"/>
</svg>
