<svg width="30" height="29" viewBox="0 0 30 29" fill="none" xmlns="http://www.w3.org/2000/svg">
<path d="M14.6217 14.1701C14.762 14.1701 14.9725 14.1 15.0426 14.0299L17.4277 11.9254C17.4277 11.9254 18.3396 11.1537 19.1814 10.2418C20.7949 8.62836 22.1979 7.08508 22.1979 4.77015C22.1979 2.17463 20.2337 0.0701535 17.8486 0.0701535C16.4456 0.0701535 15.3232 1.33284 14.6217 2.31493C13.9202 1.26269 12.7979 0 11.3247 0C8.93964 0 6.97546 2.10448 6.97546 4.7C6.97546 7.01492 8.23815 8.5582 11.7456 11.8552L14.0605 14.0299C14.271 14.1 14.4113 14.1701 14.6217 14.1701ZM8.37845 4.62986C8.37845 2.80597 9.71129 1.26269 11.3949 1.26269C12.377 1.26269 13.4292 2.52537 14.0605 3.85821C14.0605 3.92836 14.1307 3.99851 14.2008 3.99851C14.3411 4.1388 14.5516 4.2791 14.762 4.20896C14.9725 4.20896 15.1829 4.06866 15.2531 3.85821C15.8143 2.66567 16.8665 1.33283 17.8486 1.33283C19.5322 1.33283 20.865 2.80597 20.865 4.7C20.865 6.45373 19.8128 7.71642 18.2695 9.18956C17.4277 10.0313 16.5859 10.803 16.5158 10.803L14.6217 12.4866L12.7277 10.7328C9.00979 7.43582 8.37845 6.24329 8.37845 4.62986Z" fill="#575756"/>
<path d="M11.2546 28.1299C11.6053 28.1299 11.9561 27.8493 11.9561 27.4284V22.1672C11.9561 20.2031 10.4128 18.7299 9.00979 17.3971C8.168 16.6254 7.25606 15.7837 7.25606 15.1523V12.2762C7.25606 10.5225 6.27397 9.61053 5.22173 9.18963C5.22173 8.55829 5.15159 6.94485 5.22173 5.40156C5.36203 2.87619 4.30979 1.61351 3.18741 1.47321C2.27547 1.33291 1.08293 1.89411 0.591884 3.92844C-0.0394588 6.66426 -0.039459 9.18963 0.0306903 11.6449C0.0306903 12.1359 0.0306903 12.6971 0.0306903 13.1881C0.0306903 19.0807 2.13517 21.606 3.53815 23.2896C4.1695 24.0613 4.59039 24.5523 4.59039 25.1135V27.3583C4.59039 27.709 4.87099 28.0598 5.29188 28.0598C5.64263 28.0598 5.99338 27.7792 5.99338 27.3583V25.1135C5.99338 24.1314 5.36203 23.3598 4.59039 22.4478C3.25756 20.8344 1.36353 18.5896 1.36353 13.1881C1.36353 12.6971 1.36353 12.206 1.36353 11.6449C1.36353 9.25978 1.29338 6.80455 1.92472 4.20903C2.13517 3.15679 2.62621 2.66574 2.97696 2.73589C3.39785 2.80604 3.95905 3.64783 3.8889 5.26127C3.81875 6.66425 3.81875 7.99709 3.8889 8.76873C3.81875 8.76873 3.67845 8.76873 3.6083 8.76873C3.25756 8.76873 2.90681 9.04933 2.90681 9.47022V13.5389C2.90681 16.3449 3.468 17.9583 3.468 18.0284C3.6083 18.3792 3.95905 18.5896 4.30979 18.4493C4.66054 18.309 4.87099 17.9583 4.73069 17.6075C4.73069 17.6075 4.23965 16.1344 4.23965 13.5389V10.1717C4.94114 10.312 5.92323 10.8031 5.92323 12.206V15.0822C5.92323 16.2747 6.97547 17.2568 8.09785 18.2389C9.29039 19.3613 10.6232 20.6239 10.6232 22.0269V27.2881C10.6232 27.8493 10.9038 28.1299 11.2546 28.1299Z" fill="#575756"/>
<path d="M27.8098 13.2582C27.8098 18.6597 25.9158 20.9045 24.583 22.5179C23.8113 23.4299 23.18 24.2015 23.18 25.1836V27.4284C23.18 27.7791 23.4606 28.1299 23.8815 28.1299C24.2322 28.1299 24.583 27.8493 24.583 27.4284V25.1836C24.583 24.6925 25.0039 24.1313 25.6352 23.3597C27.0382 21.6761 29.1427 19.1507 29.1427 13.2582C29.1427 12.7672 29.1427 12.2761 29.1427 11.7149C29.1427 9.2597 29.2128 6.73432 28.5815 3.9985C28.0904 1.96418 26.8979 1.40298 25.9859 1.54328C24.8636 1.68358 23.8113 3.01642 23.9516 5.47164C24.0218 7.08507 24.0218 8.62835 23.9516 9.2597C22.8994 9.68059 21.9173 10.5925 21.9173 12.3463V15.2224C21.9173 15.7836 21.0053 16.6254 20.1636 17.4672C18.7606 18.7298 17.2173 20.203 17.2173 22.2373V27.4985C17.2173 27.8492 17.4979 28.2 17.9188 28.2C18.2695 28.2 18.6203 27.9194 18.6203 27.4985V22.2373C18.6203 20.8343 19.9531 19.5716 21.1456 18.4493C22.268 17.397 23.3203 16.4149 23.3203 15.2925V12.4164C23.3203 11.0134 24.3024 10.5925 25.0039 10.3821V13.7493C25.0039 16.2746 24.5128 17.7478 24.5128 17.8179C24.3725 18.1687 24.583 18.5194 24.9337 18.6597C25.2844 18.8 25.6352 18.5896 25.7755 18.2388C25.7755 18.1687 26.3367 16.5552 26.3367 13.7493V9.6806C26.3367 9.32985 26.0561 8.97911 25.6352 8.97911C25.565 8.97911 25.4247 8.97911 25.3546 8.97911C25.3546 8.20746 25.4247 6.80448 25.3546 5.47164C25.2844 3.78806 25.8456 2.94626 26.2665 2.94626C26.6173 2.87612 27.1083 3.36716 27.3188 4.4194C27.9501 6.94478 27.88 9.47014 27.88 11.8552C27.8098 12.2761 27.8098 12.7672 27.8098 13.2582Z" fill="#575756"/>
</svg>
