<svg width="38" height="36" viewBox="0 0 38 36" fill="none" xmlns="http://www.w3.org/2000/svg">
<path d="M33.009 8.83342H26.3652C27.1535 7.97516 27.5968 6.84956 27.5968 5.67471C27.5968 3.87376 26.5834 2.26274 24.9576 1.47483C23.3248 0.686907 21.4387 0.890922 20.0241 2.00245C19.7003 2.26274 19.644 2.73409 19.8974 3.06473C20.1578 3.38834 20.6293 3.44462 20.9601 3.19136C21.9173 2.43862 23.1982 2.29792 24.3031 2.83258C25.4221 3.37427 26.0907 4.43656 26.0907 5.67471C26.0907 7.33497 24.7958 8.72086 23.1489 8.83342H19.7496V5.67471C19.7496 3.09991 17.6523 1.00348 15.0764 1.00348C12.5005 1.00348 10.4033 3.09991 10.4033 5.67471C10.4033 6.84956 10.8466 7.97516 11.6349 8.83342H4.99111C3.34424 8.83342 2 10.1771 2 11.8303V14.7147C2 16.1287 3.01346 17.3598 4.37881 17.6483V32.0067C4.37881 33.6599 5.72305 35.0036 7.37696 35.0036H30.6231C32.277 35.0036 33.6213 33.6599 33.6213 32.0067V19.9557C33.6213 19.5407 33.2835 19.203 32.8682 19.203C32.453 19.203 32.1152 19.5407 32.1152 19.9557V32.0067C32.1152 32.8227 31.4466 33.4911 30.6302 33.4911H17.23V17.7116H20.763V31.676C20.763 32.0911 21.1009 32.4288 21.5161 32.4288C21.9313 32.4288 22.2692 32.0911 22.2692 31.676V17.7116H28.3077C28.7229 17.7116 29.0607 17.3739 29.0607 16.9588C29.0607 16.5438 28.7229 16.2061 28.3077 16.2061H24.7887V10.3459H33.002C33.8184 10.3459 34.487 11.0143 34.487 11.8303V14.7147C34.487 15.5307 33.8184 16.1991 33.002 16.1991H31.9181C31.5029 16.1991 31.1651 16.5367 31.1651 16.9518C31.1651 17.3669 31.5029 17.7045 31.9181 17.7045H33.002C34.6559 17.7045 36.0001 16.3609 36.0001 14.7147V11.8303C36.0001 10.1771 34.6559 8.83342 33.009 8.83342ZM15.7239 17.7116V33.4981H7.37696C6.56056 33.4981 5.89196 32.8298 5.89196 32.0137V17.7116H15.7239ZM13.9574 15.39C14.3726 15.39 14.7104 15.0524 14.7104 14.6373V10.3389H23.2897V16.1991H4.99111C4.17471 16.1991 3.50611 15.5307 3.50611 14.7147V11.8303C3.50611 11.0143 4.17471 10.3459 4.99111 10.3459H13.2043V14.6443C13.2043 15.0524 13.5422 15.39 13.9574 15.39ZM15.0764 2.50897C16.8218 2.50897 18.2435 3.93004 18.2435 5.67471V8.83342H14.8582C13.2043 8.72086 11.9094 7.33497 11.9094 5.67471C11.9094 3.93004 13.331 2.50897 15.0764 2.50897Z" fill="#575650"/>
</svg>
