<svg width="34" height="34" viewBox="0 0 34 34" fill="none" xmlns="http://www.w3.org/2000/svg">
<g clip-path="url(#clip0)">
<path d="M31.0089 7.83023H24.3651C25.1534 6.97196 25.5968 5.84637 25.5968 4.67153C25.5968 2.87057 24.5833 1.25957 22.9576 0.471651C21.3248 -0.316266 19.4386 -0.112252 18.024 0.999273C17.7003 1.25957 17.644 1.73091 17.8973 2.06155C18.1577 2.38516 18.6293 2.44144 18.9601 2.18818C19.9172 1.43544 21.1981 1.29474 22.303 1.8294C23.4221 2.37109 24.0907 3.43337 24.0907 4.67153C24.0907 6.33178 22.7957 7.71767 21.1488 7.83023H17.7495V4.67153C17.7495 2.09673 15.6522 0.00030785 13.0764 0.00030785C10.5005 0.00030785 8.40323 2.09673 8.40323 4.67153C8.40323 5.84637 8.84662 6.97196 9.63486 7.83023H2.9911C1.34424 7.83023 0 9.17391 0 10.8271V13.7115C0 15.1255 1.01345 16.3566 2.3788 16.645V31.0034C2.3788 32.6566 3.72304 34.0003 5.37694 34.0003H28.6231C30.277 34.0003 31.6212 32.6566 31.6212 31.0034V18.9525C31.6212 18.5374 31.2834 18.1998 30.8681 18.1998C30.4529 18.1998 30.1151 18.5374 30.1151 18.9525V31.0034C30.1151 31.8195 29.4465 32.4878 28.6301 32.4878H15.23V16.7084H18.763V30.6728C18.763 31.0878 19.1008 31.4255 19.516 31.4255C19.9313 31.4255 20.2691 31.0878 20.2691 30.6728V16.7084H26.3076C26.7228 16.7084 27.0606 16.3707 27.0606 15.9556C27.0606 15.5406 26.7228 15.2029 26.3076 15.2029H22.7887V9.34274H31.0019C31.8183 9.34274 32.4869 10.0111 32.4869 10.8271V13.7115C32.4869 14.5275 31.8183 15.1958 31.0019 15.1958H29.918C29.5028 15.1958 29.165 15.5335 29.165 15.9486C29.165 16.3636 29.5028 16.7013 29.918 16.7013H31.0019C32.6558 16.7013 34 15.3576 34 13.7115V10.8271C34 9.17391 32.6558 7.83023 31.0089 7.83023ZM13.7239 16.7084V32.4948H5.37694C4.56055 32.4948 3.89195 31.8265 3.89195 31.0104V16.7084H13.7239ZM11.9574 14.3868C12.3726 14.3868 12.7104 14.0491 12.7104 13.6341V9.33571H21.2896V15.1958H2.9911C2.17471 15.1958 1.50611 14.5275 1.50611 13.7115V10.8271C1.50611 10.0111 2.17471 9.34274 2.9911 9.34274H11.2043V13.6411C11.2043 14.0491 11.5421 14.3868 11.9574 14.3868ZM13.0764 1.50579C14.8218 1.50579 16.2434 2.92685 16.2434 4.67153V7.83023H12.8582C11.2043 7.71767 9.90934 6.33178 9.90934 4.67153C9.90934 2.92685 11.331 1.50579 13.0764 1.50579Z" fill="#575756"/>
</g>
<defs>
<clipPath id="clip0">
<rect width="34" height="34" fill="white"/>
</clipPath>
</defs>
</svg>
