<svg width="34" height="34" viewBox="0 0 34 34" fill="none" xmlns="http://www.w3.org/2000/svg">
<path d="M16.9965 0C7.62591 0 0 7.62591 0 16.9965C0 19.304 0.450238 21.534 1.34368 23.6375C1.47031 23.933 1.75171 24.1018 2.04718 24.1018C2.14567 24.1018 2.25119 24.0807 2.34968 24.0385C2.7366 23.8696 2.91951 23.4194 2.75771 23.0325C1.94165 21.119 1.53362 19.0859 1.53362 16.9894C1.53362 8.46307 8.4701 1.52659 16.9965 1.52659C25.5229 1.52659 32.4593 8.46307 32.4593 16.9894C32.4593 19.0788 32.0513 21.1049 31.2423 23.0114C31.0805 23.3983 31.2564 23.8485 31.6503 24.0174C32.0443 24.1792 32.4875 23.9963 32.6563 23.6094C33.5427 21.5129 33.993 19.2899 33.993 16.9894C34 7.62591 26.3741 0 16.9965 0Z" fill="#575756"/>
<path d="M23.5742 12.867C23.5742 9.23696 20.6265 6.28931 16.9965 6.28931C13.3664 6.28931 10.4188 9.23696 10.4188 12.867C10.4188 16.497 13.3664 19.4447 16.9965 19.4447C20.6265 19.4447 23.5742 16.49 23.5742 12.867ZM11.9524 12.867C11.9524 10.0882 14.2177 7.82293 16.9965 7.82293C19.7753 7.82293 22.0406 10.0882 22.0406 12.867C22.0406 15.6458 19.7753 17.9111 16.9965 17.9111C14.2177 17.9111 11.9524 15.6458 11.9524 12.867Z" fill="#575756"/>
<path d="M16.9965 22.5752C10.672 22.5752 6.69727 25.9098 4.88929 27.9007C4.61492 28.2032 4.62196 28.6675 4.91039 28.9559C8.12537 32.2061 12.4167 34 16.9894 34C21.5762 34 25.8746 32.199 29.0966 28.9348C29.385 28.6464 29.3921 28.175 29.1177 27.8796C27.3027 25.8957 23.2998 22.5752 16.9965 22.5752ZM16.9965 32.4664C13.085 32.4664 9.3987 31.0242 6.54251 28.4001C8.61079 26.3319 11.9876 24.1159 16.9965 24.1159C21.9913 24.1159 25.3892 26.3248 27.4715 28.379C24.6153 31.0172 20.922 32.4664 16.9965 32.4664Z" fill="#575756"/>
</svg>
