<svg width="37" height="35" viewBox="0 0 37 35" fill="none" xmlns="http://www.w3.org/2000/svg">
<path d="M11.5029 21.228V19.9654C11.5029 19.8423 11.5418 19.7785 11.5735 19.7468C11.6052 19.7151 11.669 19.6763 11.7921 19.6763C11.9575 19.6763 12.0812 19.8139 12.0812 19.9654V21.228C12.0812 21.3935 11.9436 21.5172 11.7921 21.5172C11.6267 21.5172 11.5029 21.3795 11.5029 21.228Z" fill="#575756" stroke="#DC6A8D"/>
<path d="M25.0767 21.228V19.9654C25.0767 19.8423 25.1155 19.7785 25.1472 19.7468C25.1789 19.7151 25.2427 19.6763 25.3658 19.6763C25.5312 19.6763 25.6549 19.8139 25.6549 19.9654V21.228C25.6549 21.3935 25.5173 21.5172 25.3658 21.5172C25.2004 21.5172 25.0767 21.3795 25.0767 21.228Z" fill="#575756" stroke="#DC6A8D"/>
<path d="M4.53538 23.7602L4.43295 23.4365L4.09431 23.4123C3.11935 23.3427 2.13473 22.8497 1.5105 22.1561L1.51052 22.1561L1.50743 22.1527C0.744096 21.32 0.389504 20.127 0.530193 19.0014L0.53024 19.0015L0.530996 18.9946C0.740922 17.1053 2.20181 15.6365 4.08715 15.4148H4.1376H4.50404L4.61439 15.0654C5.53072 12.1637 7.28522 9.64767 9.72486 7.81794L10.0587 7.56757L9.87207 7.19434C9.50234 6.45487 9.29354 5.74262 9.29354 4.9716C9.29354 2.48574 11.2793 0.5 13.7651 0.5C15.1236 0.5 16.3961 1.07062 17.2415 2.12738L17.4419 2.37792L17.7532 2.3001C18.3049 2.16218 18.9318 2.16218 19.4835 2.3001L19.7833 2.37505L19.9844 2.14043C20.8434 1.13825 22.1287 0.5 23.4716 0.5C25.9575 0.5 27.9432 2.48574 27.9432 4.9716C27.9432 7.45746 25.9575 9.4432 23.4716 9.4432H23.4711H23.4707H23.4702H23.4698H23.4693H23.4688H23.4684H23.4679H23.4674H23.467H23.4665H23.4661H23.4656H23.4651H23.4647H23.4642H23.4637H23.4633H23.4628H23.4624H23.4619H23.4614H23.461H23.4605H23.46H23.4596H23.4591H23.4587H23.4582H23.4577H23.4573H23.4568H23.4563H23.4559H23.4554H23.455H23.4545H23.454H23.4536H23.4531H23.4526H23.4522H23.4517H23.4513H23.4508H23.4503H23.4499H23.4494H23.4489H23.4485H23.448H23.4476H23.4471H23.4466H23.4462H23.4457H23.4452H23.4448H23.4443H23.4439H23.4434H23.4429H23.4425H23.442H23.4415H23.4411H23.4406H23.4402H23.4397H23.4392H23.4388H23.4383H23.4378H23.4374H23.4369H23.4365H23.436H23.4355H23.4351H23.4346H23.4341H23.4337H23.4332H23.4328H23.4323H23.4318H23.4314H23.4309H23.4304H23.43H23.4295H23.4291H23.4286H23.4281H23.4277H23.4272H23.4268H23.4263H23.4258H23.4254H23.4249H23.4244H23.424H23.4235H23.423H23.4226H23.4221H23.4217H23.4212H23.4207H23.4203H23.4198H23.4194H23.4189H23.4184H23.418H23.4175H23.417H23.4166H23.4161H23.4157H23.4152H23.4147H23.4143H23.4138H23.4133H23.4129H23.4124H23.412H23.4115H23.411H23.4106H23.4101H23.4096H23.4092H23.4087H23.4083H23.4078H23.4073H23.4069H23.4064H23.4059H23.4055H23.405H23.4046H23.4041H23.4036H23.4032H23.4027H23.4022H23.4018H23.4013H23.4009H23.4004H23.3999H23.3995H23.399H23.3985H23.3981H23.3976H23.3972H23.3967H23.3962H23.3958H23.3953H23.3948H23.3944H23.3939H23.3935H23.393H23.3925H23.3921H23.3916H23.3911H23.3907H23.3902H23.3898H23.3893H23.3888H23.3884H23.3879H23.3874H23.387H23.3865H23.3861H23.3856H23.3851H23.3847H23.3842H23.3837H23.3833H23.3828H23.3824H23.3819H23.3814H23.381H23.3805H23.38H23.3796H23.3791H23.3787H23.3782H23.3777H23.3773H23.3768H23.3763H23.3759H23.3754H23.375H23.3745H23.374H23.3736H23.3731H23.3727H23.3722H23.3717H23.3713H23.3708H23.3703H23.3699H23.3694H23.3689H23.3685H23.368H23.3676H23.3671H23.3666H23.3662H23.3657H23.3653H23.3648H23.3643H23.3639H23.3634H23.3629H23.3625H23.362H23.3616H23.3611H23.3606H23.3602H23.3597H23.3592H23.3588H23.3583H23.3579H23.3574H23.3569H23.3565H23.356H23.3555H23.3551H23.3546H23.3542H23.3537H23.3532H23.3528H23.3523H23.3518H23.3514H23.3509H23.3505H23.35H23.3495H23.3491H23.3486H23.3481H23.3477H23.3472H23.3468H23.3463H23.3458H23.3454H23.3449H23.3444H23.344H23.3435H23.3431H23.3426H23.3421H23.3417H23.3412H23.3407H23.3403H23.3398H23.3394H23.3389H23.3384H23.338H23.3375H23.337H23.3366H23.3361H23.3357H23.3352H23.3347H23.3343H23.3338H23.3333H23.3329H23.3324H23.332H23.3315H23.331H23.3306H23.3301H23.3296H23.3292H23.3287H23.3283H23.3278H23.3273H23.3269H23.3264H23.3259H23.3255H23.325H23.3246H23.3241H23.3236H23.3232H23.3227H23.3222H23.3218H23.3213H23.3209H23.3204H23.3199H23.3195H23.319H23.3186H23.3181H23.3176H23.3172H23.3167H23.3162H23.3158H23.3153H23.3149H23.3144H23.3139H23.3135H23.313H23.3125H23.3121H23.3116H23.3112H23.3107H23.3102H23.3098H23.3093H23.3088H23.3084H23.3079H23.3075H23.307H23.3065H23.3061H23.3056H23.3051H23.3047H23.3042H23.3038H23.3033H23.3028H23.3024H23.3019H23.3014H23.301H23.3005H23.3001H23.2996H23.2991H23.2987H23.2982H23.2977H23.2973H23.2968H23.2964H23.2959H23.2954H23.295H23.2945H23.294H23.2936H23.2931H23.2927H23.2922H23.2917H23.2913H23.2908H23.2903H23.2899H23.2894H23.289H23.2885H23.288H23.2876H23.2871H23.2866H23.2862H23.2857H23.2853H23.2848H23.2843H23.2839H23.2834H23.2829H23.2825H23.282H23.2816H23.2811H23.2806H23.2802H23.2797H23.2792H23.2788H23.2783H23.2779H23.2774H23.2769H23.2765H23.276H23.2755H23.2751H23.2746H23.2742H23.2737H23.2732H23.2728H23.2723H23.2718H23.2714H23.2709H23.2705H23.27H23.2695H23.2691H23.2686H23.2682H23.2677H23.2672H23.2668H23.2663H23.2658H23.2654H23.2649H23.2645H23.264H23.2635H23.2631H23.2626H23.2621H23.2617H23.2612H23.2608H23.2603H23.2598H23.2594H23.2589H23.2584H23.258H23.2575H23.2571H23.2566H23.2561H23.2557H23.2552H23.2547H23.2543H23.2538H23.2534H23.2529H23.2524H23.252H23.2515H23.251H23.2506H23.2501H23.2497H23.2492H23.2487H23.2483H23.2478H23.2473H23.2469H23.2464H23.246H23.2455H23.245H23.2446H23.2441H23.2436H23.2432H23.2427H23.2423H23.2418H23.2413H23.2409H23.2404H23.2399H23.2395H23.239H23.2386H23.2381H23.2376H23.2372H23.2367H23.2362H23.2358H23.2353H23.2349H22.5628L22.7559 10.0869C22.9797 10.8329 23.1294 11.6526 23.1294 12.7052C23.1294 15.1911 21.1437 17.1768 18.6578 17.1768C16.54 17.1768 15.0543 15.7176 15.0543 13.81C15.0543 12.1922 16.4087 10.8378 18.0265 10.8378C18.6959 10.8378 19.2353 11.07 19.6064 11.441C19.9774 11.812 20.2096 12.3515 20.2096 13.0209C20.2096 13.1863 20.0719 13.31 19.9205 13.31C19.755 13.31 19.6313 13.1723 19.6313 13.0209C19.6313 12.5492 19.5131 12.1036 19.1889 11.7795C18.8648 11.4554 18.4192 11.3371 17.9476 11.3371C16.5667 11.3371 15.4747 12.4291 15.4747 13.81C15.4747 14.7576 15.8844 15.4907 16.491 15.976C17.0851 16.4513 17.8508 16.6774 18.5789 16.6774C20.749 16.6774 22.5511 14.8753 22.5511 12.7052C22.5511 11.2075 22.217 10.0748 21.5927 9.18298L21.5131 9.06921L21.3862 9.01281C20.7615 8.73518 20.2661 8.31556 19.8266 7.80278L19.6255 7.56816L19.3257 7.6431C18.9983 7.72495 18.7434 7.786 18.5 7.786C18.2566 7.786 18.0017 7.72495 17.6743 7.6431L17.3745 7.56816L17.1734 7.80278C16.3144 8.80496 15.0292 9.4432 13.6862 9.4432C12.5663 9.4432 11.5773 9.02888 10.709 8.31067L10.6465 8.2481L10.3417 7.94331L9.9953 8.19988C7.78147 9.83975 6.06429 12.2125 5.16413 14.8312L4.9822 15.3604L5.5285 15.4818C6.12912 15.6153 6.68753 15.9552 7.20552 16.3992L7.21788 16.4098L7.23091 16.4196C7.27742 16.4545 7.30467 16.506 7.30986 16.5553C7.3143 16.5975 7.30401 16.6442 7.25627 16.6919C7.20688 16.7413 7.17735 16.7585 7.16015 16.7661C7.14512 16.7728 7.11745 16.7822 7.05743 16.7822C6.97642 16.7822 6.92245 16.7721 6.74167 16.6546C6.17959 16.1127 5.3622 15.7563 4.53217 15.7563H4.53124H4.53032H4.52939H4.52847H4.52754H4.52662H4.5257H4.52477H4.52385H4.52292H4.522H4.52107H4.52015H4.51922H4.5183H4.51737H4.51645H4.51552H4.5146H4.51367H4.51275H4.51182H4.5109H4.50997H4.50905H4.50812H4.5072H4.50628H4.50535H4.50443H4.5035H4.50258H4.50165H4.50073H4.4998H4.49888H4.49795H4.49703H4.4961H4.49518H4.49425H4.49333H4.4924H4.49148H4.49055H4.48963H4.4887H4.48778H4.48685H4.48593H4.48501H4.48408H4.48316H4.48223H4.48131H4.48038H4.47946H4.47853H4.47761H4.47668H4.47576H4.47483H4.47391H4.47298H4.47206H4.47113H4.47021H4.46928H4.46836H4.46743H4.46651H4.46558H4.46466H4.46374H4.46281H4.46189H4.46096H4.46004H4.45911H4.45819H4.45726H4.45634H4.45541H4.45449H4.45356H4.45264H4.45171H4.45079H4.44986H4.44894H4.44801H4.44709H4.44616H4.44524H4.44431H4.44339H4.44247H4.44154H4.44062H4.43969H4.43877H4.43784H4.43692H4.43599H4.43507H4.43414H4.43322H4.43229H4.43137H4.43044H4.42952H4.42859H4.42767H4.42674H4.42582H4.42489H4.42397H4.42305H4.42212H4.4212H4.42027H4.41935H4.41842H4.4175H4.41657H4.41565H4.41472H4.4138H4.41287H4.41195H4.41102H4.4101H4.40917H4.40825H4.40732H4.4064H4.40547H4.40455H4.40363H4.4027H4.40178H4.40085H4.39993H4.399H4.39808H4.39715H4.39623H4.3953H4.39438H4.39345H4.39253H4.3916H4.39068H4.38975H4.38883H4.3879H4.38698H4.38605H4.38513H4.3842H4.38328H4.38235H4.38143H4.38051H4.37958H4.37866H4.37773H4.37681H4.37588H4.37496H4.37403H4.37311H4.37218H4.37126H4.37033H4.36941H4.36848H4.36756H4.36663H4.36571H4.36478H4.36386H4.36293H4.36201H4.36108H4.36016H4.35924H4.35831H4.35739H4.35646H4.35554H4.35461H4.35369H4.35276H4.35184H4.35091H4.34999H4.34906H4.34814H4.34721H4.34629H4.34536H4.34444H4.34351H4.34259H4.34166H4.34074H4.33982H4.33889H4.33797H4.33704H4.33612H4.33519H4.33427H4.33334H4.33242H4.33149H4.33057H4.32964H4.32872H4.32779H4.32687H4.32594H4.32502H4.32409H4.32317H4.32224H4.32132H4.32039H4.31947H4.31855H4.31762H4.3167H4.31577H4.31485H4.31392H4.313H4.31207H4.31115H4.31022H4.3093H4.30837H4.30745H4.30652H4.3056H4.30467H4.30375H4.30282H4.3019H4.30097H4.30005H4.29913H4.2982H4.29728H4.29635H4.29543H4.2945H4.29358H4.29265H4.29173H4.2908H4.28988H4.28895H4.28803H4.2871H4.28618H4.28525H4.28433H4.2834H4.28248H4.28155H4.28063H4.2797H4.27878H4.27786H4.27693H4.27601H4.27508H4.27416H4.27323H4.27231H4.27138H4.27046H4.26953H4.26861H4.26768H4.26676H4.26583H4.26491H4.26398H4.26306H4.26213H4.26121H4.26028H4.25936H4.25843H4.25751H4.25659H4.25566H4.25474H4.25381H4.25289H4.25196H4.25104H4.25011H4.24919H4.24826H4.24734H4.24641H4.24549H4.24456H4.24364H4.24271H4.24179H4.24086H4.23994H4.23901H4.23809H4.23716H4.23624H4.23532H4.23439H4.23347H4.23254H4.23162H4.23069H4.22977H4.22884H4.22792H4.22699H4.22607H4.22514H4.22422H4.22329H4.22237H4.22144H4.22052H4.21959H4.21867H4.21774H4.21682H4.2159H4.21497H4.21405H4.21312H4.2122H4.21127H4.21035H4.20942H4.2085H4.20757H4.20665H4.20572H4.2048H4.20387H4.20295H4.20202H4.2011H4.20017H4.19925H4.19832H4.1974H4.19648H4.19555H4.19463H4.1937H4.19278H4.19185H4.19093H4.19H4.18908H4.18815H4.18723H4.1863H4.18538H4.18445H4.18353H4.1826H4.18168H4.18075H4.17983H4.1789H4.17798H4.17705H4.17613H4.17521H4.17428H4.17336H4.17243H4.17151H4.17058H4.16966H4.16873H4.16781H4.16688H4.16596H4.16503H4.16411H4.16318H4.16226H4.16133H4.16041H4.15948H4.15856H4.15763H4.15671H4.15578H4.15486H4.15394H4.15301H4.15209H4.15116H4.15024H4.14931H4.14839H4.14746H4.14654H4.14561H4.14469H4.14376H4.14284H4.14191H4.14099H4.14006H4.13914H4.13821H4.13729H4.13636H4.13544H4.13451H4.13359H4.13267H4.13174H4.13082H4.12989H4.12897H4.12804H4.12712H4.12619H4.12527H4.12434H4.12342H4.12249H4.12157H4.12064H4.11972H4.11879H4.11787H4.11694H4.11602H4.11509H4.11417H4.11325H4.11232H4.1114H4.11047H4.10955H4.10862H4.1077H4.10677H4.10585H4.10492H4.104H4.10307H4.10215H4.10122H4.1003H4.09937H4.09845H4.09752H4.0966H4.09567H4.09475H4.09382H4.0929H4.09198H4.09105H4.09013H4.0892H4.08828H4.08735H4.08643H4.0855H4.08458H4.08365H4.08273H4.0818H4.08088H4.07995H4.07903H4.0781H4.07718H4.07625H4.07533H4.0744H4.07348H4.07256H4.07163H4.07071H4.06978H4.06886H4.06793H4.06701H4.06608H4.06516H4.06423H4.06331H4.06238H4.06146H4.06053H4.05961H4.05868H4.03099L4.00347 15.7594C2.35059 15.9431 1.06231 17.2313 0.878655 18.8842L0.878556 18.8842L0.87765 18.8942C0.785387 19.9091 1.15325 20.9102 1.78845 21.6361C2.4373 22.3777 3.44331 22.8327 4.45325 22.8327H4.53217C4.61499 22.8327 4.7004 22.855 4.75827 22.8897C4.80644 22.9186 4.82366 22.9464 4.83102 22.9832L4.83412 22.9987L4.83819 23.014C6.47574 29.1548 12.1217 33.4073 18.4211 33.4073C24.7093 33.4073 30.3464 29.1699 31.9952 23.0467C32.0436 22.9363 32.1008 22.8758 32.1435 22.8474C32.1807 22.8226 32.2232 22.8095 32.2909 22.823L32.3394 22.8327H32.3889C33.3932 22.8327 34.3935 22.3828 35.0427 21.6486C35.7901 20.8934 36.0536 19.8741 35.9645 18.8942L35.9646 18.8942L35.9635 18.8842C35.7799 17.2313 34.4916 15.9431 32.8387 15.7594L32.8112 15.7563H32.7835H32.7826H32.7816H32.7807H32.7798H32.7789H32.7779H32.777H32.7761H32.7752H32.7742H32.7733H32.7724H32.7715H32.7705H32.7696H32.7687H32.7678H32.7668H32.7659H32.765H32.7641H32.7631H32.7622H32.7613H32.7604H32.7594H32.7585H32.7576H32.7567H32.7557H32.7548H32.7539H32.753H32.752H32.7511H32.7502H32.7493H32.7483H32.7474H32.7465H32.7456H32.7446H32.7437H32.7428H32.7419H32.7409H32.74H32.7391H32.7382H32.7373H32.7363H32.7354H32.7345H32.7336H32.7326H32.7317H32.7308H32.7299H32.7289H32.728H32.7271H32.7262H32.7252H32.7243H32.7234H32.7225H32.7215H32.7206H32.7197H32.7188H32.7178H32.7169H32.716H32.7151H32.7141H32.7132H32.7123H32.7114H32.7104H32.7095H32.7086H32.7077H32.7067H32.7058H32.7049H32.704H32.703H32.7021H32.7012H32.7003H32.6993H32.6984H32.6975H32.6966H32.6956H32.6947H32.6938H32.6929H32.6919H32.691H32.6901H32.6892H32.6882H32.6873H32.6864H32.6855H32.6845H32.6836H32.6827H32.6818H32.6808H32.6799H32.679H32.6781H32.6771H32.6762H32.6753H32.6744H32.6734H32.6725H32.6716H32.6707H32.6697H32.6688H32.6679H32.667H32.666H32.6651H32.6642H32.6633H32.6623H32.6614H32.6605H32.6596H32.6586H32.6577H32.6568H32.6559H32.6549H32.654H32.6531H32.6522H32.6512H32.6503H32.6494H32.6485H32.6475H32.6466H32.6457H32.6448H32.6438H32.6429H32.642H32.6411H32.6401H32.6392H32.6383H32.6374H32.6364H32.6355H32.6346H32.6337H32.6328H32.6318H32.6309H32.63H32.6291H32.6281H32.6272H32.6263H32.6254H32.6244H32.6235H32.6226H32.6217H32.6207H32.6198H32.6189H32.618H32.617H32.6161H32.6152H32.6143H32.6133H32.6124H32.6115H32.6106H32.6096H32.6087H32.6078H32.6069H32.6059H32.605H32.6041H32.6032H32.6022H32.6013H32.6004H32.5995H32.5985H32.5976H32.5967H32.5958H32.5948H32.5939H32.593H32.5921H32.5911H32.5902H32.5893H32.5884H32.5874H32.5865H32.5856H32.5847H32.5837H32.5828H32.5819H32.581H32.58H32.5791H32.5782H32.5773H32.5763H32.5754H32.5745H32.5736H32.5726H32.5717H32.5708H32.5699H32.5689H32.568H32.5671H32.5662H32.5652H32.5643H32.5634H32.5625H32.5615H32.5606H32.5597H32.5588H32.5578H32.5569H32.556H32.5551H32.5541H32.5532H32.5523H32.5514H32.5504H32.5495H32.5486H32.5477H32.5467H32.5458H32.5449H32.544H32.543H32.5421H32.5412H32.5403H32.5393H32.5384H32.5375H32.5366H32.5356H32.5347H32.5338H32.5329H32.5319H32.531H32.5301H32.5292H32.5282H32.5273H32.5264H32.5255H32.5246H32.5236H32.5227H32.5218H32.5209H32.5199H32.519H32.5181H32.5172H32.5162H32.5153H32.5144H32.5135H32.5125H32.5116H32.5107H32.5098H32.5088H32.5079H32.507H32.5061H32.5051H32.5042H32.5033H32.5024H32.5014H32.5005H32.4996H32.4987H32.4977H32.4968H32.4959H32.495H32.494H32.4931H32.4922H32.4913H32.4903H32.4894H32.4885H32.4876H32.4866H32.4857H32.4848H32.4839H32.4829H32.482H32.4811H32.4802H32.4792H32.4783H32.4774H32.4765H32.4755H32.4746H32.4737H32.4728H32.4718H32.4709H32.47H32.4691H32.4681H32.4672H32.4663H32.4654H32.4644H32.4635H32.4626H32.4617H32.4607H32.4598H32.4589H32.458H32.457H32.4561H32.4552H32.4543H32.4533H32.4524H32.4515H32.4506H32.4496H32.4487H32.4478H32.4469H32.4459H32.445H32.4441H32.4432H32.4422H32.4413H32.4404H32.4395H32.4385H32.4376H32.4367H32.4358H32.4348H32.4339H32.433H32.4321H32.4311H32.4302H32.4293H32.4284H32.4274H32.4265H32.4256H32.4247H32.4237H32.4228H32.4219H32.421H32.4201H32.4191H32.4182H32.4173H32.4164H32.4154H32.4145H32.4136H32.4127H32.4117H32.4108H32.4099H32.409H32.408H32.4071H32.4062H32.4053H32.4043H32.4034H32.4025H32.4016H32.4006H32.3997H32.3988H32.3979H32.3969H32.396H32.3951H32.3942H32.3932H32.3923H32.3914H32.3905H32.3895H32.3886H32.3877H32.3868H32.3858H32.3849H32.384H32.3831H32.3821H32.3812H32.3803H32.3794H32.3784H32.3775H32.3766H32.3757H32.3747H32.3738H32.3729H32.372H32.371H32.3701H32.3692H32.3683H32.3673H32.3664H32.3655H32.3646H32.3636H32.3627H32.3618H32.3609H32.3599H32.359H32.3581H32.3572H32.3562H32.3553H32.3544H32.3535H32.3525H32.3516H32.3507H32.3498H32.3488H32.3479H32.347H32.3461H32.3451H32.3442H32.3433H32.3424H32.3414H32.3405H32.3396H32.3387H32.3377H32.3368H32.3359H32.335H32.334H32.3331H32.3322H32.3313H32.3303H32.3294H32.3285H32.3276H32.3266H32.3257H32.3248H32.3239H32.3229H32.322H32.3211H32.3202H32.3192H32.3183H32.3174H32.3165H32.3156H32.3146H32.3137H32.3128H32.3119H32.3109H32.31C31.4441 15.7563 30.7029 16.1421 30.0943 16.6627C30.0848 16.6672 30.07 16.6732 30.0508 16.6797C30.0267 16.6877 30.0016 16.6942 29.9791 16.6985C29.9681 16.7006 29.959 16.7018 29.9521 16.7026C29.9491 16.7029 29.9469 16.7031 29.9453 16.7032C29.9431 16.7033 29.9422 16.7033 29.9426 16.7033C29.8825 16.7033 29.8549 16.6939 29.8399 16.6872C29.8227 16.6796 29.7931 16.6624 29.7437 16.613C29.7433 16.6126 29.7179 16.5825 29.7218 16.5095C29.7251 16.4459 29.7513 16.3711 29.8118 16.3055C30.3249 15.8688 30.8776 15.5349 31.4715 15.4029L32.0362 15.2774L31.8303 14.7368C31.1856 13.0445 30.2947 11.4176 29.0711 10.0254C29.0282 9.96236 29.0082 9.88614 29.0116 9.82152C29.0149 9.75751 29.0379 9.72761 29.0589 9.71189C29.1241 9.66294 29.2062 9.63988 29.2751 9.6435C29.3391 9.64687 29.369 9.66984 29.3847 9.6908L29.3982 9.70868L29.4131 9.72528C30.7811 11.2453 31.774 13.0752 32.3862 14.9883L32.4974 15.3359H32.8624H32.9128C34.7982 15.5576 36.2591 17.0264 36.469 18.9157L36.469 18.9157L36.4698 18.9225C36.6105 20.048 36.2559 21.2411 35.4926 22.0738L35.4912 22.0753C34.7828 22.8545 33.7953 23.3431 32.8268 23.4123L32.4839 23.4368L32.384 23.7657C30.5545 29.7877 24.9103 33.9855 18.5 33.9855C12.0908 33.9855 6.44294 29.7881 4.53538 23.7602ZM20.435 6.98548L20.1185 7.30192L20.3981 7.65138C20.7552 8.09773 21.2202 8.4798 21.8001 8.6767C22.2614 8.85879 22.7946 8.94383 23.3138 8.94383C25.4839 8.94383 27.286 7.14169 27.286 4.9716C27.286 2.80152 25.4839 0.999373 23.3138 0.999373C22.1495 0.999373 21.1439 1.45176 20.4148 2.27199L20.1016 2.62436L20.435 2.95773C20.9835 3.50625 21.3144 4.25091 21.3144 4.9716C21.3144 5.765 20.9885 6.43199 20.435 6.98548ZM19.3862 7.04989H19.4861L19.5917 6.9971C20.4158 6.58502 20.815 5.76458 20.815 4.9716C20.815 4.14584 20.3108 3.35616 19.6161 2.9592C18.9215 2.56229 18.0344 2.55417 17.4083 2.86719C16.5842 3.27927 16.185 4.09972 16.185 4.89269C16.185 5.7126 16.6821 6.49693 17.3691 6.89659C17.9827 7.29769 18.7448 7.29418 19.3862 7.04989ZM16.4861 2.95773L16.8195 2.62436L16.5063 2.27199C15.7732 1.44726 14.6864 0.999373 13.6073 0.999373C11.42 0.999373 9.72372 2.73646 9.63545 5.0313L9.63508 5.0409V5.05052C9.63508 5.97982 10.0081 6.79299 10.5242 7.4812L10.5455 7.50963L10.5707 7.53475C10.6095 7.57358 10.6333 7.60268 10.6672 7.64403C10.687 7.6682 10.7102 7.69655 10.7419 7.73347C10.8037 7.80558 10.896 7.9063 11.0303 7.98726C11.7419 8.59408 12.6314 8.94383 13.6073 8.94383C14.6864 8.94383 15.7732 8.49595 16.5063 7.67121L16.8195 7.31884L16.4861 6.98548C15.9376 6.43695 15.6067 5.69229 15.6067 4.9716C15.6067 4.1782 15.9326 3.51122 16.4861 2.95773Z" fill="#575756" stroke="#DC6A8D"/>
<path d="M22.4396 25.5839L22.4395 25.5838L22.4342 25.5911C21.4946 26.8921 20.0621 27.6724 18.4993 27.6724C16.9386 27.6724 15.4521 26.897 14.5971 25.6393C14.5573 25.5331 14.5868 25.3759 14.6627 25.2889C14.7806 25.257 14.9453 25.2994 15.0177 25.3897C15.8139 26.5331 17.0636 27.2519 18.4993 27.2519C19.9352 27.2519 21.1852 26.5328 21.9812 25.3891C22.0519 25.299 22.1758 25.2401 22.3759 25.3071C22.4966 25.3976 22.4865 25.5213 22.4396 25.5839Z" fill="#575756" stroke="#DC6A8D"/>
</svg>
