<svg width="32" height="30" viewBox="0 0 32 30" fill="none" xmlns="http://www.w3.org/2000/svg">
<path d="M9.43512 17.1202V18.2029C9.43512 18.5413 9.70579 18.8796 10.1118 18.8796C10.4501 18.8796 10.7885 18.6089 10.7885 18.2029V17.1202C10.7885 16.7819 10.5178 16.4435 10.1118 16.4435C9.70579 16.4435 9.43512 16.7142 9.43512 17.1202Z" fill="#575650"/>
<path d="M21.0745 17.1202V18.2029C21.0745 18.5413 21.3451 18.8796 21.7511 18.8796C22.0895 18.8796 22.4278 18.6089 22.4278 18.2029V17.1202C22.4278 16.7819 22.1572 16.4435 21.7511 16.4435C21.3451 16.4435 21.0745 16.7142 21.0745 17.1202Z" fill="#575650"/>
<path d="M3.4803 20.5036C5.17201 25.8494 10.1795 29.5712 15.8636 29.5712C21.5478 29.5712 26.5553 25.8494 28.1793 20.5036C29.1267 20.4359 30.074 19.9622 30.7507 19.2179C31.4951 18.4059 31.8334 17.2555 31.6981 16.1728C31.4951 14.3457 30.074 12.9247 28.247 12.7217H28.1793C27.638 11.03 26.7583 9.40593 25.5403 8.05256C25.3372 7.78189 24.9312 7.78189 24.6606 7.98489C24.3899 8.1879 24.3899 8.59391 24.5929 8.86458C25.6079 10.0149 26.3523 11.3683 26.8936 12.7894C26.2846 12.9247 25.7433 13.263 25.2696 13.6691C24.9989 13.9397 24.9989 14.3457 25.2019 14.5487C25.3372 14.6841 25.4726 14.7517 25.6756 14.7517C25.8109 14.7517 26.0139 14.6841 26.0816 14.6164C26.5553 14.2104 27.0966 13.9397 27.7056 13.9397C27.841 13.9397 27.9763 13.9397 28.1117 13.9397C29.3297 14.0751 30.2771 15.0224 30.4124 16.2405C30.4801 16.9848 30.2771 17.7292 29.7357 18.2705C29.262 18.8119 28.5177 19.1502 27.7733 19.1502C27.435 19.0825 27.1643 19.2855 27.029 19.6239C25.6756 24.699 21.0065 28.2178 15.796 28.2178C10.5855 28.2178 5.91637 24.699 4.563 19.6239C4.49533 19.2855 4.15698 19.1502 3.88631 19.1502H3.81864C3.07429 19.1502 2.32993 18.8119 1.85625 18.2705C1.38257 17.7292 1.1119 16.9848 1.17957 16.2405C1.3149 15.0224 2.26226 14.0751 3.4803 13.9397C3.61564 13.9397 3.75097 13.9397 3.88631 13.9397C4.49533 13.9397 5.10434 14.2104 5.51036 14.6164C5.71336 14.7517 5.8487 14.8194 6.0517 14.8194C6.25471 14.8194 6.39005 14.7517 6.52538 14.6164C6.79606 14.3457 6.72839 13.9397 6.45772 13.7367C5.98404 13.3307 5.44269 12.9924 4.83367 12.857C5.57802 10.6916 6.99906 8.72925 8.82612 7.37587L8.89378 7.44354C9.70581 8.12023 10.6532 8.52624 11.7359 8.52624C13.0216 8.52624 14.2396 7.91722 15.0516 6.96986C15.3223 7.03753 15.593 7.1052 15.8636 7.1052C16.1343 7.1052 16.405 7.03753 16.6757 6.96986C17.0817 7.44354 17.5554 7.84955 18.1644 8.12023C18.6381 8.79691 18.9087 9.6766 18.9087 10.8946C18.9087 12.5187 17.5554 13.8721 15.9313 13.8721C14.8486 13.8721 13.6983 13.1954 13.6983 11.842C13.6983 10.8946 14.4426 10.1503 15.39 10.1503C16.0667 10.1503 16.405 10.4886 16.405 11.1653C16.405 11.5037 16.6757 11.842 17.0817 11.842C17.42 11.842 17.7584 11.5713 17.7584 11.1653C17.7584 9.81194 16.811 8.86458 15.4576 8.86458C13.8336 8.86458 12.4802 10.218 12.4802 11.842C12.4802 13.7367 13.9689 15.1578 15.999 15.1578C18.3674 15.1578 20.2621 13.263 20.2621 10.8946C20.2621 9.94728 20.1268 9.20292 19.9238 8.52624C19.9914 8.52624 20.0591 8.52624 20.1268 8.52624C22.4952 8.52624 24.3899 6.63152 24.3899 4.26312C24.3899 1.89472 22.4952 0 20.1268 0C18.8411 0 17.623 0.609019 16.811 1.55638C16.2697 1.42104 15.6606 1.42104 15.1193 1.55638C14.3073 0.541351 13.0892 0 11.8035 0C9.43513 0 7.54041 1.89472 7.54041 4.26312C7.54041 5.00748 7.74342 5.68416 8.08176 6.36085C5.91637 7.98489 4.35999 10.218 3.54797 12.7894H3.4803C1.65325 12.9924 0.232207 14.4134 0.0292012 16.2405C-0.106136 17.3232 0.232207 18.4735 0.976561 19.2855C1.58558 19.9622 2.53294 20.4359 3.4803 20.5036ZM19.9914 1.2857C21.6155 1.2857 22.9688 2.63908 22.9688 4.26312C22.9688 5.88717 21.6155 7.24054 19.9914 7.24054C19.5854 7.24054 19.1794 7.17287 18.8411 7.03753C18.4351 6.90219 18.0967 6.63152 17.826 6.29318C18.3674 5.75183 18.7057 5.07514 18.7057 4.26312C18.7057 3.51877 18.3674 2.77441 17.826 2.23306C18.3674 1.62405 19.1117 1.2857 19.9914 1.2857ZM16.608 2.90975C17.0817 3.18042 17.42 3.72177 17.42 4.26312C17.42 4.80447 17.1494 5.34582 16.608 5.61649H16.5403C16.0667 5.8195 15.5253 5.8195 15.1193 5.54883C14.6456 5.27815 14.3073 4.7368 14.3073 4.19545C14.3073 3.65411 14.5779 3.11276 15.1193 2.84208C15.5253 2.63908 16.1343 2.63908 16.608 2.90975ZM11.6682 1.2857C12.4802 1.2857 13.2922 1.62405 13.8336 2.23306C13.2922 2.77441 12.9539 3.4511 12.9539 4.26312C12.9539 5.00748 13.2922 5.75183 13.8336 6.29318C13.2922 6.9022 12.4802 7.24054 11.6682 7.24054C10.9238 7.24054 10.2472 6.96986 9.70581 6.49618C9.57047 6.42851 9.5028 6.29318 9.36746 6.15784C8.96145 5.61649 8.69078 5.00748 8.69078 4.33079C8.75845 2.57141 10.0442 1.2857 11.6682 1.2857Z" fill="#575650"/>
<path d="M18.5027 21.5187C17.8937 22.3984 16.9463 22.9398 15.8636 22.9398C14.7809 22.9398 13.8335 22.3984 13.2245 21.5187C13.0215 21.248 12.6155 21.1804 12.3448 21.3157C12.0742 21.5187 12.0065 21.9247 12.1418 22.1954C12.9538 23.4134 14.3749 24.1578 15.8636 24.1578C17.3523 24.1578 18.7057 23.4134 19.5854 22.1954C19.7884 21.9247 19.7207 21.5187 19.3824 21.3157C19.044 21.1804 18.7057 21.248 18.5027 21.5187Z" fill="#575650"/>
</svg>
