<svg width="43" height="34" viewBox="0 0 43 34" fill="none" xmlns="http://www.w3.org/2000/svg">
<g clip-path="url(#clip0)">
<path d="M1.3037 10.4058H3.32186C3.66804 10.4058 3.95529 10.1333 3.95529 9.78907C3.95529 9.45201 3.6754 9.17233 3.32186 9.17233H1.71617L6.17232 1.57773C6.29753 1.36258 6.5406 1.22632 6.79102 1.22632H36.1942C36.452 1.22632 36.6877 1.36258 36.813 1.57773L41.2691 9.1795H39.6634C39.3172 9.1795 39.03 9.45201 39.03 9.79625C39.03 10.1333 39.3099 10.413 39.6634 10.413H41.6816C41.3722 12.586 39.4498 14.2641 37.137 14.2641C34.8243 14.2641 32.9018 12.586 32.5925 10.413H36.9676C37.3138 10.413 37.6011 10.1405 37.6011 9.79625C37.6011 9.45919 37.3212 9.1795 36.9676 9.1795H6.01764C5.67146 9.1795 5.38421 9.45201 5.38421 9.79625C5.38421 10.1333 5.6641 10.413 6.01764 10.413H10.3928C10.0834 12.586 8.16838 14.2641 5.84824 14.2641C3.52809 14.2569 1.61305 12.5788 1.3037 10.4058ZM31.2593 10.4058C30.95 12.5788 29.0349 14.2569 26.7148 14.2569C24.402 14.2569 22.4796 12.5788 22.1703 10.4058H31.2593ZM20.8224 10.4058C20.513 12.5788 18.598 14.2569 16.2778 14.2569C13.9577 14.2569 12.0427 12.5788 11.7333 10.4058H20.8224ZM35.6787 32.7737H28.8582V30.7226H35.6787V32.7737ZM35.6787 29.4963H28.8582V18.2658H35.6787V29.4963ZM2.69579 31.0382V32.7737H1.97396C1.62778 32.7737 1.34053 33.0462 1.34053 33.3904C1.34053 33.7347 1.62042 34.0072 1.97396 34.0072H41.0187C41.3648 34.0072 41.6521 33.7347 41.6521 33.3904C41.6521 33.0534 41.3722 32.7737 41.0187 32.7737H40.3042V14.5796C41.9246 13.5684 43 11.7971 43 9.78907C43 9.6815 42.9705 9.57393 42.919 9.48787L37.9178 0.96815C37.5642 0.372917 36.9087 0 36.2016 0H6.79839C6.0913 0 5.4284 0.372917 5.08222 0.96815L0.0810209 9.48787C0.0294621 9.5811 0 9.6815 0 9.78907C0 11.7971 1.07537 13.5684 2.69579 14.5796V29.7903H3.95529V15.1749C4.5519 15.3757 5.18534 15.4832 5.84824 15.4832C8.12419 15.4832 10.0982 14.2139 11.063 12.3565C12.0279 14.2067 14.0019 15.4832 16.2778 15.4832C18.5538 15.4832 20.5278 14.2139 21.4926 12.3565C22.4575 14.2067 24.4315 15.4832 26.7074 15.4832C28.9834 15.4832 30.9573 14.2139 31.9222 12.3565C32.8871 14.2067 34.8611 15.4832 37.137 15.4832C37.7999 15.4832 38.4334 15.3757 39.03 15.1749V32.7737H36.9234V17.6562C36.9234 17.3191 36.6435 17.0394 36.29 17.0394H28.2321C27.8859 17.0394 27.5987 17.312 27.5987 17.6562V32.7737H3.95529V31.0382H2.69579Z" fill="#575756"/>
<path d="M23.4813 17.0396H8.19785C7.90322 17.0396 7.66753 17.269 7.66753 17.5559V28.0334C7.66753 28.3203 7.90322 28.5498 8.19785 28.5498H23.4813C23.776 28.5498 24.0117 28.3203 24.0117 28.0334V17.5559C24.0117 17.2762 23.776 17.0396 23.4813 17.0396ZM22.951 27.5171H8.72816V18.0722H22.9584V27.5171H22.951Z" fill="#575756"/>
</g>
<defs>
<clipPath id="clip0">
<rect width="43" height="34" fill="white"/>
</clipPath>
</defs>
</svg>
