<svg width="38" height="36" viewBox="0 0 38 36" fill="none" xmlns="http://www.w3.org/2000/svg">
<path d="M31.7327 6.44282L35.381 13.0121H34.2066C33.8597 13.0121 33.5763 13.2995 33.5763 13.6571C33.5763 14.0069 33.852 14.3022 34.2066 14.3022H35.7801C35.4807 16.1202 33.9367 17.5055 32.0915 17.5055C30.2462 17.5055 28.7023 16.1202 28.4028 14.3022H31.9496C32.2965 14.3022 32.58 14.0147 32.58 13.6571C32.58 13.3074 32.3042 13.0121 31.9496 13.0121H6.03803C5.69116 13.0121 5.40771 13.2995 5.40771 13.6571C5.40771 14.0069 5.6835 14.3022 6.03803 14.3022H9.58485C9.28565 16.1202 7.7476 17.5053 5.89652 17.5055C4.04501 17.4994 2.50676 16.1139 2.20754 14.2958H3.78109C4.12796 14.2958 4.41141 14.0084 4.41141 13.6508C4.41141 13.3011 4.13562 13.0058 3.78109 13.0058H2.60679L6.25493 6.44286L6.25509 6.44255C6.34271 6.28365 6.51305 6.18373 6.68551 6.18373H31.3022C31.4802 6.18373 31.6447 6.28313 31.7326 6.44255L31.7327 6.44282ZM19.6772 14.2958H27.0545C26.7553 16.114 25.2171 17.4991 23.3659 17.4991C21.5206 17.4991 19.9767 16.1139 19.6772 14.2958ZM10.9393 14.2958H18.3166C18.0174 16.114 16.4792 17.4991 14.628 17.4991C12.7767 17.4991 11.2385 16.114 10.9393 14.2958ZM3.25694 32.3291H3.15694V32.4291V33.8628H2.65262C2.30575 33.8628 2.0223 34.1502 2.0223 34.5078C2.0223 34.8647 2.29884 35.1528 2.65262 35.1528H35.3412C35.6881 35.1528 35.9715 34.8654 35.9715 34.5078C35.9715 34.1581 35.6957 33.8628 35.3412 33.8628H34.8431V17.9378C36.2021 17.0213 37.1 15.44 37.1 13.6508C37.1 13.5397 37.0714 13.4276 37.0194 13.3357C37.0193 13.3355 37.0192 13.3354 37.0191 13.3353L32.8325 5.80697L32.8323 5.80654C32.5192 5.25025 31.9378 4.9 31.3083 4.9H6.69167C6.06286 4.9 5.47464 5.2497 5.16743 5.80707C5.16739 5.80715 5.16734 5.80724 5.1673 5.80732L0.980437 13.336L0.980409 13.336L0.979252 13.3382C0.929479 13.4332 0.9 13.5378 0.9 13.6508C0.9 15.44 1.79792 17.0214 3.15694 17.9378V31.3263V31.4263H3.25694H4.31141H4.41141V31.3263V18.5498C4.88217 18.7019 5.37878 18.7829 5.8962 18.7829C7.77423 18.7829 9.41005 17.7158 10.2622 16.1375C11.1144 17.71 12.75 18.7829 14.628 18.7829C16.506 18.7829 18.1418 17.7158 18.994 16.1375C19.8462 17.71 21.4817 18.7829 23.3597 18.7829C25.2377 18.7829 26.8736 17.7158 27.7258 16.1375C28.5779 17.71 30.2135 18.7829 32.0915 18.7829C32.6089 18.7829 33.1055 18.7019 33.5763 18.5498V33.8628H32.0126V20.6031C32.0126 20.2534 31.7368 19.9581 31.3823 19.9581H24.6362C24.2893 19.9581 24.0059 20.2455 24.0059 20.6031V33.8628H4.41141V32.4291V32.3291H4.31141H3.25694ZM30.7705 33.8628H25.2603V32.2502H30.7705V33.8628ZM30.7705 30.9665H25.2603V21.2418H30.7705V30.9665Z" fill="#575650" stroke="#575650" stroke-width="0.2"/>
<path d="M20.6604 19.9581H7.86489C7.56044 19.9581 7.3209 20.2083 7.3209 20.5144V29.7736C7.3209 30.0798 7.56044 30.3299 7.86489 30.3299H20.6604C20.9648 30.3299 21.2044 30.0798 21.2044 29.7736V20.5144C21.2044 20.2155 20.9657 19.9581 20.6604 19.9581ZM20.1225 29.2173H8.40887V21.0707H20.1225V29.2173Z" fill="#575650" stroke="#575650" stroke-width="0.2"/>
</svg>
