<svg width="234" height="60" viewBox="0 0 234 60" fill="none" xmlns="http://www.w3.org/2000/svg">
<path opacity="0.5" d="M56.0002 29.9998H144.5H233" stroke="#DC6A8D" stroke-width="2" stroke-linecap="round" stroke-linejoin="round" stroke-dasharray="5 5"/>
<circle cx="117" cy="30" r="28" fill="white" stroke="#DC6A8D" stroke-width="4"/>
<path d="M123.747 40H109.772V38.0518L117.155 29.8486C118.249 28.6084 119.001 27.6025 119.411 26.8311C119.831 26.0498 120.041 25.2441 120.041 24.4141C120.041 23.3008 119.704 22.3877 119.03 21.6748C118.356 20.9619 117.458 20.6055 116.335 20.6055C114.987 20.6055 113.938 20.9912 113.186 21.7627C112.443 22.5244 112.072 23.5889 112.072 24.9561H109.362C109.362 22.9932 109.992 21.4062 111.252 20.1953C112.521 18.9844 114.216 18.3789 116.335 18.3789C118.317 18.3789 119.885 18.9014 121.037 19.9463C122.189 20.9814 122.766 22.3633 122.766 24.0918C122.766 26.1914 121.428 28.6914 118.752 31.5918L113.039 37.7881H123.747V40Z" fill="#DC6A8D"/>
<circle cx="208" cy="30" r="26" fill="white"/>
<circle cx="208" cy="30" r="25" stroke="#DC6A8D" stroke-opacity="0.5" stroke-width="2"/>
<path opacity="0.5" d="M205.713 28.0176H207.749C209.028 27.998 210.034 27.6611 210.767 27.0068C211.499 26.3525 211.865 25.4688 211.865 24.3555C211.865 21.8555 210.62 20.6055 208.13 20.6055C206.958 20.6055 206.021 20.9424 205.318 21.6162C204.624 22.2803 204.277 23.1641 204.277 24.2676H201.568C201.568 22.5781 202.183 21.1768 203.413 20.0635C204.653 18.9404 206.226 18.3789 208.13 18.3789C210.142 18.3789 211.719 18.9111 212.861 19.9756C214.004 21.04 214.575 22.5195 214.575 24.4141C214.575 25.3418 214.273 26.2402 213.667 27.1094C213.071 27.9785 212.256 28.6279 211.221 29.0576C212.393 29.4287 213.296 30.0439 213.931 30.9033C214.575 31.7627 214.898 32.8125 214.898 34.0527C214.898 35.9668 214.273 37.4854 213.023 38.6084C211.773 39.7314 210.147 40.293 208.145 40.293C206.143 40.293 204.512 39.751 203.252 38.667C202.002 37.583 201.377 36.1523 201.377 34.375H204.102C204.102 35.498 204.468 36.3965 205.2 37.0703C205.933 37.7441 206.914 38.0811 208.145 38.0811C209.453 38.0811 210.454 37.7393 211.148 37.0557C211.841 36.3721 212.188 35.3906 212.188 34.1113C212.188 32.8711 211.807 31.9189 211.045 31.2549C210.283 30.5908 209.185 30.249 207.749 30.2295H205.713V28.0176Z" fill="#DC6A8D"/>
<circle cx="26" cy="30" r="26" fill="white"/>
<circle cx="26" cy="30" r="25" stroke="#DC6A8D" stroke-opacity="0.5" stroke-width="2"/>
<path opacity="0.5" d="M27.6787 40H24.9541V21.9385L19.4902 23.9453V21.4844L27.2539 18.5693H27.6787V40Z" fill="#DC6A8D"/>
</svg>
