<svg width="1785" height="863" viewBox="0 0 1785 863" fill="none" xmlns="http://www.w3.org/2000/svg">
<path d="M195.626 592.662C191.069 585.003 181.218 582.737 173.681 587.221C168.657 590.21 165.653 595.641 165.813 601.151C160.838 598.506 154.841 598.431 149.816 601.42C142.071 606.029 139.572 615.644 144.129 623.303C146.469 627.236 150.237 629.758 154.437 630.623L188.844 639.86L197.142 605.213C198.176 601.235 197.967 596.595 195.626 592.662Z" fill="#C9DBC3" fill-opacity="0.8"/>
<path d="M1510.63 41.457C1514.24 31.857 1509.2 21.3653 1499.76 17.8044C1493.46 15.4305 1486.41 16.6274 1481.57 20.7285C1480.37 14.3523 1476.13 8.90219 1469.83 6.52827C1460.12 2.86848 1449.68 7.52433 1446.06 17.1243C1444.2 22.0541 1444.64 27.2562 1446.88 31.6556L1463.28 69.2475L1500.42 51.8339C1504.74 49.9073 1508.77 46.3867 1510.63 41.457Z" fill="#C9DBC3" fill-opacity="0.8"/>
<path d="M73.514 32.4412C73.1679 25.4666 67.1776 20.2838 60.3146 20.6243C55.7394 20.8513 51.6669 23.51 49.757 27.3841C47.2823 23.7275 43.1573 21.4756 38.582 21.7026C31.5285 22.0526 26.2712 27.7935 26.6173 34.7681C26.795 38.3496 28.4791 41.4785 31.0696 43.6176L51.506 62.6341L69.9595 41.688C72.1349 39.3125 73.6917 36.0228 73.514 32.4412Z" fill="#C9DBC3" fill-opacity="0.8"/>
<g opacity="0.6" clip-path="url(#clip0)">
<path d="M156.435 261.849C154.388 261.849 152.477 262.12 150.566 262.661C150.839 261.307 151.112 259.953 151.112 258.463C151.112 245.326 137.871 234.627 121.626 234.627C116.03 234.627 110.979 235.846 106.474 238.013C99.376 227.313 85.4524 220 69.3448 220C46.1388 220 27.3011 235.169 27.3011 253.994C27.3011 255.483 27.4376 256.838 27.7106 258.192C26.4821 258.057 25.117 257.921 23.752 257.921C10.6474 257.921 0 266.454 0 277.017C0 287.581 10.6474 296.113 23.6154 296.113C28.5296 296.113 33.1708 294.894 36.993 292.728C40.2691 299.77 48.596 304.781 58.5608 304.781C65.2496 304.781 71.3924 302.479 75.4875 298.687C83.2683 303.156 93.6428 305.865 105.246 305.865C123.674 305.865 139.509 298.822 145.651 288.935C148.654 290.696 152.477 291.78 156.572 291.78C166.81 291.78 175.137 285.008 175.137 276.746C175.137 268.485 166.81 261.849 156.435 261.849Z" fill="white"/>
</g>
<path d="M1772.51 318.441C1772.17 311.467 1766.18 306.284 1759.31 306.624C1754.74 306.851 1750.67 309.51 1748.76 313.384C1746.28 309.728 1742.16 307.476 1737.58 307.703C1730.53 308.053 1725.27 313.793 1725.62 320.768C1725.79 324.35 1727.48 327.479 1730.07 329.618L1750.51 348.634L1768.96 327.688C1771.13 325.312 1772.69 322.023 1772.51 318.441Z" fill="#C9DBC3" fill-opacity="0.8"/>
<path d="M1765.44 580.849C1763.39 580.849 1761.48 581.12 1759.57 581.661C1759.84 580.307 1760.11 578.953 1760.11 577.463C1760.11 564.326 1746.87 553.627 1730.63 553.627C1725.03 553.627 1719.98 554.846 1715.47 557.013C1708.38 546.313 1694.45 539 1678.34 539C1655.14 539 1636.3 554.169 1636.3 572.994C1636.3 574.483 1636.44 575.838 1636.71 577.192C1635.48 577.057 1634.12 576.921 1632.75 576.921C1619.65 576.921 1609 585.454 1609 596.017C1609 606.581 1619.65 615.113 1632.62 615.113C1637.53 615.113 1642.17 613.894 1645.99 611.728C1649.27 618.77 1657.6 623.781 1667.56 623.781C1674.25 623.781 1680.39 621.479 1684.49 617.687C1692.27 622.156 1702.64 624.865 1714.25 624.865C1732.67 624.865 1748.51 617.822 1754.65 607.935C1757.65 609.696 1761.48 610.78 1765.57 610.78C1775.81 610.78 1784.14 604.008 1784.14 595.746C1784.14 587.485 1775.81 580.849 1765.44 580.849Z" fill="white"/>
<g opacity="0.6" clip-path="url(#clip1)">
<path d="M926.846 831.683C925.395 831.683 924.041 831.876 922.686 832.26C922.88 831.299 923.073 830.339 923.073 829.282C923.073 819.964 913.691 812.375 902.181 812.375C898.215 812.375 894.637 813.239 891.445 814.776C886.415 807.187 876.549 802 865.136 802C848.693 802 835.345 812.759 835.345 826.112C835.345 827.169 835.441 828.129 835.635 829.09C834.764 828.994 833.797 828.898 832.83 828.898C823.544 828.898 816 834.95 816 842.443C816 849.935 823.544 855.987 832.733 855.987C836.215 855.987 839.504 855.123 842.212 853.586C844.534 858.581 850.434 862.135 857.495 862.135C862.234 862.135 866.587 860.502 869.488 857.813C875.002 860.983 882.353 862.904 890.574 862.904C903.632 862.904 914.852 857.909 919.204 850.896C921.332 852.145 924.041 852.913 926.942 852.913C934.197 852.913 940.097 848.11 940.097 842.25C940.097 836.391 934.197 831.683 926.846 831.683Z" fill="white"/>
</g>
<defs>
<clipPath id="clip0">
<rect width="175" height="86" fill="white" transform="translate(0 220)"/>
</clipPath>
<clipPath id="clip1">
<rect width="124" height="61" fill="white" transform="translate(816 802)"/>
</clipPath>
</defs>
</svg>
