<svg width="18" height="18" viewBox="0 0 18 18" fill="none" xmlns="http://www.w3.org/2000/svg">
<path d="M17.8249 7.23731H17.1V7.19996H9V10.7999H14.0864C13.3443 12.8956 11.3503 14.3999 9 14.3999C6.01785 14.3999 3.6 11.9821 3.6 8.99996C3.6 6.01782 6.01785 3.59998 9 3.59998C10.3765 3.59998 11.6289 4.11928 12.5824 4.96753L15.1281 2.42189C13.5207 0.923845 11.3706 0 9 0C4.02975 0 0 4.02973 0 8.99996C0 13.9702 4.02975 17.9999 9 17.9999C13.9703 17.9999 18 13.9702 18 8.99996C18 8.39651 17.9379 7.80746 17.8249 7.23731Z" fill="#FFC107"/>
<path d="M1.0376 4.81093L3.99455 6.97947C4.79465 4.99857 6.73235 3.59998 8.9999 3.59998C10.3764 3.59998 11.6288 4.11928 12.5823 4.96752L15.128 2.42189C13.5206 0.923845 11.3705 0 8.9999 0C5.543 0 2.5451 1.95164 1.0376 4.81093Z" fill="#FF3D00"/>
<path d="M8.99992 18.0001C11.3246 18.0001 13.4369 17.1105 15.034 15.6637L12.2485 13.3067C11.3145 14.0169 10.1733 14.4011 8.99992 14.4001C6.65902 14.4001 4.67137 12.9075 3.92257 10.8245L0.987671 13.0857C2.47717 16.0003 5.50207 18.0001 8.99992 18.0001Z" fill="#4CAF50"/>
<path d="M17.825 7.23742H17.1V7.20007H9V10.8001H14.0864C13.7314 11.7974 13.092 12.669 12.2472 13.307L12.2485 13.3061L15.034 15.6632C14.8369 15.8423 18 13.5 18 9.00006C18 8.39662 17.9379 7.80757 17.825 7.23742Z" fill="#1976D2"/>
</svg>