<svg width="48" height="48" viewBox="0 0 48 48" fill="none" xmlns="http://www.w3.org/2000/svg">
<path d="M23.6059 0C10.6008 0 0 10.6008 0 23.6059C0 26.7752 0.655717 29.9446 1.85787 32.786C2.07644 33.2232 2.40431 33.4417 2.84145 33.4417C2.95074 33.4417 3.16931 33.4417 3.2786 33.3324C3.82503 33.1139 4.04361 32.4581 3.82503 31.9117C2.73217 29.2888 2.07645 26.4474 2.07645 23.4966C2.07645 11.6937 11.6937 2.07645 23.4966 2.07645C35.2996 2.07645 44.9168 11.6937 44.9168 23.4966C44.9168 26.3381 44.3704 29.1795 43.2775 31.8024C43.059 32.3489 43.2775 33.0046 43.824 33.2232C44.3704 33.4417 45.0261 33.2232 45.2447 32.6767C46.4468 29.726 47.1026 26.666 47.1026 23.4966C47.2119 10.6008 36.611 0 23.6059 0Z" fill="#EC668D"/>
<path d="M32.6768 17.8137C32.6768 12.7865 28.6331 8.74292 23.606 8.74292C18.5788 8.74292 14.5352 12.7865 14.5352 17.8137C14.5352 22.8409 18.5788 26.8845 23.606 26.8845C28.6331 26.8845 32.6768 22.8409 32.6768 17.8137ZM16.6116 17.8137C16.6116 13.9887 19.7809 10.8194 23.606 10.8194C27.431 10.8194 30.6003 13.9887 30.6003 17.8137C30.6003 21.6388 27.431 24.8081 23.606 24.8081C19.7809 24.8081 16.6116 21.6388 16.6116 17.8137Z" fill="#EC668D"/>
<path d="M23.6059 31.256C14.863 31.256 9.28936 35.846 6.88506 38.6875C6.5572 39.1246 6.5572 39.7803 6.88506 40.1082C11.3658 44.589 17.2673 47.1026 23.6059 47.1026C29.9445 47.1026 35.9553 44.589 40.4361 40.1082C40.8732 39.6711 40.8732 39.0153 40.4361 38.6875C37.9225 35.846 32.3489 31.256 23.6059 31.256ZM23.6059 45.0261C18.1416 45.0261 13.1144 43.0589 9.07079 39.3432C11.9122 36.5017 16.6116 33.4417 23.6059 33.4417C30.491 33.4417 35.1903 36.5017 38.1411 39.3432C34.2067 42.9497 29.0703 45.0261 23.6059 45.0261Z" fill="#EC668D"/>
</svg>