<svg width="25" height="25" viewBox="0 0 21 20" fill="none" xmlns="http://www.w3.org/2000/svg">
    <path d="M19.3171 2.5542H17.2417V3.83135H19.1575V17.88H1.27732V3.83135H3.19305V2.5542H1.11767C0.968397 2.55669 0.821076 2.58857 0.684122 2.64801C0.547168 2.70745 0.423266 2.79329 0.319492 2.90062C0.215717 3.00795 0.134104 3.13468 0.079313 3.27356C0.0245221 3.41244 -0.00237293 3.56075 0.000164147 3.71002V18.0014C-0.00237293 18.1506 0.0245221 18.299 0.079313 18.4378C0.134104 18.5767 0.215717 18.7034 0.319492 18.8108C0.423266 18.9181 0.547168 19.0039 0.684122 19.0634C0.821076 19.1228 0.968397 19.1547 1.11767 19.1572H19.3171C19.4664 19.1547 19.6137 19.1228 19.7507 19.0634C19.8876 19.0039 20.0115 18.9181 20.1153 18.8108C20.2191 18.7034 20.3007 18.5767 20.3555 18.4378C20.4103 18.299 20.4371 18.1506 20.4346 18.0014V3.71002C20.4371 3.56075 20.4103 3.41244 20.3555 3.27356C20.3007 3.13468 20.2191 3.00795 20.1153 2.90062C20.0115 2.79329 19.8876 2.70745 19.7507 2.64801C19.6137 2.58857 19.4664 2.55669 19.3171 2.5542Z" fill="#556EA1" />
    <path d="M3.83154 7.66309H5.1087V8.94024H3.83154V7.66309Z" fill="#556EA1" />
    <path d="M7.66284 7.66309H8.93999V8.94024H7.66284V7.66309Z" fill="#556EA1" />
    <path d="M11.4944 7.66309H12.7715V8.94024H11.4944V7.66309Z" fill="#556EA1" />
    <path d="M15.3259 7.66309H16.6031V8.94024H15.3259V7.66309Z" fill="#556EA1" />
    <path d="M3.83154 10.856H5.1087V12.1331H3.83154V10.856Z" fill="#556EA1" />
    <path d="M7.66284 10.856H8.93999V12.1331H7.66284V10.856Z" fill="#556EA1" />
    <path d="M11.4944 10.856H12.7715V12.1331H11.4944V10.856Z" fill="#556EA1" />
    <path d="M15.3259 10.856H16.6031V12.1331H15.3259V10.856Z" fill="#556EA1" />
    <path d="M3.83154 14.0488H5.1087V15.326H3.83154V14.0488Z" fill="#556EA1" />
    <path d="M7.66284 14.0488H8.93999V15.326H7.66284V14.0488Z" fill="#556EA1" />
    <path d="M11.4944 14.0488H12.7715V15.326H11.4944V14.0488Z" fill="#556EA1" />
    <path d="M15.3259 14.0488H16.6031V15.326H15.3259V14.0488Z" fill="#556EA1" />
    <path d="M5.10855 5.10861C5.27791 5.10861 5.44033 5.04133 5.56009 4.92158C5.67985 4.80182 5.74712 4.6394 5.74712 4.47004V0.638576C5.74712 0.469215 5.67985 0.306791 5.56009 0.187035C5.44033 0.0672784 5.27791 0 5.10855 0C4.93919 0 4.77676 0.0672784 4.65701 0.187035C4.53725 0.306791 4.46997 0.469215 4.46997 0.638576V4.47004C4.46997 4.6394 4.53725 4.80182 4.65701 4.92158C4.77676 5.04133 4.93919 5.10861 5.10855 5.10861Z" fill="#556EA1" />
    <path d="M15.3258 5.10861C15.4952 5.10861 15.6576 5.04133 15.7774 4.92158C15.8971 4.80182 15.9644 4.6394 15.9644 4.47004V0.638576C15.9644 0.469215 15.8971 0.306791 15.7774 0.187035C15.6576 0.0672784 15.4952 0 15.3258 0C15.1565 0 14.994 0.0672784 14.8743 0.187035C14.7545 0.306791 14.6873 0.469215 14.6873 0.638576V4.47004C14.6873 4.6394 14.7545 4.80182 14.8743 4.92158C14.994 5.04133 15.1565 5.10861 15.3258 5.10861Z" fill="#556EA1" />
    <path d="M7.02441 2.5542H13.4102V3.83135H7.02441V2.5542Z" fill="#556EA1" />
</svg>