<svg width="106" height="66" viewBox="0 0 106 66" fill="none" xmlns="http://www.w3.org/2000/svg">
<path d="M11.2437 32.2245C12.4453 32.2245 13.647 32.3969 14.7628 32.8277C14.5911 31.7937 14.5053 30.7598 14.5053 29.6397C14.5053 19.4726 22.4874 11.2872 32.3579 11.2872C35.7053 11.2872 38.7951 12.235 41.5417 13.8721C45.8332 5.60052 54.2445 0 64.0292 0C78.1053 0 89.5207 11.718 89.5207 26.1932C89.5207 27.3133 89.4348 28.3473 89.2632 29.4674C90.0356 29.295 90.8081 29.2089 91.6664 29.2089C99.5628 29.2089 106 35.7572 106 43.8564C106 51.9556 99.5628 58.5039 91.6664 58.5039C88.6624 58.5039 85.9158 57.5561 83.5984 55.9191C81.6243 61.3473 76.5603 65.1384 70.5522 65.1384C66.4324 65.1384 62.8275 63.329 60.2526 60.4856C55.532 63.9321 49.2664 66 42.2283 66C31.0704 66 21.5433 60.5718 17.7668 52.9896C15.8785 54.3681 13.647 55.1436 11.1579 55.1436C5.06397 55.2298 0 50.0601 0 43.7702C0 37.3943 5.06397 32.2245 11.2437 32.2245Z" fill="#C9DBC3" fill-opacity="0.5"/>
</svg>
