<svg width="174" height="85" viewBox="0 0 174 85" fill="none" xmlns="http://www.w3.org/2000/svg">
<path d="M154.647 41.3622C152.623 41.3622 150.734 41.6299 148.845 42.1654C149.115 40.8268 149.385 39.4882 149.385 38.0157C149.385 25.0315 136.295 14.4567 120.236 14.4567C114.704 14.4567 109.711 15.6614 105.257 17.8032C98.2403 7.22835 84.4758 0 68.5523 0C45.6115 0 26.9891 14.9921 26.9891 33.5984C26.9891 35.0709 27.124 36.4095 27.3939 37.748C26.1794 37.6142 24.83 37.4803 23.4805 37.4803C10.5257 37.4803 0 45.9134 0 56.3543C0 66.7953 10.5257 75.2283 23.3456 75.2283C28.2036 75.2283 32.7917 74.0236 36.5702 71.8819C39.8089 78.8425 48.0406 83.7953 57.8916 83.7953C64.5039 83.7953 70.5764 81.5197 74.6248 77.7717C82.3167 82.189 92.5725 84.8661 104.043 84.8661C122.261 84.8661 137.914 77.9055 143.987 68.1339C146.956 69.874 150.734 70.9449 154.782 70.9449C164.903 70.9449 173.135 64.252 173.135 56.0866C173.135 47.9213 164.903 41.3622 154.647 41.3622Z" fill="#C9DBC3" fill-opacity="0.5"/>
</svg>
