<svg width="25" height="25" viewBox="0 0 24 18" fill="none" xmlns="http://www.w3.org/2000/svg">
    <path fillRule="evenodd" clipRule="evenodd" d="M20.8603 4.47005H17.8803V0.745009C17.8803 0.54742 17.8018 0.357925 17.6621 0.218208C17.5224 0.0784919 17.3329 0 17.1353 0H0.7451C0.547511 0 0.358015 0.0784919 0.218299 0.218208C0.0785826 0.357925 9.08673e-05 0.54742 9.08673e-05 0.745009V14.1552L9.08971e-05 14.1553H0V14.9003H0.745009V14.9002H0.7451H1.49011V1.49002H16.3903V8.94007H16.3902V10.4301H17.8802V10.0576H17.8803V5.96007H20.8603C21.2555 5.96007 21.6345 6.11706 21.9139 6.39649C22.1934 6.67592 22.3504 7.05491 22.3504 7.45009V8.1951H19.3703V9.68512H22.3504V13.4102H20.5623C20.301 12.803 19.8674 12.2858 19.3153 11.9224C18.7632 11.5589 18.1167 11.3653 17.4557 11.3653C16.7946 11.3653 16.1481 11.5589 15.596 11.9224C15.0439 12.2858 14.6103 12.803 14.349 13.4102H9.26055C9.00414 12.7986 8.57212 12.2768 8.01912 11.9108C7.46613 11.5448 6.81701 11.351 6.15386 11.3539C5.52379 11.3678 4.91123 11.5639 4.39018 11.9184C3.86913 12.273 3.46189 12.7708 3.21767 13.3518C2.97345 13.9328 2.90269 14.572 3.01395 15.1924C3.12521 15.8127 3.41372 16.3875 3.84463 16.8474C4.27554 17.3073 4.83041 17.6326 5.44219 17.7839C6.05397 17.9353 6.69649 17.9062 7.29212 17.7003C7.88775 17.4944 8.411 17.1203 8.79866 16.6234C9.18631 16.1265 9.42177 15.528 9.4766 14.9002H14.1553C14.2499 15.715 14.6407 16.4667 15.2533 17.0122C15.8659 17.5578 16.6577 17.8592 17.478 17.8592C18.2983 17.8592 19.0901 17.5578 19.7027 17.0122C20.3153 16.4667 20.7061 15.715 20.8007 14.9002H23.0954C23.293 14.9002 23.4825 14.8217 23.6222 14.682C23.7619 14.5423 23.8404 14.3528 23.8404 14.1552V7.45009C23.8404 6.65973 23.5264 5.90175 22.9675 5.34289C22.4087 4.78402 21.6507 4.47005 20.8603 4.47005ZM6.15386 16.3902C5.91185 16.4059 5.66918 16.3718 5.44087 16.29C5.21256 16.2082 5.00346 16.0804 4.8265 15.9146C4.64954 15.7487 4.50848 15.5483 4.41205 15.3258C4.31562 15.1033 4.26587 14.8633 4.26587 14.6208C4.26587 14.3783 4.31562 14.1383 4.41205 13.9158C4.50848 13.6933 4.64954 13.4929 4.8265 13.327C5.00346 13.1612 5.21256 13.0334 5.44087 12.9516C5.66918 12.8698 5.91185 12.8357 6.15386 12.8514C6.39588 12.8357 6.63855 12.8698 6.86686 12.9516C7.09517 13.0334 7.30427 13.1612 7.48123 13.327C7.65819 13.4929 7.79925 13.6933 7.89568 13.9158C7.99211 14.1383 8.04186 14.3783 8.04186 14.6208C8.04186 14.8633 7.99211 15.1033 7.89568 15.3258C7.79925 15.5483 7.65819 15.7487 7.48123 15.9146C7.30427 16.0804 7.09517 16.2082 6.86686 16.29C6.63855 16.3718 6.39588 16.4059 6.15386 16.3902ZM17.4557 16.3902C17.109 16.3727 16.7751 16.2538 16.4953 16.0483C16.2156 15.8428 16.0023 15.5598 15.882 15.2342C15.7616 14.9086 15.7394 14.5549 15.8182 14.2169C15.897 13.8788 16.0733 13.5713 16.3252 13.3325C16.5771 13.0937 16.8935 12.9341 17.2353 12.8735C17.5771 12.8128 17.9291 12.8538 18.2478 12.9914C18.5665 13.129 18.8378 13.357 19.028 13.6474C19.2183 13.9377 19.3192 14.2774 19.3182 14.6245C19.3045 15.1054 19.1008 15.5612 18.7517 15.8922C18.4026 16.2231 17.9366 16.4022 17.4557 16.3902Z" fill="#556EA1" />
</svg>