<svg width="25" height="25" viewBox="0 0 20 26" fill="none" xmlns="http://www.w3.org/2000/svg">
    <path d="M12.95 24.3271H7.34204C7.06165 24.3271 6.78125 24.5515 6.78125 24.8879C6.78125 25.1683 7.00557 25.4487 7.34204 25.4487H12.95C13.2304 25.4487 13.5108 25.2244 13.5108 24.8879C13.5108 24.5515 13.2304 24.3271 12.95 24.3271Z" fill={`${active === 3 ? "#ffffff" : "#556EA1"}`}/>
    <path d="M18.8385 18.271C18.6142 18.1028 18.3338 18.0467 18.1655 17.9906C17.9973 17.9345 17.8291 17.8785 17.7169 17.8224C17.4365 17.542 17.2122 17.1494 17.2122 16.7008L17.1561 11.1489C17.1561 9.52264 16.9879 7.4477 15.8102 5.87748L15.7541 5.76532C14.9129 4.69982 13.6792 3.85863 12.3333 3.40999C11.9968 3.29784 11.7164 3.24176 11.3799 3.18568C11.6043 2.90528 11.7164 2.5688 11.7164 2.23233C11.7164 1.33506 10.9874 0.662109 10.1462 0.662109C9.24892 0.662109 8.57598 1.39114 8.57598 2.23233C8.57598 2.5688 8.68813 2.90528 8.91245 3.18568C8.57597 3.24176 8.29558 3.29784 7.9591 3.40999C6.6132 3.85863 5.43553 4.64374 4.53826 5.76532L4.48219 5.87748C3.30453 7.4477 3.13628 9.52264 3.13628 11.1489L3.08021 16.7008C3.08021 17.1494 2.91197 17.5981 2.57549 17.8224C2.46333 17.9345 2.2951 17.9345 2.12686 17.9906C1.90255 18.0467 1.67822 18.1028 1.4539 18.271C0.837032 18.6636 0.556641 19.4487 0.556641 20.0095C0.556641 20.7946 0.893115 21.3554 1.50999 21.804C1.62215 21.8601 1.73431 21.9162 1.84647 21.9162H18.4459C18.5581 21.9162 18.6702 21.8601 18.7824 21.804C19.4553 21.3554 19.7358 20.7385 19.7358 20.0095C19.7358 19.4487 19.5114 18.6636 18.8385 18.271ZM10.1462 1.55938C10.4827 1.55938 10.8192 1.83977 10.8192 2.23233C10.8192 2.62488 10.5387 2.90528 10.1462 2.90528C9.75364 2.90528 9.47324 2.62488 9.47324 2.23233C9.47324 1.83977 9.75364 1.55938 10.1462 1.55938ZM18.2777 20.8507H2.0147C1.7343 20.6263 1.62214 20.402 1.62214 20.0095C1.62214 19.7291 1.73431 19.3365 1.95862 19.1683C2.07078 19.1122 2.18294 19.0561 2.35118 19C2.63157 18.944 2.96805 18.8318 3.24845 18.6075C3.80924 18.1588 4.14571 17.4298 4.14571 16.6447L4.20179 11.0929C4.20179 9.52264 4.37003 7.78418 5.32338 6.49435L5.37945 6.43828C6.10848 5.54101 7.11791 4.81198 8.2395 4.4755C9.47324 4.08295 10.8192 4.08295 11.9968 4.4755C13.1184 4.81198 14.1278 5.54101 14.8568 6.43828L14.9129 6.49435C15.8663 7.78418 16.0345 9.57872 16.0345 11.0929L16.0906 16.6447C16.0906 17.4298 16.4271 18.1588 16.9879 18.6075C17.2683 18.8318 17.6047 18.944 17.8851 19C18.0534 19.0561 18.1655 19.0561 18.2777 19.1683C18.502 19.3365 18.6142 19.673 18.6142 20.0095C18.6142 20.3459 18.502 20.6263 18.2777 20.8507Z" fill={`${active === 3 ? "#ffffff" : "#556EA1"}`}/>
</svg>