<svg width="25" height="25" viewBox="0 0 21 21" fill="none" xmlns="http://www.w3.org/2000/svg">
    <path d="M10.8319 1.96104C10.6827 1.90098 10.5163 1.90098 10.3671 1.96104L2.91103 4.95763L10.5995 8.04712L18.288 4.95763L10.8319 1.96104ZM19.3449 5.88535L11.2242 9.14934V19.0944L19.3449 15.8305V5.88661V5.88535ZM9.97484 19.0957V9.14808L1.85408 5.88535V15.8317L9.97484 19.0957ZM9.90363 0.794796C10.3504 0.615276 10.8487 0.615276 11.2954 0.794796L20.202 4.37514C20.3178 4.42177 20.417 4.50217 20.487 4.60599C20.5569 4.7098 20.5943 4.83228 20.5943 4.95763V15.8317C20.5941 16.0826 20.5192 16.3276 20.3791 16.5353C20.239 16.7429 20.0403 16.9036 19.8085 16.9967L10.8319 20.6047C10.6827 20.6647 10.5163 20.6647 10.3671 20.6047L1.39183 16.9967C1.15976 16.9038 0.960728 16.7432 0.820426 16.5355C0.680124 16.3279 0.604994 16.0827 0.604736 15.8317V4.95763C0.604765 4.83228 0.642146 4.7098 0.712064 4.60599C0.781982 4.50217 0.881233 4.42177 0.997031 4.37514L9.90363 0.794796Z" fill={`${active === 2 ? "#ffffff" : "#556EA1"}`}/>
</svg>