<svg width="25" height="25" viewBox="0 0 22 21" fill="none" xmlns="http://www.w3.org/2000/svg">
    <path d="M11.5007 10.2376C11.6015 10.2376 11.7527 10.1872 11.8031 10.1368L13.5166 8.62496C13.5166 8.62496 14.1717 8.0706 14.7765 7.41545C15.9356 6.25634 16.9435 5.14763 16.9435 3.48456C16.9435 1.6199 15.5324 0.108016 13.819 0.108016C12.811 0.108016 12.0047 1.01515 11.5007 1.72069C10.9968 0.964749 10.1904 0.0576172 9.13213 0.0576172C7.41866 0.0576172 6.00757 1.5695 6.00757 3.43416C6.00757 5.09723 6.9147 6.20594 9.43451 8.57456L11.0976 10.1368C11.2488 10.1872 11.3496 10.2376 11.5007 10.2376ZM7.01549 3.38376C7.01549 2.07347 7.97302 0.964749 9.18252 0.964749C9.88807 0.964749 10.644 1.87188 11.0976 2.8294C11.0976 2.8798 11.148 2.93019 11.1984 2.93019C11.2992 3.03099 11.4503 3.13178 11.6015 3.08138C11.7527 3.08138 11.9039 2.98059 11.9543 2.8294C12.3575 1.97267 13.1134 1.01514 13.819 1.01514C15.0285 1.01514 15.986 2.07346 15.986 3.43416C15.986 4.69406 15.2301 5.60119 14.1213 6.65951C13.5166 7.26427 12.9118 7.81862 12.8614 7.81862L11.5007 9.02813L10.1401 7.76823C7.46906 5.39961 7.01549 4.54287 7.01549 3.38376Z" fill={`${active === 1 ? "#ffffff" : "#556EA1"}`}/>
    <path d="M9.08177 20.2662C9.33375 20.2662 9.58573 20.0646 9.58573 19.7622V15.9825C9.58573 14.5714 8.47701 13.5131 7.46909 12.5556C6.86434 12.0012 6.20919 11.3965 6.20919 10.9429V8.87668C6.20919 7.61678 5.50364 6.96163 4.7477 6.65925C4.7477 6.20569 4.6973 5.04657 4.7477 3.93786C4.84849 2.1236 4.09255 1.21647 3.28621 1.11568C2.63106 1.01489 1.77433 1.41806 1.42156 2.87954C0.96799 4.84499 0.96799 6.65925 1.01839 8.42312C1.01839 8.77589 1.01839 9.17906 1.01839 9.53183C1.01839 13.7651 2.53027 15.5794 3.53819 16.7889C3.99176 17.3432 4.29413 17.696 4.29413 18.0992V19.7118C4.29413 19.9638 4.49572 20.2158 4.7981 20.2158C5.05008 20.2158 5.30206 20.0142 5.30206 19.7118V18.0992C5.30206 17.3936 4.84849 16.8393 4.29413 16.1841C3.33661 15.025 1.97591 13.4123 1.97591 9.53183C1.97591 9.17906 1.97591 8.82629 1.97591 8.42312C1.97591 6.70965 1.92552 4.94578 2.37908 3.08113C2.53027 2.32518 2.88304 1.97241 3.13502 2.0228C3.4374 2.0732 3.84057 2.67796 3.79017 3.83707C3.73978 4.84499 3.73978 5.80252 3.79017 6.35687C3.73978 6.35687 3.63898 6.35687 3.58859 6.35687C3.33661 6.35687 3.08463 6.55846 3.08463 6.86083V9.78381C3.08463 11.7997 3.4878 12.9588 3.4878 13.0092C3.58859 13.2611 3.84057 13.4123 4.09255 13.3115C4.34453 13.2107 4.49572 12.9588 4.39493 12.7068C4.39493 12.7068 4.04215 11.6485 4.04215 9.78381V7.3648C4.54611 7.46559 5.25166 7.81836 5.25166 8.82628V10.8925C5.25166 11.7493 6.0076 12.4548 6.81394 13.1603C7.67067 13.9667 8.6282 14.8738 8.6282 15.8817V19.6614C8.6282 20.0646 8.82979 20.2662 9.08177 20.2662Z" fill={`${active === 1 ? "#ffffff" : "#556EA1"}`}/>
    <path d="M20.9755 9.58261C20.9755 13.4631 19.6148 15.0758 18.6573 16.2349C18.103 16.8901 17.6494 17.4444 17.6494 18.15V19.7626C17.6494 20.0146 17.851 20.2666 18.1534 20.2666C18.4053 20.2666 18.6573 20.065 18.6573 19.7626V18.15C18.6573 17.7972 18.9597 17.394 19.4133 16.8397C20.4212 15.6301 21.9331 13.8159 21.9331 9.58261C21.9331 9.22984 21.9331 8.87707 21.9331 8.4739C21.9331 6.71003 21.9835 4.89577 21.5299 2.93033C21.1771 1.46884 20.3204 1.06567 19.6652 1.16646C18.8589 1.26725 18.103 2.22478 18.2037 3.98865C18.2541 5.14776 18.2541 6.25647 18.2037 6.71003C17.4478 7.01241 16.7423 7.66756 16.7423 8.92747V10.9937C16.7423 11.3969 16.0871 12.0016 15.4824 12.6064C14.4744 13.5135 13.3657 14.5718 13.3657 16.0333V19.813C13.3657 20.065 13.5673 20.317 13.8697 20.317C14.1217 20.317 14.3736 20.1154 14.3736 19.813V16.0333C14.3736 15.0254 15.3312 14.1183 16.1879 13.3119C16.9942 12.556 17.7502 11.8504 17.7502 11.0441V8.97786C17.7502 7.96994 18.4557 7.66756 18.9597 7.51638V9.93539C18.9597 11.7497 18.6069 12.808 18.6069 12.8584C18.5061 13.1103 18.6573 13.3623 18.9093 13.4631C19.1613 13.5639 19.4133 13.4127 19.514 13.1607C19.514 13.1103 19.9172 11.9512 19.9172 9.93539V7.01241C19.9172 6.76043 19.7156 6.50845 19.4133 6.50845C19.3629 6.50845 19.2621 6.50845 19.2117 6.50845C19.2117 5.9541 19.2621 4.94617 19.2117 3.98865C19.1613 2.77914 19.5644 2.17438 19.8668 2.17438C20.1188 2.12399 20.4716 2.47676 20.6228 3.2327C21.0763 5.04696 21.0259 6.86122 21.0259 8.57469C20.9755 8.87707 20.9755 9.22984 20.9755 9.58261Z" fill={`${active === 1 ? "#ffffff" : "#556EA1"}`}/>
</svg>