<svg width="230" height="112" viewBox="0 0 230 112" fill="none" xmlns="http://www.w3.org/2000/svg">
<path d="M14.04 54.63C20.565 54.63 25.965 51.345 25.965 44.55C25.965 37.485 19.935 36 15.165 34.785C11.79 33.975 9.09 33.3 9.09 31.095C9.09 29.025 11.295 28.08 13.5 28.08C16.065 28.08 18.315 29.34 18.315 32.085H25.02C25.02 25.785 20.925 21.915 13.68 21.915C6.705 21.915 2.25 25.335 2.25 31.365C2.25 38.16 8.01 39.555 12.78 40.725C16.2 41.49 19.08 42.165 19.08 44.64C19.08 46.98 16.56 48.33 13.995 48.33C11.205 48.33 8.685 46.845 8.685 43.83H1.8C1.8 50.58 6.795 54.63 14.04 54.63ZM42.5313 54.72C50.0463 54.72 55.6713 49.185 55.6713 41.85C55.6713 34.515 50.0463 29.025 42.5313 29.025C35.0163 29.025 29.3913 34.515 29.3913 41.85C29.3913 49.185 35.0163 54.72 42.5313 54.72ZM42.5313 48.51C38.7513 48.51 36.0513 45.81 36.0513 41.85C36.0513 37.935 38.7513 35.19 42.5313 35.19C46.3113 35.19 49.0113 37.935 49.0113 41.85C49.0113 45.81 46.3113 48.51 42.5313 48.51ZM88.0407 29.16C84.9357 29.16 82.1907 30.69 80.5257 33.03C79.0857 30.6 76.5657 29.16 73.4607 29.16C70.5807 29.16 67.9257 30.555 66.2157 32.715L65.0007 29.7H60.4107V54H66.9807V40.86C66.9807 37.08 68.7357 34.92 71.7057 34.92C74.0457 34.92 75.3057 36.63 75.3057 39.87V54H81.6957V40.86C81.6957 37.08 83.4507 34.92 86.3757 34.92C88.7607 34.92 90.0207 36.63 90.0207 39.87V54H96.5907V38.79C96.5907 33.075 93.0807 29.16 88.0407 29.16ZM114.162 54.72C121.677 54.72 127.302 49.185 127.302 41.85C127.302 34.515 121.677 29.025 114.162 29.025C106.647 29.025 101.022 34.515 101.022 41.85C101.022 49.185 106.647 54.72 114.162 54.72ZM114.162 48.51C110.382 48.51 107.682 45.81 107.682 41.85C107.682 37.935 110.382 35.19 114.162 35.19C117.942 35.19 120.642 37.935 120.642 41.85C120.642 45.81 117.942 48.51 114.162 48.51ZM140.637 54.72C146.802 54.72 150.852 51.48 150.852 46.53C150.852 40.59 145.767 39.78 141.807 39.06C139.287 38.61 137.217 38.205 137.217 36.585C137.217 35.19 138.432 34.29 140.457 34.29C142.752 34.29 144.102 35.235 144.147 37.17H150.402C150.357 32.31 146.487 29.025 140.637 29.025C134.787 29.025 130.872 32.22 130.872 36.81C130.872 42.525 135.822 43.56 139.692 44.235C142.257 44.64 144.372 45.135 144.372 46.8C144.372 48.42 142.707 49.275 140.907 49.275C138.567 49.275 136.902 48.195 136.857 46.035H130.467C130.467 51.21 134.562 54.72 140.637 54.72ZM29.835 69.5H22.545L15.255 82.145L8.01 69.5H0.765L11.745 88.265V101H18.72V88.31L29.835 69.5ZM40.937 94.7V88.22H51.872V82.055H40.937V75.8H53.042V69.5H34.142V101H53.537V94.7H40.937ZM69.7187 101.63C76.2437 101.63 81.6437 98.345 81.6437 91.55C81.6437 84.485 75.6137 83 70.8437 81.785C67.4687 80.975 64.7687 80.3 64.7687 78.095C64.7687 76.025 66.9737 75.08 69.1787 75.08C71.7437 75.08 73.9937 76.34 73.9937 79.085H80.6987C80.6987 72.785 76.6037 68.915 69.3587 68.915C62.3837 68.915 57.9287 72.335 57.9287 78.365C57.9287 85.16 63.6887 86.555 68.4587 87.725C71.8787 88.49 74.7587 89.165 74.7587 91.64C74.7587 93.98 72.2387 95.33 69.6737 95.33C66.8837 95.33 64.3637 93.845 64.3637 90.83H57.4787C57.4787 97.58 62.4737 101.63 69.7187 101.63ZM136.472 101L131.612 69.5H124.772L116.222 88.85L107.672 69.5H100.877L95.9266 101H102.857L105.962 80.48L115.367 100.955H117.032L126.437 80.48L129.542 101H136.472ZM156.396 101.72C165.981 101.72 173.136 94.655 173.136 85.25C173.136 75.89 165.981 68.825 156.396 68.825C146.766 68.825 139.566 75.935 139.566 85.25C139.566 94.61 146.766 101.72 156.396 101.72ZM156.396 95.285C150.771 95.285 146.496 90.92 146.496 85.25C146.496 79.58 150.771 75.26 156.396 75.26C162.021 75.26 166.206 79.535 166.206 85.25C166.206 90.965 162.021 95.285 156.396 95.285ZM216.76 101L211.9 69.5H205.06L196.51 88.85L187.96 69.5H181.165L176.215 101H183.145L186.25 80.48L195.655 100.955H197.32L206.725 80.48L209.83 101H216.76Z" fill="#EC668D"/>
<path d="M224.262 52.1575C224.568 52.1263 224.857 52 225.088 51.7965C225.318 51.593 225.48 51.3224 225.549 51.0226C225.618 50.7228 225.592 50.4089 225.473 50.1249C225.355 49.8409 225.151 49.6011 224.89 49.439L219.878 46.1809C219.854 46.1641 219.835 46.1406 219.824 46.1134C219.813 46.0861 219.81 46.0562 219.815 46.0273L220.904 40.1819C220.96 39.8852 220.924 39.5783 220.801 39.3028C220.677 39.0272 220.472 38.7964 220.213 38.6414C219.953 38.4865 219.653 38.415 219.351 38.4366C219.05 38.4582 218.763 38.5718 218.528 38.7621L213.891 42.5102C213.868 42.5287 213.841 42.5401 213.811 42.5432C213.782 42.5463 213.753 42.5409 213.726 42.5275L208.483 39.6569C208.217 39.5034 207.909 39.4372 207.603 39.4676C207.296 39.498 207.007 39.6235 206.776 39.8264C206.545 40.0293 206.383 40.2995 206.313 40.5991C206.243 40.8987 206.269 41.2126 206.386 41.4969L208.518 47.0632C208.529 47.0911 208.531 47.1215 208.525 47.1506C208.518 47.1798 208.503 47.2064 208.482 47.2272L204.165 51.306C203.944 51.5129 203.792 51.7829 203.73 52.0793C203.668 52.3757 203.699 52.684 203.818 52.9623C203.937 53.2406 204.139 53.4754 204.397 53.6347C204.654 53.7941 204.954 53.8702 205.257 53.8529L211.209 53.5438C211.239 53.5419 211.269 53.549 211.294 53.5642C211.319 53.5794 211.34 53.602 211.352 53.6289L213.899 59.018C214.021 59.2957 214.227 59.5286 214.487 59.6842C214.747 59.8397 215.05 59.9104 215.352 59.8863C215.653 59.861 215.938 59.743 216.169 59.5487C216.4 59.3544 216.566 59.0933 216.642 58.8013L218.189 53.0439C218.196 53.0148 218.212 52.9886 218.235 52.969C218.258 52.9494 218.286 52.9373 218.316 52.9344L224.262 52.1575Z" fill="#FEBF41"/>
<path d="M215.262 19.1575C215.568 19.1263 215.857 19 216.088 18.7965C216.318 18.593 216.48 18.3224 216.549 18.0226C216.618 17.7228 216.592 17.4089 216.473 17.1249C216.355 16.8409 216.151 16.6011 215.89 16.439L210.878 13.1809C210.854 13.1641 210.835 13.1406 210.824 13.1134C210.813 13.0861 210.81 13.0562 210.815 13.0273L211.904 7.18194C211.96 6.88522 211.924 6.57832 211.801 6.30277C211.677 6.02723 211.472 5.79637 211.213 5.64144C210.953 5.4865 210.653 5.41499 210.351 5.43657C210.05 5.45816 209.763 5.5718 209.528 5.76211L204.891 9.51015C204.868 9.52866 204.841 9.54014 204.811 9.54322C204.782 9.54631 204.753 9.54086 204.726 9.52753L199.483 6.65689C199.217 6.50342 198.909 6.43725 198.603 6.46765C198.296 6.49804 198.007 6.62349 197.776 6.82639C197.545 7.0293 197.383 7.29948 197.313 7.59907C197.243 7.89865 197.269 8.21261 197.386 8.49692L199.518 14.0632C199.529 14.0911 199.531 14.1215 199.525 14.1506C199.518 14.1798 199.503 14.2064 199.482 14.2272L195.165 18.306C194.944 18.5129 194.792 18.7829 194.73 19.0793C194.668 19.3757 194.699 19.684 194.818 19.9623C194.937 20.2406 195.139 20.4754 195.397 20.6347C195.654 20.7941 195.954 20.8702 196.257 20.8529L202.209 20.5438C202.239 20.5419 202.269 20.549 202.294 20.5642C202.319 20.5794 202.34 20.602 202.352 20.6289L204.899 26.018C205.021 26.2957 205.227 26.5286 205.487 26.6842C205.747 26.8397 206.05 26.9104 206.352 26.8863C206.653 26.861 206.938 26.743 207.169 26.5487C207.4 26.3544 207.566 26.0933 207.642 25.8013L209.189 20.0439C209.196 20.0148 209.212 19.9886 209.235 19.969C209.258 19.9494 209.286 19.9373 209.316 19.9344L215.262 19.1575Z" fill="#FEBF41"/>
<path d="M185.037 38.3808C185.344 38.3795 185.644 38.282 185.893 38.102C186.143 37.9219 186.329 37.6683 186.428 37.3767C186.526 37.0851 186.53 36.7701 186.44 36.4759C186.35 36.1818 186.17 35.9232 185.926 35.7364L181.256 32.0054C181.233 31.9863 181.217 31.9611 181.208 31.9329C181.2 31.9047 181.2 31.8747 181.208 31.8464L182.861 26.135C182.946 25.8452 182.94 25.5362 182.844 25.2499C182.748 24.9637 182.566 24.7139 182.323 24.5344C182.08 24.355 181.788 24.2545 181.486 24.2466C181.184 24.2388 180.887 24.3239 180.635 24.4904L175.655 27.7687C175.63 27.7849 175.602 27.7937 175.572 27.7939C175.543 27.7941 175.514 27.7858 175.489 27.77L170.551 24.4021C170.3 24.2233 170 24.1275 169.693 24.1279C169.385 24.1283 169.085 24.225 168.835 24.4044C168.585 24.5838 168.398 24.8369 168.299 25.1283C168.2 25.4196 168.195 25.7346 168.284 26.029L169.864 31.7766C169.872 31.8053 169.871 31.8358 169.862 31.8642C169.852 31.8926 169.835 31.9176 169.812 31.9362L165.118 35.5749C164.878 35.7594 164.701 36.0133 164.61 36.3022C164.519 36.5911 164.52 36.9009 164.611 37.1895C164.703 37.4781 164.881 37.7315 165.122 37.9152C165.362 38.0988 165.654 38.2039 165.956 38.216L171.911 38.4885C171.94 38.4895 171.969 38.4994 171.993 38.517C172.017 38.5347 172.035 38.5591 172.044 38.5871L174.054 44.1988C174.149 44.4871 174.33 44.7388 174.574 44.919C174.818 45.0993 175.112 45.199 175.415 45.2045C175.717 45.2086 176.013 45.1191 176.262 44.9482C176.511 44.7774 176.701 44.5336 176.805 44.2504L178.905 38.6711C178.916 38.6429 178.934 38.6184 178.959 38.6011C178.983 38.5838 179.013 38.5746 179.043 38.5746L185.037 38.3808Z" fill="#FEBF41"/>
</svg>
