<svg width="1920" height="425" viewBox="0 0 1920 425" fill="none" xmlns="http://www.w3.org/2000/svg">
<path d="M90.9934 69.2998L86.7806 77.0617L79.0032 81.2661L86.7806 85.4704L90.9934 93.2323L95.2061 85.4704L102.659 81.2661L95.2061 77.0617L90.9934 69.2998Z" fill="white" fill-opacity="0.2"/>
<path d="M1841.67 3L1845.88 10.7619L1853.66 14.9663L1845.88 19.1706L1841.67 26.9325L1837.45 19.1706L1830 14.9663L1837.45 10.7619L1841.67 3Z" fill="white" fill-opacity="0.2"/>
<path d="M43.3567 99.7002C46.9361 99.7002 49.8379 96.8042 49.8379 93.2319C49.8379 89.6596 46.9361 86.7637 43.3567 86.7637C39.7772 86.7637 36.8755 89.6596 36.8755 93.2319C36.8755 96.8042 39.7772 99.7002 43.3567 99.7002Z" fill="white" fill-opacity="0.2"/>
<path d="M1889.3 33.4009C1885.72 33.4009 1882.82 30.5049 1882.82 26.9326C1882.82 23.3603 1885.72 20.4644 1889.3 20.4644C1892.88 20.4644 1895.78 23.3603 1895.78 26.9326C1895.78 30.5049 1892.88 33.4009 1889.3 33.4009Z" fill="white" fill-opacity="0.2"/>
<path d="M47.8932 147.242C48.8654 147.242 49.5135 147.889 49.5135 148.859V162.766C49.5135 163.736 48.8654 164.383 47.8932 164.383C46.9211 164.383 46.2729 163.736 46.2729 162.766V148.859C46.597 147.889 47.2451 147.242 47.8932 147.242Z" fill="white" fill-opacity="0.2"/>
<path d="M1884.77 80.9424C1883.79 80.9424 1883.15 81.5892 1883.15 82.5594V96.4662C1883.15 97.4364 1883.79 98.0833 1884.77 98.0833C1885.74 98.0833 1886.39 97.4364 1886.39 96.4662V82.5594C1886.06 81.5892 1885.41 80.9424 1884.77 80.9424Z" fill="white" fill-opacity="0.2"/>
<mask id="mask0" mask-type="alpha" maskUnits="userSpaceOnUse" x="0" y="0" width="157" height="57">
<path d="M0 0H157V57H0V0Z" fill="#C4C4C4"/>
</mask>
<g mask="url(#mask0)">
<path opacity="0.65" d="M-40 29.873C-20.5565 29.873 -20.5565 49.9246 -1.11293 49.9246C18.3306 49.9246 18.3306 29.873 37.7741 29.873C57.2177 29.873 57.2177 49.9246 76.6612 49.9246C96.1048 49.9246 96.1048 29.873 115.548 29.873C134.992 29.873 134.992 49.9246 154.435 49.9246" stroke="white" stroke-opacity="0.2" stroke-width="1.29" stroke-miterlimit="10" stroke-linecap="round"/>
<path opacity="0.65" d="M-40 4C-20.5565 4 -20.5565 24.0516 -1.11293 24.0516C18.3306 24.0516 18.3306 4 37.7741 4C57.2177 4 57.2177 24.0516 76.6612 24.0516C96.1048 24.0516 96.1048 4 115.548 4C134.992 4 134.992 24.0516 154.435 24.0516" stroke="white" stroke-opacity="0.2" stroke-width="1.29" stroke-miterlimit="10" stroke-linecap="round"/>
</g>
<mask id="mask1" mask-type="alpha" maskUnits="userSpaceOnUse" x="1763" y="232" width="157" height="58">
<path d="M1763 232.072H1920V289.072H1763V232.072Z" fill="#C4C4C4"/>
</mask>
<g mask="url(#mask1)">
<path opacity="0.65" d="M1723 261.945C1742.44 261.945 1742.44 281.996 1761.89 281.996C1781.33 281.996 1781.33 261.945 1800.77 261.945C1820.22 261.945 1820.22 281.996 1839.66 281.996C1859.1 281.996 1859.1 261.945 1878.55 261.945C1897.99 261.945 1897.99 281.996 1917.44 281.996" stroke="white" stroke-opacity="0.2" stroke-width="1.29" stroke-miterlimit="10" stroke-linecap="round"/>
<path opacity="0.65" d="M1723 236.072C1742.44 236.072 1742.44 256.123 1761.89 256.123C1781.33 256.123 1781.33 236.072 1800.77 236.072C1820.22 236.072 1820.22 256.123 1839.66 256.123C1859.1 256.123 1859.1 236.072 1878.55 236.072C1897.99 236.072 1897.99 256.123 1917.44 256.123" stroke="white" stroke-opacity="0.2" stroke-width="1.29" stroke-miterlimit="10" stroke-linecap="round"/>
</g>
<mask id="mask2" mask-type="alpha" maskUnits="userSpaceOnUse" x="291" y="0" width="395" height="117">
<rect x="291" width="395" height="117" fill="#C4C4C4"/>
</mask>
<g mask="url(#mask2)">
<path opacity="0.2" d="M358.037 45.3848C391.881 45.3848 419.317 17.9487 419.317 -15.8956C419.317 -49.7399 391.881 -77.1761 358.037 -77.1761C324.193 -77.1761 296.756 -49.7399 296.756 -15.8956C296.756 17.9487 324.193 45.3848 358.037 45.3848Z" stroke="white" stroke-opacity="0.3" stroke-width="1.5142" stroke-miterlimit="10"/>
<path opacity="0.2" d="M376.778 28.4101C401.27 18.074 412.746 -10.1601 402.41 -34.6525C392.074 -59.1449 363.84 -70.6209 339.347 -60.2848C314.855 -49.9487 303.379 -21.7146 313.715 2.7778C324.051 27.2702 352.285 38.7462 376.778 28.4101Z" stroke="white" stroke-opacity="0.3" stroke-width="1.5142" stroke-miterlimit="10"/>
<path opacity="0.2" d="M386.926 -11.3994C389.501 -27.3479 378.66 -42.3642 362.712 -44.9394C346.763 -47.5145 331.747 -36.6733 329.172 -20.7248C326.597 -4.77634 337.438 10.24 353.386 12.8152C369.335 15.3903 384.351 4.54911 386.926 -11.3994Z" stroke="white" stroke-opacity="0.3" stroke-width="1.5142" stroke-miterlimit="10"/>
<path d="M535 100C615.081 100 680 35.0813 680 -45C680 -125.081 615.081 -190 535 -190C454.919 -190 390 -125.081 390 -45C390 35.0813 454.919 100 535 100Z" fill="white" fill-opacity="0.1"/>
</g>
<mask id="mask3" mask-type="alpha" maskUnits="userSpaceOnUse" x="799" y="319" width="290" height="106">
<rect x="799" y="319.072" width="290" height="105" fill="#C4C4C4"/>
</mask>
<g mask="url(#mask3)">
<path d="M944 614.072C1024.08 614.072 1089 549.153 1089 469.072C1089 388.99 1024.08 324.072 944 324.072C863.919 324.072 799 388.99 799 469.072C799 549.153 863.919 614.072 944 614.072Z" fill="white" fill-opacity="0.1"/>
</g>
<mask id="mask4" mask-type="alpha" maskUnits="userSpaceOnUse" x="1265" y="33" width="274" height="272">
<rect x="1265" y="33.0718" width="274" height="271" fill="#C4C4C4"/>
</mask>
<g mask="url(#mask4)">
<path opacity="0.2" d="M1400.51 291.441C1471.12 291.441 1528.35 234.203 1528.35 163.597C1528.35 92.9899 1471.12 35.7519 1400.51 35.7519C1329.9 35.7519 1272.66 92.9899 1272.66 163.597C1272.66 234.203 1329.9 291.441 1400.51 291.441Z" stroke="white" stroke-opacity="0.3" stroke-width="1.5142" stroke-miterlimit="10"/>
<path opacity="0.2" d="M1439.61 256.028C1490.7 234.464 1514.64 175.562 1493.08 124.465C1471.52 73.3686 1412.62 49.4272 1361.52 70.9906C1310.42 92.554 1286.48 151.457 1308.04 202.553C1329.61 253.65 1388.51 277.591 1439.61 256.028Z" stroke="white" stroke-opacity="0.3" stroke-width="1.5142" stroke-miterlimit="10"/>
<path opacity="0.2" d="M1460.78 172.977C1466.15 139.704 1443.53 108.377 1410.26 103.005C1376.99 97.6323 1345.66 120.249 1340.29 153.522C1334.92 186.794 1357.53 218.121 1390.81 223.493C1424.08 228.866 1455.41 206.249 1460.78 172.977Z" stroke="white" stroke-opacity="0.3" stroke-width="1.5142" stroke-miterlimit="10"/>
<path opacity="0.2" d="M1400.51 199.13C1420.13 199.13 1436.04 183.221 1436.04 163.596C1436.04 143.971 1420.13 128.062 1400.51 128.062C1380.88 128.062 1364.97 143.971 1364.97 163.596C1364.97 183.221 1380.88 199.13 1400.51 199.13Z" fill="white" fill-opacity="0.3"/>
</g>
</svg>
