<svg width="414" height="544" viewBox="0 0 414 544" fill="none" xmlns="http://www.w3.org/2000/svg">
<path d="M64.137 62.1714L60.5753 68.1575L54 71.4L60.5753 74.6425L64.137 80.6286L67.6986 74.6425L74 71.4L67.6986 68.1575L64.137 62.1714Z" fill="white" fill-opacity="0.2"/>
<path d="M25.5 86.4571C28.5376 86.4571 31 84.0651 31 81.1143C31 78.1635 28.5376 75.7714 25.5 75.7714C22.4624 75.7714 20 78.1635 20 81.1143C20 84.0651 22.4624 86.4571 25.5 86.4571Z" fill="white" fill-opacity="0.2"/>
<path d="M23.3208 129.2H34.6792C35.4717 129.2 36 129.589 36 130.171C36 130.754 35.4717 131.143 34.6792 131.143H23.3208C22.5283 131.143 22 130.754 22 130.171C22 129.589 22.5283 129.2 23.3208 129.2Z" fill="white" fill-opacity="0.2"/>
<path d="M29 123.371C29.6 123.371 30 123.885 30 124.654V135.688C30 136.458 29.6 136.971 29 136.971C28.4 136.971 28 136.458 28 135.688V124.654C28.2 123.885 28.6 123.371 29 123.371Z" fill="white" fill-opacity="0.2"/>
<path d="M343.863 525.543L347.425 519.557L354 516.314L347.425 513.072L343.863 507.086L340.301 513.072L334 516.314L340.301 519.557L343.863 525.543Z" fill="white" fill-opacity="0.2"/>
<path d="M382.5 501.257C379.462 501.257 377 503.649 377 506.6C377 509.551 379.462 511.943 382.5 511.943C385.538 511.943 388 509.551 388 506.6C388 503.649 385.538 501.257 382.5 501.257Z" fill="white" fill-opacity="0.2"/>
<path d="M384.679 458.514H373.321C372.528 458.514 372 458.126 372 457.543C372 456.96 372.528 456.571 373.321 456.571H384.679C385.472 456.571 386 456.96 386 457.543C386 458.126 385.472 458.514 384.679 458.514Z" fill="white" fill-opacity="0.2"/>
<path d="M379 464.343C378.4 464.343 378 463.83 378 463.06V452.026C378 451.256 378.4 450.743 379 450.743C379.6 450.743 380 451.256 380 452.026V463.06C379.8 463.83 379.4 464.343 379 464.343Z" fill="white" fill-opacity="0.2"/>
<mask id="mask0" mask-type="alpha" maskUnits="userSpaceOnUse" x="0" y="29" width="74" height="27">
<path d="M0 29.1429H74V55.2415H0V29.1429Z" fill="#C4C4C4"/>
</mask>
<g mask="url(#mask0)">
<path opacity="0.65" d="M-18.8535 42.8208C-9.68905 42.8208 -9.68905 52.0019 -0.524577 52.0019C8.63989 52.0019 8.63989 42.8208 17.8044 42.8208C26.9688 42.8208 26.9688 52.0019 36.1333 52.0019C45.2978 52.0019 45.2978 42.8208 54.4622 42.8208C63.6267 42.8208 63.6267 52.0019 72.7912 52.0019" stroke="white" stroke-opacity="0.2" stroke-width="1.29" stroke-miterlimit="10" stroke-linecap="round"/>
<path opacity="0.65" d="M-18.8525 30.9744C-9.68807 30.9744 -9.68807 40.1554 -0.5236 40.1554C8.64087 40.1554 8.64087 30.9744 17.8053 30.9744C26.9698 30.9744 26.9698 40.1554 36.1343 40.1554C45.2987 40.1554 45.2987 30.9744 54.4632 30.9744C63.6277 30.9744 63.6277 40.1554 72.7922 40.1554" stroke="white" stroke-opacity="0.2" stroke-width="1.29" stroke-miterlimit="10" stroke-linecap="round"/>
</g>
<mask id="mask1" mask-type="alpha" maskUnits="userSpaceOnUse" x="327" y="29" width="74" height="27">
<path d="M327 29.1429H401V55.2415H327V29.1429Z" fill="#C4C4C4"/>
</mask>
<g mask="url(#mask1)">
<path opacity="0.65" d="M308.146 42.8208C317.311 42.8208 317.311 52.0019 326.475 52.0019C335.64 52.0019 335.64 42.8208 344.804 42.8208C353.969 42.8208 353.969 52.0019 363.133 52.0019C372.298 52.0019 372.298 42.8208 381.462 42.8208C390.627 42.8208 390.627 52.0019 399.791 52.0019" stroke="white" stroke-opacity="0.2" stroke-width="1.29" stroke-miterlimit="10" stroke-linecap="round"/>
<path opacity="0.65" d="M308.147 30.9744C317.312 30.9744 317.312 40.1554 326.476 40.1554C335.641 40.1554 335.641 30.9744 344.805 30.9744C353.97 30.9744 353.97 40.1554 363.134 40.1554C372.299 40.1554 372.299 30.9744 381.463 30.9744C390.628 30.9744 390.628 40.1554 399.792 40.1554" stroke="white" stroke-opacity="0.2" stroke-width="1.29" stroke-miterlimit="10" stroke-linecap="round"/>
</g>
<mask id="mask2" mask-type="alpha" maskUnits="userSpaceOnUse" x="0" y="484" width="128" height="46">
<path d="M0 484.743H127.518V529.716H0V484.743Z" fill="#C4C4C4"/>
</mask>
<g mask="url(#mask2)">
<path opacity="0.65" d="M-32.4883 508.313C-16.6959 508.313 -16.6959 524.134 -0.903543 524.134C14.8888 524.134 14.8888 508.313 30.6812 508.313C46.4736 508.313 46.4736 524.134 62.2659 524.134C78.0583 524.134 78.0583 508.313 93.8507 508.313C109.643 508.313 109.643 524.134 125.435 524.134" stroke="white" stroke-opacity="0.2" stroke-width="1.29" stroke-miterlimit="10" stroke-linecap="round"/>
<path opacity="0.65" d="M-32.4883 487.899C-16.6959 487.899 -16.6959 503.72 -0.903543 503.72C14.8888 503.72 14.8888 487.899 30.6812 487.899C46.4736 487.899 46.4736 503.72 62.2659 503.72C78.0583 503.72 78.0583 487.899 93.8507 487.899C109.643 487.899 109.643 503.72 125.435 503.72" stroke="white" stroke-opacity="0.2" stroke-width="1.29" stroke-miterlimit="10" stroke-linecap="round"/>
</g>
<mask id="mask3" mask-type="alpha" maskUnits="userSpaceOnUse" x="94" y="0" width="208" height="60">
<rect x="94" width="208" height="59.8498" fill="#C4C4C4"/>
</mask>
<g mask="url(#mask3)">
<path opacity="0.2" d="M129.299 23.2161C147.121 23.2161 161.569 9.18152 161.569 -8.13107C161.569 -25.4437 147.121 -39.4783 129.299 -39.4783C111.478 -39.4783 97.0303 -25.4437 97.0303 -8.13107C97.0303 9.18152 111.478 23.2161 129.299 23.2161Z" stroke="white" stroke-opacity="0.3" stroke-width="1.5142" stroke-miterlimit="10"/>
<path opacity="0.2" d="M139.168 14.5329C152.065 9.24557 158.108 -5.19721 152.666 -17.726C147.223 -30.2548 132.355 -36.1251 119.458 -30.8378C106.561 -25.5505 100.518 -11.1078 105.961 1.42101C111.403 13.9498 126.271 19.8202 139.168 14.5329Z" stroke="white" stroke-opacity="0.3" stroke-width="1.5142" stroke-miterlimit="10"/>
<path opacity="0.2" d="M144.512 -5.83108C145.868 -13.9893 140.16 -21.6708 131.761 -22.988C123.363 -24.3053 115.456 -18.7596 114.1 -10.6014C112.744 -2.44315 118.453 5.23828 126.851 6.55557C135.249 7.87285 143.156 2.32716 144.512 -5.83108Z" stroke="white" stroke-opacity="0.3" stroke-width="1.5142" stroke-miterlimit="10"/>
<path d="M222.485 51.1538C264.655 51.1538 298.84 17.9454 298.84 -23.0191C298.84 -63.9837 264.655 -97.192 222.485 -97.192C180.316 -97.192 146.131 -63.9837 146.131 -23.0191C146.131 17.9454 180.316 51.1538 222.485 51.1538Z" fill="white" fill-opacity="0.1"/>
</g>
<mask id="mask4" mask-type="alpha" maskUnits="userSpaceOnUse" x="166" y="495" width="139" height="49">
<rect x="166" y="495.429" width="138.095" height="48.5714" fill="#C4C4C4"/>
</mask>
<g mask="url(#mask4)">
<path d="M235.048 631.891C273.182 631.891 304.095 601.861 304.095 564.816C304.095 527.772 273.182 497.742 235.048 497.742C196.914 497.742 166 527.772 166 564.816C166 601.861 196.914 631.891 235.048 631.891Z" fill="white" fill-opacity="0.1"/>
</g>
<mask id="mask5" mask-type="alpha" maskUnits="userSpaceOnUse" x="255" y="136" width="159" height="154">
<rect x="255" y="136.971" width="159" height="152.766" fill="#C4C4C4"/>
</mask>
<g mask="url(#mask5)">
<path opacity="0.2" d="M333.635 282.617C374.607 282.617 407.822 250.352 407.822 210.55C407.822 170.748 374.607 138.482 333.635 138.482C292.662 138.482 259.447 170.748 259.447 210.55C259.447 250.352 292.662 282.617 333.635 282.617Z" stroke="white" stroke-opacity="0.3" stroke-width="1.5142" stroke-miterlimit="10"/>
<path opacity="0.2" d="M356.323 262.654C385.974 250.499 399.867 217.295 387.354 188.491C374.841 159.687 340.66 146.191 311.009 158.347C281.358 170.502 267.465 203.706 279.978 232.51C292.491 261.314 326.672 274.81 356.323 262.654Z" stroke="white" stroke-opacity="0.3" stroke-width="1.5142" stroke-miterlimit="10"/>
<path opacity="0.2" d="M368.609 215.837C371.727 197.082 358.602 179.422 339.295 176.393C319.987 173.365 301.808 186.115 298.691 204.87C295.573 223.626 308.698 241.286 328.005 244.314C347.313 247.343 365.492 234.593 368.609 215.837Z" stroke="white" stroke-opacity="0.3" stroke-width="1.5142" stroke-miterlimit="10"/>
<path opacity="0.2" d="M333.635 230.581C345.023 230.581 354.255 221.612 354.255 210.55C354.255 199.487 345.023 190.519 333.635 190.519C322.247 190.519 313.015 199.487 313.015 210.55C313.015 221.612 322.247 230.581 333.635 230.581Z" fill="white" fill-opacity="0.3"/>
</g>
</svg>
