<svg width="293" height="153" viewBox="0 0 293 153" fill="none" xmlns="http://www.w3.org/2000/svg">
<path fill-rule="evenodd" clip-rule="evenodd" d="M168.777 58.8678C159.639 56.9728 151.171 53.6783 143.956 47.91C138.243 43.3261 134.786 37.4991 133.521 30.3952C133.021 27.5733 133.14 24.7484 133.716 21.9168C135.473 13.1695 143.651 7.81183 150.792 6.83667C153.324 6.48219 155.668 7.07978 157.956 8.01941C163.082 10.1066 167.23 13.4721 170.919 17.3591C181.717 28.7527 186.866 42.3629 186.647 57.9666C186.65 58.6695 186.742 59.3988 186.328 60.1499C180.438 60.5471 174.564 60.0457 168.777 58.8678ZM266.437 48.5577C267.442 47.1082 268.771 45.829 270.01 44.5235C275.897 38.3896 281.43 31.9866 286.048 24.8939C288.29 21.436 290.193 17.8402 292.274 14.2971C292.981 13.1028 292.733 11.6102 291.828 10.7818C290.771 9.81129 289.143 9.6948 287.732 10.6208C285.736 11.9183 283.794 13.3069 281.845 14.6708C279.771 16.1547 277.705 17.6632 275.441 18.8815C267.249 23.2419 258.723 26.7862 249.669 28.9789C248.138 29.3466 246.598 29.7713 245.201 30.3952C243.121 31.3396 242.597 33.6411 244.01 35.1504C244.664 35.8672 245.569 36.2624 246.5 36.5683C248.444 37.1819 250.502 37.3811 252.57 37.4417C253.661 37.4813 254.814 37.2853 256.157 37.788C246.347 43.7073 236.471 48.8081 225.865 52.4305C215.203 56.0435 204.265 58.3349 192.995 59.6468C193.009 58.9116 192.994 58.4291 193.011 57.9637C193.279 48.2448 191.347 38.9937 187.312 30.1798C182.564 19.8552 175.541 11.3207 165.738 5.03131C161.399 2.26637 156.697 0.155603 151.26 0.709523C141.585 1.68774 134.187 6.34294 129.707 14.7461C125.886 21.8885 126.102 29.3459 128.527 36.7116C131.554 45.839 137.899 52.2834 146.29 57.0635C157.541 63.4982 169.896 66.3691 183.088 66.3813C183.951 66.3834 184.869 66.1251 185.78 66.6267C185.494 67.9608 185.283 69.1903 184.941 70.4333C179.692 89.9829 168.538 106.064 152.791 119.432C146.885 124.462 140.344 128.58 133.415 132.142C119.77 139.173 105.497 144.098 90.1699 145.805C74.5246 147.53 59.2155 146.606 44.4751 141.527C35.9916 138.616 27.965 134.833 20.8902 129.427C16.7944 126.316 13.4135 122.468 10.2217 118.535C7.7625 115.483 6.06113 112.006 6.23802 107.892C6.25668 107.344 6.19394 106.796 5.92673 106.283C5.3524 105.217 4.50126 104.561 3.19493 104.697C1.8886 104.832 1.05999 105.55 0.702959 106.744C0.572143 107.19 0.562731 107.68 0.521049 108.153C0.304412 111.794 1.1267 115.219 2.86661 118.386C6.51226 124.993 11.6553 130.431 17.7622 134.893C29.4783 143.43 42.8201 148.781 57.434 151.112C81.2359 154.889 104.337 151.902 126.609 141.999C135.542 138.031 144.255 133.698 152.044 127.784C156.716 124.247 161.043 120.385 165.124 116.247C178.961 102.201 188.26 85.9656 192.03 67.0381C192.212 66.0614 192.601 65.751 193.589 65.6332C196.374 65.3086 199.16 64.9023 201.939 64.4714C219.004 61.7634 235.174 56.5192 250.272 48.0897C253.467 46.3111 256.68 44.5002 260.246 42.5252C259.403 44.4113 258.149 45.6675 257.638 47.2337C257.205 48.532 257.189 49.782 258.271 50.7449C259.313 51.666 260.603 51.9143 261.933 51.4197C263.696 50.8444 265.314 50.1517 266.437 48.5577Z" fill="#506DA5"/>
</svg>
