<svg width="1920" height="592" viewBox="0 0 1920 592" fill="none" xmlns="http://www.w3.org/2000/svg">
<rect width="1920" height="592" fill="#FEBF41"/>
<path d="M236.148 207.576C234.51 207.576 232.981 207.794 231.452 208.228C231.671 207.142 231.889 206.055 231.889 204.86C231.889 194.32 221.296 185.735 208.301 185.735C203.824 185.735 199.783 186.713 196.179 188.452C190.501 179.868 179.362 174 166.476 174C147.911 174 132.841 186.17 132.841 201.274C132.841 202.469 132.95 203.556 133.168 204.643C132.186 204.534 131.094 204.425 130.002 204.425C119.518 204.425 111 211.271 111 219.746C111 228.222 119.518 235.068 129.892 235.068C133.824 235.068 137.537 234.09 140.594 232.351C143.215 238.002 149.877 242.022 157.849 242.022C163.2 242.022 168.114 240.175 171.39 237.132C177.615 240.718 185.914 242.891 195.197 242.891C209.939 242.891 222.607 237.241 227.521 229.309C229.924 230.721 232.981 231.591 236.257 231.591C244.448 231.591 251.109 226.157 251.109 219.529C251.109 212.901 244.448 207.576 236.148 207.576Z" fill="white" fill-opacity="0.8"/>
<path d="M1804.15 431.576C1802.51 431.576 1800.98 431.794 1799.45 432.228C1799.67 431.142 1799.89 430.055 1799.89 428.86C1799.89 418.32 1789.3 409.735 1776.3 409.735C1771.82 409.735 1767.78 410.713 1764.18 412.452C1758.5 403.868 1747.36 398 1734.48 398C1715.91 398 1700.84 410.17 1700.84 425.274C1700.84 426.469 1700.95 427.556 1701.17 428.643C1700.19 428.534 1699.09 428.425 1698 428.425C1687.52 428.425 1679 435.271 1679 443.746C1679 452.222 1687.52 459.068 1697.89 459.068C1701.82 459.068 1705.54 458.09 1708.59 456.351C1711.22 462.002 1717.88 466.022 1725.85 466.022C1731.2 466.022 1736.11 464.175 1739.39 461.132C1745.61 464.718 1753.91 466.891 1763.2 466.891C1777.94 466.891 1790.61 461.241 1795.52 453.309C1797.92 454.721 1800.98 455.591 1804.26 455.591C1812.45 455.591 1819.11 450.157 1819.11 443.529C1819.11 436.901 1812.45 431.576 1804.15 431.576Z" fill="white" fill-opacity="0.8"/>
<path d="M1905.15 362.576C1903.51 362.576 1901.98 362.794 1900.45 363.228C1900.67 362.142 1900.89 361.055 1900.89 359.86C1900.89 349.32 1890.3 340.735 1877.3 340.735C1872.82 340.735 1868.78 341.713 1865.18 343.452C1859.5 334.868 1848.36 329 1835.48 329C1816.91 329 1801.84 341.17 1801.84 356.274C1801.84 357.469 1801.95 358.556 1802.17 359.643C1801.19 359.534 1800.09 359.425 1799 359.425C1788.52 359.425 1780 366.271 1780 374.746C1780 383.222 1788.52 390.068 1798.89 390.068C1802.82 390.068 1806.54 389.09 1809.59 387.351C1812.22 393.002 1818.88 397.022 1826.85 397.022C1832.2 397.022 1837.11 395.175 1840.39 392.132C1846.61 395.718 1854.91 397.891 1864.2 397.891C1878.94 397.891 1891.61 392.241 1896.52 384.309C1898.92 385.721 1901.98 386.591 1905.26 386.591C1913.45 386.591 1920.11 381.157 1920.11 374.529C1920.11 367.901 1913.45 362.576 1905.15 362.576Z" fill="white" fill-opacity="0.8"/>
<path d="M345.148 281.576C343.51 281.576 341.981 281.794 340.452 282.228C340.671 281.142 340.889 280.055 340.889 278.86C340.889 268.32 330.296 259.735 317.301 259.735C312.824 259.735 308.783 260.713 305.179 262.452C299.501 253.868 288.362 248 275.476 248C256.911 248 241.841 260.17 241.841 275.274C241.841 276.469 241.95 277.556 242.168 278.643C241.186 278.534 240.094 278.425 239.002 278.425C228.518 278.425 220 285.271 220 293.746C220 302.222 228.518 309.068 238.892 309.068C242.824 309.068 246.537 308.09 249.594 306.351C252.215 312.002 258.877 316.022 266.849 316.022C272.2 316.022 277.114 314.175 280.39 311.132C286.615 314.718 294.914 316.891 304.197 316.891C318.939 316.891 331.607 311.241 336.521 303.309C338.924 304.721 341.981 305.591 345.257 305.591C353.448 305.591 360.109 300.157 360.109 293.529C360.109 286.901 353.448 281.576 345.148 281.576Z" fill="white" fill-opacity="0.8"/>
</svg>
