<svg width="414" height="760" viewBox="0 0 414 760" fill="none" xmlns="http://www.w3.org/2000/svg">
<rect width="414" height="760" fill="#FEBF41"/>
<g opacity="0.8" clip-path="url(#clip0)">
<path d="M394.543 39.7905C393.279 39.7905 392.1 39.9575 390.92 40.2913C391.089 39.4567 391.257 38.622 391.257 37.7039C391.257 29.6079 383.086 23.0142 373.061 23.0142C369.607 23.0142 366.49 23.7654 363.71 25.1008C359.329 18.5071 350.736 14 340.796 14C326.474 14 314.849 23.348 314.849 34.9496C314.849 35.8677 314.933 36.7024 315.101 37.537C314.343 37.4535 313.501 37.3701 312.658 37.3701C304.571 37.3701 298 42.6283 298 49.1386C298 55.6488 304.571 60.9071 312.574 60.9071C315.607 60.9071 318.471 60.1559 320.83 58.8205C322.852 63.1606 327.991 66.2488 334.14 66.2488C338.268 66.2488 342.059 64.8299 344.587 62.4929C349.388 65.2472 355.791 66.9165 362.952 66.9165C374.324 66.9165 384.097 62.5764 387.888 56.4835C389.741 57.5685 392.1 58.2362 394.627 58.2362C400.945 58.2362 406.084 54.063 406.084 48.9716C406.084 43.8803 400.945 39.7905 394.543 39.7905Z" fill="white" fill-opacity="0.8"/>
</g>
<g opacity="0.8" clip-path="url(#clip1)">
<path d="M49.5429 168.791C48.2793 168.791 47.0999 168.957 45.9204 169.291C46.0889 168.457 46.2574 167.622 46.2574 166.704C46.2574 158.608 38.0858 152.014 28.0608 152.014C24.6069 152.014 21.4899 152.765 18.7098 154.101C14.3292 147.507 5.73635 143 -4.20436 143C-18.5257 143 -30.1513 152.348 -30.1513 163.95C-30.1513 164.868 -30.0671 165.702 -29.8986 166.537C-30.6568 166.454 -31.4992 166.37 -32.3417 166.37C-40.429 166.37 -47 171.628 -47 178.139C-47 184.649 -40.429 189.907 -32.4259 189.907C-29.3931 189.907 -26.5289 189.156 -24.17 187.82C-22.1482 192.161 -17.0094 195.249 -10.8596 195.249C-6.73167 195.249 -2.94072 193.83 -0.413414 191.493C4.38846 194.247 10.791 195.917 17.9516 195.917C29.3245 195.917 39.0967 191.576 42.8877 185.483C44.741 186.569 47.0998 187.236 49.6272 187.236C55.9454 187.236 61.0843 183.063 61.0843 177.972C61.0843 172.88 55.9454 168.791 49.5429 168.791Z" fill="white" fill-opacity="0.8"/>
</g>
<g opacity="0.8" clip-path="url(#clip2)">
<path d="M429.543 707.791C428.279 707.791 427.1 707.957 425.92 708.291C426.089 707.457 426.257 706.622 426.257 705.704C426.257 697.608 418.086 691.014 408.061 691.014C404.607 691.014 401.49 691.765 398.71 693.101C394.329 686.507 385.736 682 375.796 682C361.474 682 349.849 691.348 349.849 702.95C349.849 703.868 349.933 704.702 350.101 705.537C349.343 705.454 348.501 705.37 347.658 705.37C339.571 705.37 333 710.628 333 717.139C333 723.649 339.571 728.907 347.574 728.907C350.607 728.907 353.471 728.156 355.83 726.82C357.852 731.161 362.991 734.249 369.14 734.249C373.268 734.249 377.059 732.83 379.587 730.493C384.388 733.247 390.791 734.917 397.952 734.917C409.324 734.917 419.097 730.576 422.888 724.483C424.741 725.569 427.1 726.236 429.627 726.236C435.945 726.236 441.084 722.063 441.084 716.972C441.084 711.88 435.945 707.791 429.543 707.791Z" fill="white" fill-opacity="0.8"/>
</g>
<defs>
<clipPath id="clip0">
<rect width="108" height="53" fill="white" transform="translate(298 14)"/>
</clipPath>
<clipPath id="clip1">
<rect width="108" height="53" fill="white" transform="translate(-47 143)"/>
</clipPath>
<clipPath id="clip2">
<rect width="108" height="53" fill="white" transform="translate(333 682)"/>
</clipPath>
</defs>
</svg>

