<svg width="24" height="24" viewBox="0 0 24 24" fill="none" xmlns="http://www.w3.org/2000/svg">
<path fill-rule="evenodd" clip-rule="evenodd" d="M0.500001 10.6597C0.223858 10.6597 0 10.8836 0 11.1597V12.8403C0 13.1164 0.223858 13.3403 0.5 13.3403H10.6597V23.5C10.6597 23.7761 10.8836 24 11.1597 24H12.8403C13.1164 24 13.3403 23.7761 13.3403 23.5V13.3403H23.5C23.7761 13.3403 24 13.1164 24 12.8403V11.1597C24 10.8836 23.7761 10.6597 23.5 10.6597H13.3403V0.500001C13.3403 0.223858 13.1164 0 12.8403 0H11.1597C10.8836 0 10.6597 0.223858 10.6597 0.5V10.6597H0.500001Z" fill="#D3DEE3"/>
</svg>