<svg width="406" height="251" viewBox="0 0 406 251" fill="none" xmlns="http://www.w3.org/2000/svg">
<path d="M362.934 128.449C358.332 128.449 353.73 127.794 349.456 126.155C350.113 130.087 350.442 134.02 350.442 138.279C350.442 176.945 319.869 208.074 282.063 208.074C269.242 208.074 257.407 204.47 246.887 198.244C230.45 229.701 198.233 251 160.756 251C106.842 251 63.119 206.436 63.119 151.386C63.119 147.127 63.4478 143.194 64.1053 138.935C61.1466 139.59 58.1878 139.918 54.9004 139.918C24.6558 139.918 -1.86293e-05 115.014 -1.59366e-05 84.2128C-1.32438e-05 53.4112 24.6558 28.5078 54.9004 28.5078C66.4065 28.5078 76.9263 32.1123 85.8024 38.3381C93.3635 17.6945 112.76 3.27677 135.772 3.27677C151.551 3.27677 165.359 10.158 175.221 20.9713C193.302 7.86425 217.3 1.40209e-05 244.257 1.63776e-05C286.994 2.01138e-05 323.485 20.6436 337.95 49.4791C345.182 44.2363 353.73 41.2872 363.263 41.2872C386.604 40.9595 406 60.6201 406 84.5405C406 108.789 386.604 128.449 362.934 128.449Z" fill="white"/>
</svg>
