<svg width="2141" height="872" viewBox="0 0 2141 872" fill="none" xmlns="http://www.w3.org/2000/svg">
<g opacity="0.5">
<mask id="mask0" mask-type="alpha" maskUnits="userSpaceOnUse" x="-1" y="0" width="2143" height="872">
<g opacity="0.3">
<g opacity="0.9">
<path opacity="0.9" d="M0 75.81H34.8194C34.8194 80.4657 37.5175 83.1767 41.6428 83.1767C45.3332 83.1767 48.0425 81.0786 48.0425 77.3187C48.0425 71.7554 41.3641 70.1053 33.1247 67.854C19.4667 64.2473 1.28217 59.5915 1.28217 34.3563C1.28217 13.4703 15.9213 1 40.9292 1C65.5135 1 80.0077 13.765 80.0077 35.2521H46.4704C46.4704 31.1975 44.4859 28.9462 40.9292 28.9462C37.5175 28.9462 35.5329 30.7496 35.5329 33.7552C35.5329 38.8706 42.2114 40.6621 50.5957 43.0666C64.6662 46.968 83.5643 52.2249 83.5643 76.4229C83.5643 98.959 67.9329 112.172 41.6428 112.172C15.4864 112.172 0 98.6526 0 75.81Z" stroke="#506DA5" stroke-width="1.4237" stroke-miterlimit="10"/>
<path opacity="0.9" d="M185.012 4.00586V109.167H151.475V71.9089H128.173V109.167H94.6357V4.00586H128.173V39.6134H151.475V4.00586H185.012Z" stroke="#506DA5" stroke-width="1.4237" stroke-miterlimit="10"/>
<path opacity="0.9" d="M196.095 56.5863C196.095 23.2417 218.828 1.00024 252.934 1.00024C287.04 1.00024 309.773 23.23 309.773 56.5863C309.773 89.9426 287.04 112.172 252.934 112.172C218.828 112.172 196.095 89.9426 196.095 56.5863ZM274.541 56.5863C274.541 42.4658 265.878 33.1544 252.945 33.1544C240.012 33.1544 231.349 42.4658 231.349 56.5863C231.349 70.7068 240.012 80.0183 252.945 80.0183C265.867 80.0183 274.541 70.7068 274.541 56.5863Z" stroke="#506DA5" stroke-width="1.4237" stroke-miterlimit="10"/>
<path opacity="0.9" d="M406.683 43.8213C406.683 67.2532 390.483 83.9313 368.029 83.9313H353.958V109.167H320.845V4.00586H368.018C390.483 4.00586 406.683 20.3776 406.683 43.8213ZM372.299 43.9627C372.299 37.3504 368.04 32.8479 361.64 32.8479H353.969V55.0893H361.64C368.04 55.0893 372.299 50.575 372.299 43.9627Z" stroke="#506DA5" stroke-width="1.4237" stroke-miterlimit="10"/>
</g>
<g opacity="0.9">
<path opacity="0.9" d="M577.915 75.8104H612.734C612.734 80.4661 615.433 83.1771 619.558 83.1771C623.248 83.1771 625.958 81.0791 625.958 77.3191C625.958 71.7558 619.279 70.1056 611.04 67.8544C597.393 64.2477 579.208 59.5919 579.208 34.3566C579.208 13.4706 593.847 1.00024 618.855 1.00024C643.44 1.00024 657.934 13.7652 657.934 35.2524H624.397C624.397 31.1978 622.412 28.9465 618.855 28.9465C615.444 28.9465 613.459 30.7499 613.459 33.7555C613.459 38.8709 620.138 40.6625 628.522 43.067C642.592 46.9684 661.491 52.2252 661.491 76.4233C661.491 98.9595 645.859 112.172 619.569 112.172C593.401 112.172 577.915 98.653 577.915 75.8104Z" stroke="#506DA5" stroke-width="1.4237" stroke-miterlimit="10"/>
<path opacity="0.9" d="M762.927 4.00586V109.167H729.39V71.9089H706.077V109.167H672.54V4.00586H706.077V39.6134H729.379V4.00586H762.927Z" stroke="#506DA5" stroke-width="1.4237" stroke-miterlimit="10"/>
<path opacity="0.9" d="M773.999 56.5863C773.999 23.2417 796.732 1.00024 830.838 1.00024C864.944 1.00024 887.677 23.23 887.677 56.5863C887.677 89.9426 864.944 112.172 830.838 112.172C796.743 112.172 773.999 89.9426 773.999 56.5863ZM852.445 56.5863C852.445 42.4658 843.782 33.1544 830.849 33.1544C817.916 33.1544 809.253 42.4658 809.253 56.5863C809.253 70.7068 817.916 80.0183 830.849 80.0183C843.771 80.0183 852.445 70.7068 852.445 56.5863Z" stroke="#506DA5" stroke-width="1.4237" stroke-miterlimit="10"/>
<path opacity="0.9" d="M984.599 43.8213C984.599 67.2532 968.399 83.9313 945.944 83.9313H931.873V109.167H898.76V4.00586H945.933C968.399 4.00586 984.599 20.3776 984.599 43.8213ZM950.203 43.9627C950.203 37.3504 945.944 32.8479 939.544 32.8479H931.873V55.0893H939.544C945.944 55.0893 950.203 50.575 950.203 43.9627Z" stroke="#506DA5" stroke-width="1.4237" stroke-miterlimit="10"/>
</g>
<g opacity="0.9">
<path opacity="0.9" d="M1155.82 75.8104H1190.64C1190.64 80.4661 1193.34 83.1771 1197.46 83.1771C1201.15 83.1771 1203.86 81.0791 1203.86 77.3191C1203.86 71.7558 1197.18 70.1056 1188.94 67.8544C1175.3 64.2477 1157.11 59.5919 1157.11 34.3566C1157.11 13.4706 1171.75 1.00024 1196.76 1.00024C1221.34 1.00024 1235.84 13.7652 1235.84 35.2524H1202.3C1202.3 31.1978 1200.32 28.9465 1196.76 28.9465C1193.35 28.9465 1191.36 30.7499 1191.36 33.7555C1191.36 38.8709 1198.04 40.6625 1206.43 43.067C1220.5 46.9684 1239.39 52.2252 1239.39 76.4233C1239.39 98.9595 1223.76 112.172 1197.47 112.172C1171.31 112.172 1155.82 98.653 1155.82 75.8104Z" stroke="#506DA5" stroke-width="1.4237" stroke-miterlimit="10"/>
<path opacity="0.9" d="M1340.83 4.00586V109.167H1307.29V71.9089H1283.99V109.167H1250.45V4.00586H1283.99V39.6134H1307.29V4.00586H1340.83Z" stroke="#506DA5" stroke-width="1.4237" stroke-miterlimit="10"/>
<path opacity="0.9" d="M1351.91 56.5863C1351.91 23.2417 1374.65 1.00024 1408.75 1.00024C1442.86 1.00024 1465.59 23.23 1465.59 56.5863C1465.59 89.9426 1442.86 112.172 1408.75 112.172C1374.65 112.172 1351.91 89.9426 1351.91 56.5863ZM1430.35 56.5863C1430.35 42.4658 1421.69 33.1544 1408.75 33.1544C1395.82 33.1544 1387.16 42.4658 1387.16 56.5863C1387.16 70.7068 1395.82 80.0183 1408.75 80.0183C1421.69 80.0183 1430.35 70.7068 1430.35 56.5863Z" stroke="#506DA5" stroke-width="1.4237" stroke-miterlimit="10"/>
<path opacity="0.9" d="M1562.5 43.8213C1562.5 67.2532 1546.3 83.9313 1523.85 83.9313H1509.78V109.167H1476.66V4.00586H1523.84C1546.3 4.00586 1562.5 20.3776 1562.5 43.8213ZM1528.12 43.9627C1528.12 37.3504 1523.86 32.8479 1517.46 32.8479H1509.79V55.0893H1517.46C1523.85 55.0893 1528.12 50.575 1528.12 43.9627Z" stroke="#506DA5" stroke-width="1.4237" stroke-miterlimit="10"/>
</g>
<g opacity="0.9">
<path opacity="0.9" d="M1733.72 75.8104H1768.54C1768.54 80.4661 1771.24 83.1771 1775.37 83.1771C1779.06 83.1771 1781.77 81.0791 1781.77 77.3191C1781.77 71.7558 1775.09 70.1056 1766.85 67.8544C1753.2 64.2477 1735.02 59.5919 1735.02 34.3566C1735.02 13.4706 1749.66 1.00024 1774.66 1.00024C1799.25 1.00024 1813.74 13.7652 1813.74 35.2524H1780.2C1780.2 31.1978 1778.22 28.9465 1774.66 28.9465C1771.25 28.9465 1769.27 30.7499 1769.27 33.7555C1769.27 38.8709 1775.95 40.6625 1784.33 43.067C1798.4 46.9684 1817.3 52.2252 1817.3 76.4233C1817.3 98.9595 1801.67 112.172 1775.38 112.172C1749.21 112.172 1733.72 98.653 1733.72 75.8104Z" stroke="#506DA5" stroke-width="1.4237" stroke-miterlimit="10"/>
<path opacity="0.9" d="M1918.74 4.00586V109.167H1885.2V71.9089H1861.9V109.167H1828.36V4.00586H1861.9V39.6134H1885.2V4.00586H1918.74Z" stroke="#506DA5" stroke-width="1.4237" stroke-miterlimit="10"/>
<path opacity="0.9" d="M1929.82 56.5863C1929.82 23.2417 1952.55 1.00024 1986.66 1.00024C2020.76 1.00024 2043.5 23.23 2043.5 56.5863C2043.5 89.9426 2020.76 112.172 1986.66 112.172C1952.55 112.172 1929.82 89.9426 1929.82 56.5863ZM2008.26 56.5863C2008.26 42.4658 1999.6 33.1544 1986.67 33.1544C1973.73 33.1544 1965.07 42.4658 1965.07 56.5863C1965.07 70.7068 1973.73 80.0183 1986.67 80.0183C1999.59 80.0183 2008.26 70.7068 2008.26 56.5863Z" stroke="#506DA5" stroke-width="1.4237" stroke-miterlimit="10"/>
<path opacity="0.9" d="M2140.41 43.8213C2140.41 67.2532 2124.21 83.9313 2101.75 83.9313H2087.68V109.167H2054.57V4.00586H2101.74C2124.21 4.00586 2140.41 20.3776 2140.41 43.8213ZM2106.02 43.9627C2106.02 37.3504 2101.76 32.8479 2095.36 32.8479H2087.69V55.0893H2095.36C2101.76 55.0893 2106.02 50.575 2106.02 43.9627Z" stroke="#506DA5" stroke-width="1.4237" stroke-miterlimit="10"/>
</g>
</g>
<g opacity="0.3">
<g opacity="0.9">
<path opacity="0.9" d="M0.000488281 264.398H34.8199C34.8199 269.053 37.518 271.764 41.6433 271.764C45.3337 271.764 48.043 269.666 48.043 265.906C48.043 260.343 41.3645 258.693 33.1252 256.442C19.4784 252.835 1.29381 248.179 1.29381 222.944C1.29381 202.058 15.9329 189.587 40.9409 189.587C65.5252 189.587 80.0193 202.352 80.0193 223.84H46.4709C46.4709 219.785 44.4864 217.534 40.9297 217.534C37.518 217.534 35.5334 219.337 35.5334 222.343C35.5334 227.458 42.2119 229.25 50.5962 231.654C64.6667 235.556 83.5648 240.812 83.5648 265.01C83.5648 287.547 67.9334 300.76 41.6433 300.76C15.4869 300.76 0.000488281 287.24 0.000488281 264.398Z" stroke="#506DA5" stroke-width="1.4237" stroke-miterlimit="10"/>
<path opacity="0.9" d="M185.013 192.593V297.754H151.476V260.496H128.173V297.754H94.6362V192.593H128.173V228.201H151.476V192.593H185.013V192.593Z" stroke="#506DA5" stroke-width="1.4237" stroke-miterlimit="10"/>
<path opacity="0.9" d="M196.095 245.173C196.095 211.829 218.829 189.587 252.935 189.587C287.04 189.587 309.774 211.817 309.774 245.173C309.774 278.53 287.04 300.76 252.935 300.76C218.829 300.76 196.095 278.53 196.095 245.173ZM274.542 245.173C274.542 231.053 265.879 221.742 252.946 221.742C240.012 221.742 231.349 231.053 231.349 245.173C231.349 259.294 240.012 268.605 252.946 268.605C265.868 268.605 274.542 259.294 274.542 245.173Z" stroke="#506DA5" stroke-width="1.4237" stroke-miterlimit="10"/>
<path opacity="0.9" d="M406.684 232.408C406.684 255.84 390.484 272.519 368.029 272.519H353.959V297.754H320.845V192.593H368.018C390.484 192.593 406.684 208.965 406.684 232.408ZM372.299 232.55C372.299 225.938 368.04 221.435 361.641 221.435H353.97V243.665H361.641C368.04 243.677 372.299 239.162 372.299 232.55Z" stroke="#506DA5" stroke-width="1.4237" stroke-miterlimit="10"/>
</g>
<g opacity="0.9">
<path opacity="0.9" d="M577.916 264.398H612.735C612.735 269.053 615.433 271.764 619.558 271.764C623.249 271.764 625.958 269.666 625.958 265.906C625.958 260.343 619.28 258.693 611.04 256.442C597.393 252.835 579.209 248.179 579.209 222.944C579.209 202.058 593.848 189.587 618.856 189.587C643.44 189.587 657.934 202.352 657.934 223.84H624.397C624.397 219.785 622.413 217.534 618.856 217.534C615.444 217.534 613.46 219.337 613.46 222.343C613.46 227.458 620.138 229.25 628.522 231.654C642.593 235.556 661.491 240.812 661.491 265.01C661.491 287.547 645.86 300.76 619.569 300.76C593.402 300.76 577.916 287.24 577.916 264.398Z" stroke="#506DA5" stroke-width="1.4237" stroke-miterlimit="10"/>
<path opacity="0.9" d="M762.928 192.593V297.754H729.391V260.496H706.077V297.754H672.54V192.593H706.077V228.201H729.379V192.593H762.928V192.593Z" stroke="#506DA5" stroke-width="1.4237" stroke-miterlimit="10"/>
<path opacity="0.9" d="M773.999 245.173C773.999 211.829 796.733 189.587 830.838 189.587C864.944 189.587 887.678 211.817 887.678 245.173C887.678 278.53 864.944 300.76 830.838 300.76C796.744 300.76 773.999 278.53 773.999 245.173ZM852.446 245.173C852.446 231.053 843.783 221.742 830.85 221.742C817.916 221.742 809.253 231.053 809.253 245.173C809.253 259.294 817.916 268.605 830.85 268.605C843.772 268.605 852.446 259.294 852.446 245.173Z" stroke="#506DA5" stroke-width="1.4237" stroke-miterlimit="10"/>
<path opacity="0.9" d="M984.599 232.408C984.599 255.84 968.399 272.519 945.944 272.519H931.874V297.754H898.76V192.593H945.933C968.399 192.593 984.599 208.965 984.599 232.408ZM950.203 232.55C950.203 225.938 945.944 221.435 939.544 221.435H931.874V243.665H939.544C945.944 243.677 950.203 239.162 950.203 232.55Z" stroke="#506DA5" stroke-width="1.4237" stroke-miterlimit="10"/>
</g>
<g opacity="0.9">
<path opacity="0.9" d="M1155.82 264.398H1190.64C1190.64 269.053 1193.34 271.764 1197.46 271.764C1201.15 271.764 1203.86 269.666 1203.86 265.906C1203.86 260.343 1197.18 258.693 1188.94 256.442C1175.3 252.835 1157.11 248.179 1157.11 222.944C1157.11 202.058 1171.75 189.587 1196.76 189.587C1221.34 189.587 1235.84 202.352 1235.84 223.84H1202.3C1202.3 219.785 1200.32 217.534 1196.76 217.534C1193.35 217.534 1191.36 219.337 1191.36 222.343C1191.36 227.458 1198.04 229.25 1206.43 231.654C1220.5 235.556 1239.39 240.812 1239.39 265.01C1239.39 287.547 1223.76 300.76 1197.47 300.76C1171.31 300.76 1155.82 287.24 1155.82 264.398Z" stroke="#506DA5" stroke-width="1.4237" stroke-miterlimit="10"/>
<path opacity="0.9" d="M1340.83 192.593V297.754H1307.29V260.496H1283.99V297.754H1250.45V192.593H1283.99V228.201H1307.29V192.593H1340.83V192.593Z" stroke="#506DA5" stroke-width="1.4237" stroke-miterlimit="10"/>
<path opacity="0.9" d="M1351.91 245.173C1351.91 211.829 1374.65 189.587 1408.75 189.587C1442.86 189.587 1465.59 211.817 1465.59 245.173C1465.59 278.53 1442.86 300.76 1408.75 300.76C1374.65 300.76 1351.91 278.53 1351.91 245.173ZM1430.35 245.173C1430.35 231.053 1421.69 221.742 1408.75 221.742C1395.82 221.742 1387.16 231.053 1387.16 245.173C1387.16 259.294 1395.82 268.605 1408.75 268.605C1421.69 268.605 1430.35 259.294 1430.35 245.173Z" stroke="#506DA5" stroke-width="1.4237" stroke-miterlimit="10"/>
<path opacity="0.9" d="M1562.5 232.408C1562.5 255.84 1546.3 272.519 1523.85 272.519H1509.78V297.754H1476.66V192.593H1523.84C1546.3 192.593 1562.5 208.965 1562.5 232.408ZM1528.12 232.55C1528.12 225.938 1523.86 221.435 1517.46 221.435H1509.79V243.665H1517.46C1523.85 243.677 1528.12 239.162 1528.12 232.55Z" stroke="#506DA5" stroke-width="1.4237" stroke-miterlimit="10"/>
</g>
<g opacity="0.9">
<path opacity="0.9" d="M1733.72 264.398H1768.54C1768.54 269.053 1771.24 271.764 1775.37 271.764C1779.06 271.764 1781.77 269.666 1781.77 265.906C1781.77 260.343 1775.09 258.693 1766.85 256.442C1753.2 252.835 1735.02 248.179 1735.02 222.944C1735.02 202.058 1749.66 189.587 1774.66 189.587C1799.25 189.587 1813.74 202.352 1813.74 223.84H1780.2C1780.2 219.785 1778.22 217.534 1774.66 217.534C1771.25 217.534 1769.27 219.337 1769.27 222.343C1769.27 227.458 1775.95 229.25 1784.33 231.654C1798.4 235.556 1817.3 240.812 1817.3 265.01C1817.3 287.547 1801.67 300.76 1775.38 300.76C1749.21 300.76 1733.72 287.24 1733.72 264.398Z" stroke="#506DA5" stroke-width="1.4237" stroke-miterlimit="10"/>
<path opacity="0.9" d="M1918.74 192.593V297.754H1885.2V260.496H1861.9V297.754H1828.36V192.593H1861.9V228.201H1885.2V192.593H1918.74V192.593Z" stroke="#506DA5" stroke-width="1.4237" stroke-miterlimit="10"/>
<path opacity="0.9" d="M1929.82 245.173C1929.82 211.829 1952.55 189.587 1986.66 189.587C2020.76 189.587 2043.5 211.817 2043.5 245.173C2043.5 278.53 2020.76 300.76 1986.66 300.76C1952.55 300.76 1929.82 278.53 1929.82 245.173ZM2008.26 245.173C2008.26 231.053 1999.6 221.742 1986.67 221.742C1973.73 221.742 1965.07 231.053 1965.07 245.173C1965.07 259.294 1973.73 268.605 1986.67 268.605C1999.59 268.605 2008.26 259.294 2008.26 245.173Z" stroke="#506DA5" stroke-width="1.4237" stroke-miterlimit="10"/>
<path opacity="0.9" d="M2140.41 232.408C2140.41 255.84 2124.21 272.519 2101.75 272.519H2087.68V297.754H2054.57V192.593H2101.74C2124.21 192.593 2140.41 208.965 2140.41 232.408ZM2106.02 232.55C2106.02 225.938 2101.76 221.435 2095.36 221.435H2087.69V243.665H2095.36C2101.76 243.677 2106.02 239.162 2106.02 232.55Z" stroke="#506DA5" stroke-width="1.4237" stroke-miterlimit="10"/>
</g>
</g>
<g opacity="0.3">
<g opacity="0.9">
<path opacity="0.9" d="M0.000488281 452.985H34.8199C34.8199 457.64 37.518 460.351 41.6433 460.351C45.3337 460.351 48.043 458.253 48.043 454.493C48.043 448.93 41.3645 447.28 33.1252 445.029C19.4784 441.422 1.29381 436.766 1.29381 411.531C1.29381 390.645 15.9329 378.175 40.9409 378.175C65.5252 378.175 80.0193 390.94 80.0193 412.427H46.4709C46.4709 408.372 44.4864 406.121 40.9297 406.121C37.518 406.121 35.5334 407.924 35.5334 410.93C35.5334 416.045 42.2119 417.837 50.5962 420.241C64.6667 424.143 83.5648 429.399 83.5648 453.597C83.5648 476.134 67.9334 489.346 41.6433 489.346C15.4869 489.346 0.000488281 475.827 0.000488281 452.985Z" stroke="#506DA5" stroke-width="1.4237" stroke-miterlimit="10"/>
<path opacity="0.9" d="M185.013 381.18V486.341H151.476V449.083H128.173V486.341H94.6362V381.18H128.173V416.788H151.476V381.18H185.013Z" stroke="#506DA5" stroke-width="1.4237" stroke-miterlimit="10"/>
<path opacity="0.9" d="M196.095 433.76C196.095 400.416 218.829 378.175 252.935 378.175C287.04 378.175 309.774 400.404 309.774 433.76C309.774 467.105 287.04 489.346 252.935 489.346C218.829 489.346 196.095 467.117 196.095 433.76ZM274.542 433.76C274.542 419.64 265.879 410.329 252.946 410.329C240.012 410.329 231.349 419.64 231.349 433.76C231.349 447.881 240.012 457.192 252.946 457.192C265.868 457.192 274.542 447.881 274.542 433.76Z" stroke="#506DA5" stroke-width="1.4237" stroke-miterlimit="10"/>
<path opacity="0.9" d="M406.684 420.996C406.684 444.427 390.484 461.106 368.029 461.106H353.959V486.341H320.845V381.18H368.018C390.484 381.18 406.684 397.552 406.684 420.996ZM372.299 421.137C372.299 414.525 368.04 410.022 361.641 410.022H353.97V432.252H361.641C368.04 432.264 372.299 427.749 372.299 421.137Z" stroke="#506DA5" stroke-width="1.4237" stroke-miterlimit="10"/>
</g>
<g opacity="0.9">
<path opacity="0.9" d="M577.916 452.985H612.735C612.735 457.64 615.433 460.351 619.558 460.351C623.249 460.351 625.958 458.253 625.958 454.493C625.958 448.93 619.28 447.28 611.04 445.029C597.393 441.422 579.209 436.766 579.209 411.531C579.209 390.645 593.848 378.175 618.856 378.175C643.44 378.175 657.934 390.94 657.934 412.427H624.397C624.397 408.372 622.413 406.121 618.856 406.121C615.444 406.121 613.46 407.924 613.46 410.93C613.46 416.045 620.138 417.837 628.522 420.241C642.593 424.143 661.491 429.399 661.491 453.597C661.491 476.134 645.86 489.346 619.569 489.346C593.402 489.346 577.916 475.827 577.916 452.985Z" stroke="#506DA5" stroke-width="1.4237" stroke-miterlimit="10"/>
<path opacity="0.9" d="M762.928 381.18V486.341H729.391V449.083H706.077V486.341H672.54V381.18H706.077V416.788H729.379V381.18H762.928Z" stroke="#506DA5" stroke-width="1.4237" stroke-miterlimit="10"/>
<path opacity="0.9" d="M773.999 433.76C773.999 400.416 796.733 378.175 830.838 378.175C864.944 378.175 887.678 400.404 887.678 433.76C887.678 467.105 864.944 489.346 830.838 489.346C796.744 489.346 773.999 467.117 773.999 433.76ZM852.446 433.76C852.446 419.64 843.783 410.329 830.85 410.329C817.916 410.329 809.253 419.64 809.253 433.76C809.253 447.881 817.916 457.192 830.85 457.192C843.772 457.192 852.446 447.881 852.446 433.76Z" stroke="#506DA5" stroke-width="1.4237" stroke-miterlimit="10"/>
<path opacity="0.9" d="M984.599 420.996C984.599 444.427 968.399 461.106 945.944 461.106H931.874V486.341H898.76V381.18H945.933C968.399 381.18 984.599 397.552 984.599 420.996ZM950.203 421.137C950.203 414.525 945.944 410.022 939.544 410.022H931.874V432.252H939.544C945.944 432.264 950.203 427.749 950.203 421.137Z" stroke="#506DA5" stroke-width="1.4237" stroke-miterlimit="10"/>
</g>
<g opacity="0.9">
<path opacity="0.9" d="M1155.82 452.985H1190.64C1190.64 457.64 1193.34 460.351 1197.46 460.351C1201.15 460.351 1203.86 458.253 1203.86 454.493C1203.86 448.93 1197.18 447.28 1188.94 445.029C1175.3 441.422 1157.11 436.766 1157.11 411.531C1157.11 390.645 1171.75 378.175 1196.76 378.175C1221.34 378.175 1235.84 390.94 1235.84 412.427H1202.3C1202.3 408.372 1200.32 406.121 1196.76 406.121C1193.35 406.121 1191.36 407.924 1191.36 410.93C1191.36 416.045 1198.04 417.837 1206.43 420.241C1220.5 424.143 1239.39 429.399 1239.39 453.597C1239.39 476.134 1223.76 489.346 1197.47 489.346C1171.31 489.346 1155.82 475.827 1155.82 452.985Z" stroke="#506DA5" stroke-width="1.4237" stroke-miterlimit="10"/>
<path opacity="0.9" d="M1340.83 381.18V486.341H1307.29V449.083H1283.99V486.341H1250.45V381.18H1283.99V416.788H1307.29V381.18H1340.83Z" stroke="#506DA5" stroke-width="1.4237" stroke-miterlimit="10"/>
<path opacity="0.9" d="M1351.91 433.76C1351.91 400.416 1374.65 378.175 1408.75 378.175C1442.86 378.175 1465.59 400.404 1465.59 433.76C1465.59 467.105 1442.86 489.346 1408.75 489.346C1374.65 489.346 1351.91 467.117 1351.91 433.76ZM1430.35 433.76C1430.35 419.64 1421.69 410.329 1408.75 410.329C1395.82 410.329 1387.16 419.64 1387.16 433.76C1387.16 447.881 1395.82 457.192 1408.75 457.192C1421.69 457.192 1430.35 447.881 1430.35 433.76Z" stroke="#506DA5" stroke-width="1.4237" stroke-miterlimit="10"/>
<path opacity="0.9" d="M1562.5 420.996C1562.5 444.427 1546.3 461.106 1523.85 461.106H1509.78V486.341H1476.66V381.18H1523.84C1546.3 381.18 1562.5 397.552 1562.5 420.996ZM1528.12 421.137C1528.12 414.525 1523.86 410.022 1517.46 410.022H1509.79V432.252H1517.46C1523.85 432.264 1528.12 427.749 1528.12 421.137Z" stroke="#506DA5" stroke-width="1.4237" stroke-miterlimit="10"/>
</g>
<g opacity="0.9">
<path opacity="0.9" d="M1733.72 452.985H1768.54C1768.54 457.64 1771.24 460.351 1775.37 460.351C1779.06 460.351 1781.77 458.253 1781.77 454.493C1781.77 448.93 1775.09 447.28 1766.85 445.029C1753.2 441.422 1735.02 436.766 1735.02 411.531C1735.02 390.645 1749.66 378.175 1774.66 378.175C1799.25 378.175 1813.74 390.94 1813.74 412.427H1780.2C1780.2 408.372 1778.22 406.121 1774.66 406.121C1771.25 406.121 1769.27 407.924 1769.27 410.93C1769.27 416.045 1775.95 417.837 1784.33 420.241C1798.4 424.143 1817.3 429.399 1817.3 453.597C1817.3 476.134 1801.67 489.346 1775.38 489.346C1749.21 489.346 1733.72 475.827 1733.72 452.985Z" stroke="#506DA5" stroke-width="1.4237" stroke-miterlimit="10"/>
<path opacity="0.9" d="M1918.74 381.18V486.341H1885.2V449.083H1861.9V486.341H1828.36V381.18H1861.9V416.788H1885.2V381.18H1918.74Z" stroke="#506DA5" stroke-width="1.4237" stroke-miterlimit="10"/>
<path opacity="0.9" d="M1929.82 433.76C1929.82 400.416 1952.55 378.175 1986.66 378.175C2020.76 378.175 2043.5 400.404 2043.5 433.76C2043.5 467.105 2020.76 489.346 1986.66 489.346C1952.55 489.346 1929.82 467.117 1929.82 433.76ZM2008.26 433.76C2008.26 419.64 1999.6 410.329 1986.67 410.329C1973.73 410.329 1965.07 419.64 1965.07 433.76C1965.07 447.881 1973.73 457.192 1986.67 457.192C1999.59 457.192 2008.26 447.881 2008.26 433.76Z" stroke="#506DA5" stroke-width="1.4237" stroke-miterlimit="10"/>
<path opacity="0.9" d="M2140.41 420.996C2140.41 444.427 2124.21 461.106 2101.75 461.106H2087.68V486.341H2054.57V381.18H2101.74C2124.21 381.18 2140.41 397.552 2140.41 420.996ZM2106.02 421.137C2106.02 414.525 2101.76 410.022 2095.36 410.022H2087.69V432.252H2095.36C2101.76 432.264 2106.02 427.749 2106.02 421.137Z" stroke="#506DA5" stroke-width="1.4237" stroke-miterlimit="10"/>
</g>
</g>
<g opacity="0.3">
<g opacity="0.9">
<path opacity="0.9" d="M0.000488281 641.571H34.8199C34.8199 646.227 37.518 648.938 41.6433 648.938C45.3337 648.938 48.043 646.84 48.043 643.08C48.043 637.517 41.3645 635.867 33.1252 633.615C19.4784 630.009 1.29381 625.353 1.29381 600.118C1.29381 579.232 15.9329 566.761 40.9409 566.761C65.5252 566.761 80.0193 579.526 80.0193 601.014H46.4709C46.4709 596.959 44.4864 594.708 40.9297 594.708C37.518 594.708 35.5334 596.511 35.5334 599.517C35.5334 604.632 42.2119 606.424 50.5962 608.828C64.6667 612.73 83.5648 617.986 83.5648 642.184C83.5648 664.72 67.9334 677.933 41.6433 677.933C15.4869 677.933 0.000488281 664.414 0.000488281 641.571Z" stroke="#506DA5" stroke-width="1.4237" stroke-miterlimit="10"/>
<path opacity="0.9" d="M185.013 569.767V674.928H151.476V637.67H128.173V674.928H94.6362V569.767H128.173V605.375H151.476V569.767H185.013V569.767Z" stroke="#506DA5" stroke-width="1.4237" stroke-miterlimit="10"/>
<path opacity="0.9" d="M196.095 622.347C196.095 589.003 218.829 566.761 252.935 566.761C287.04 566.761 309.774 588.991 309.774 622.347C309.774 655.704 287.04 677.933 252.935 677.933C218.829 677.933 196.095 655.704 196.095 622.347ZM274.542 622.347C274.542 608.227 265.879 598.915 252.946 598.915C240.012 598.915 231.349 608.227 231.349 622.347C231.349 636.468 240.012 645.779 252.946 645.779C265.868 645.779 274.542 636.468 274.542 622.347Z" stroke="#506DA5" stroke-width="1.4237" stroke-miterlimit="10"/>
<path opacity="0.9" d="M406.684 609.582C406.684 633.014 390.484 649.693 368.029 649.693H353.959V674.928H320.845V569.767H368.018C390.484 569.767 406.684 586.139 406.684 609.582ZM372.299 609.724C372.299 603.112 368.04 598.609 361.641 598.609H353.97V620.839H361.641C368.04 620.851 372.299 616.336 372.299 609.724Z" stroke="#506DA5" stroke-width="1.4237" stroke-miterlimit="10"/>
</g>
<g opacity="0.9">
<path opacity="0.9" d="M577.916 641.571H612.735C612.735 646.227 615.433 648.938 619.558 648.938C623.249 648.938 625.958 646.84 625.958 643.08C625.958 637.517 619.28 635.867 611.04 633.615C597.393 630.009 579.209 625.353 579.209 600.118C579.209 579.232 593.848 566.761 618.856 566.761C643.44 566.761 657.934 579.526 657.934 601.014H624.397C624.397 596.959 622.413 594.708 618.856 594.708C615.444 594.708 613.46 596.511 613.46 599.517C613.46 604.632 620.138 606.424 628.522 608.828C642.593 612.73 661.491 617.986 661.491 642.184C661.491 664.72 645.86 677.933 619.569 677.933C593.402 677.933 577.916 664.414 577.916 641.571Z" stroke="#506DA5" stroke-width="1.4237" stroke-miterlimit="10"/>
<path opacity="0.9" d="M762.928 569.767V674.928H729.391V637.67H706.077V674.928H672.54V569.767H706.077V605.375H729.379V569.767H762.928V569.767Z" stroke="#506DA5" stroke-width="1.4237" stroke-miterlimit="10"/>
<path opacity="0.9" d="M773.999 622.347C773.999 589.003 796.733 566.761 830.838 566.761C864.944 566.761 887.678 588.991 887.678 622.347C887.678 655.704 864.944 677.933 830.838 677.933C796.744 677.933 773.999 655.704 773.999 622.347ZM852.446 622.347C852.446 608.227 843.783 598.915 830.85 598.915C817.916 598.915 809.253 608.227 809.253 622.347C809.253 636.468 817.916 645.779 830.85 645.779C843.772 645.779 852.446 636.468 852.446 622.347Z" stroke="#506DA5" stroke-width="1.4237" stroke-miterlimit="10"/>
<path opacity="0.9" d="M984.599 609.582C984.599 633.014 968.399 649.693 945.944 649.693H931.874V674.928H898.76V569.767H945.933C968.399 569.767 984.599 586.139 984.599 609.582ZM950.203 609.724C950.203 603.112 945.944 598.609 939.544 598.609H931.874V620.839H939.544C945.944 620.851 950.203 616.336 950.203 609.724Z" stroke="#506DA5" stroke-width="1.4237" stroke-miterlimit="10"/>
</g>
<g opacity="0.9">
<path opacity="0.9" d="M1155.82 641.571H1190.64C1190.64 646.227 1193.34 648.938 1197.46 648.938C1201.15 648.938 1203.86 646.84 1203.86 643.08C1203.86 637.517 1197.18 635.867 1188.94 633.615C1175.3 630.009 1157.11 625.353 1157.11 600.118C1157.11 579.232 1171.75 566.761 1196.76 566.761C1221.34 566.761 1235.84 579.526 1235.84 601.014H1202.3C1202.3 596.959 1200.32 594.708 1196.76 594.708C1193.35 594.708 1191.36 596.511 1191.36 599.517C1191.36 604.632 1198.04 606.424 1206.43 608.828C1220.5 612.73 1239.39 617.986 1239.39 642.184C1239.39 664.72 1223.76 677.933 1197.47 677.933C1171.31 677.933 1155.82 664.414 1155.82 641.571Z" stroke="#506DA5" stroke-width="1.4237" stroke-miterlimit="10"/>
<path opacity="0.9" d="M1340.83 569.767V674.928H1307.29V637.67H1283.99V674.928H1250.45V569.767H1283.99V605.375H1307.29V569.767H1340.83V569.767Z" stroke="#506DA5" stroke-width="1.4237" stroke-miterlimit="10"/>
<path opacity="0.9" d="M1351.91 622.347C1351.91 589.003 1374.65 566.761 1408.75 566.761C1442.86 566.761 1465.59 588.991 1465.59 622.347C1465.59 655.704 1442.86 677.933 1408.75 677.933C1374.65 677.933 1351.91 655.704 1351.91 622.347ZM1430.35 622.347C1430.35 608.227 1421.69 598.915 1408.75 598.915C1395.82 598.915 1387.16 608.227 1387.16 622.347C1387.16 636.468 1395.82 645.779 1408.75 645.779C1421.69 645.779 1430.35 636.468 1430.35 622.347Z" stroke="#506DA5" stroke-width="1.4237" stroke-miterlimit="10"/>
<path opacity="0.9" d="M1562.5 609.582C1562.5 633.014 1546.3 649.693 1523.85 649.693H1509.78V674.928H1476.66V569.767H1523.84C1546.3 569.767 1562.5 586.139 1562.5 609.582ZM1528.12 609.724C1528.12 603.112 1523.86 598.609 1517.46 598.609H1509.79V620.839H1517.46C1523.85 620.851 1528.12 616.336 1528.12 609.724Z" stroke="#506DA5" stroke-width="1.4237" stroke-miterlimit="10"/>
</g>
<g opacity="0.9">
<path opacity="0.9" d="M1733.72 641.571H1768.54C1768.54 646.227 1771.24 648.938 1775.37 648.938C1779.06 648.938 1781.77 646.84 1781.77 643.08C1781.77 637.517 1775.09 635.867 1766.85 633.615C1753.2 630.009 1735.02 625.353 1735.02 600.118C1735.02 579.232 1749.66 566.761 1774.66 566.761C1799.25 566.761 1813.74 579.526 1813.74 601.014H1780.2C1780.2 596.959 1778.22 594.708 1774.66 594.708C1771.25 594.708 1769.27 596.511 1769.27 599.517C1769.27 604.632 1775.95 606.424 1784.33 608.828C1798.4 612.73 1817.3 617.986 1817.3 642.184C1817.3 664.72 1801.67 677.933 1775.38 677.933C1749.21 677.933 1733.72 664.414 1733.72 641.571Z" stroke="#506DA5" stroke-width="1.4237" stroke-miterlimit="10"/>
<path opacity="0.9" d="M1918.74 569.767V674.928H1885.2V637.67H1861.9V674.928H1828.36V569.767H1861.9V605.375H1885.2V569.767H1918.74V569.767Z" stroke="#506DA5" stroke-width="1.4237" stroke-miterlimit="10"/>
<path opacity="0.9" d="M1929.82 622.347C1929.82 589.003 1952.55 566.761 1986.66 566.761C2020.76 566.761 2043.5 588.991 2043.5 622.347C2043.5 655.704 2020.76 677.933 1986.66 677.933C1952.55 677.933 1929.82 655.704 1929.82 622.347ZM2008.26 622.347C2008.26 608.227 1999.6 598.915 1986.67 598.915C1973.73 598.915 1965.07 608.227 1965.07 622.347C1965.07 636.468 1973.73 645.779 1986.67 645.779C1999.59 645.779 2008.26 636.468 2008.26 622.347Z" stroke="#506DA5" stroke-width="1.4237" stroke-miterlimit="10"/>
<path opacity="0.9" d="M2140.41 609.582C2140.41 633.014 2124.21 649.693 2101.75 649.693H2087.68V674.928H2054.57V569.767H2101.74C2124.21 569.767 2140.41 586.139 2140.41 609.582ZM2106.02 609.724C2106.02 603.112 2101.76 598.609 2095.36 598.609H2087.69V620.839H2095.36C2101.76 620.851 2106.02 616.336 2106.02 609.724Z" stroke="#506DA5" stroke-width="1.4237" stroke-miterlimit="10"/>
</g>
</g>
<g opacity="0.3">
<g opacity="0.9">
<path opacity="0.9" d="M0.000488281 834.873H34.8199C34.8199 839.529 37.518 842.24 41.6433 842.24C45.3337 842.24 48.043 840.142 48.043 836.382C48.043 830.819 41.3645 829.169 33.1252 826.917C19.4784 823.311 1.29381 818.655 1.29381 793.42C1.29381 772.534 15.9329 760.063 40.9409 760.063C65.5252 760.063 80.0193 772.828 80.0193 794.315H46.4709C46.4709 790.261 44.4864 788.009 40.9297 788.009C37.518 788.009 35.5334 789.813 35.5334 792.818C35.5334 797.934 42.2119 799.725 50.5962 802.13C64.6667 806.031 83.5648 811.288 83.5648 835.486C83.5648 858.022 67.9334 871.235 41.6433 871.235C15.4869 871.235 0.000488281 857.716 0.000488281 834.873Z" stroke="#506DA5" stroke-width="1.4237" stroke-miterlimit="10"/>
<path opacity="0.9" d="M185.013 763.069V868.229H151.476V830.972H128.173V868.229H94.6362V763.069H128.173V798.676H151.476V763.069H185.013Z" stroke="#506DA5" stroke-width="1.4237" stroke-miterlimit="10"/>
<path opacity="0.9" d="M196.095 815.649C196.095 782.305 218.829 760.063 252.935 760.063C287.04 760.063 309.774 782.293 309.774 815.649C309.774 849.006 287.04 871.235 252.935 871.235C218.829 871.235 196.095 849.006 196.095 815.649ZM274.542 815.649C274.542 801.529 265.879 792.217 252.946 792.217C240.012 792.217 231.349 801.529 231.349 815.649C231.349 829.77 240.012 839.081 252.946 839.081C265.868 839.081 274.542 829.77 274.542 815.649Z" stroke="#506DA5" stroke-width="1.4237" stroke-miterlimit="10"/>
<path opacity="0.9" d="M406.684 802.884C406.684 826.316 390.484 842.994 368.029 842.994H353.959V868.229H320.845V763.069H368.018C390.484 763.069 406.684 779.44 406.684 802.884ZM372.299 803.026C372.299 796.413 368.04 791.911 361.641 791.911H353.97V814.141H361.641C368.04 814.152 372.299 809.638 372.299 803.026Z" stroke="#506DA5" stroke-width="1.4237" stroke-miterlimit="10"/>
</g>
<g opacity="0.9">
<path opacity="0.9" d="M577.916 834.873H612.735C612.735 839.529 615.433 842.24 619.558 842.24C623.249 842.24 625.958 840.142 625.958 836.382C625.958 830.819 619.28 829.169 611.04 826.917C597.393 823.311 579.209 818.655 579.209 793.42C579.209 772.534 593.848 760.063 618.856 760.063C643.44 760.063 657.934 772.828 657.934 794.315H624.397C624.397 790.261 622.413 788.009 618.856 788.009C615.444 788.009 613.46 789.813 613.46 792.818C613.46 797.934 620.138 799.725 628.522 802.13C642.593 806.031 661.491 811.288 661.491 835.486C661.491 858.022 645.86 871.235 619.569 871.235C593.402 871.235 577.916 857.716 577.916 834.873Z" stroke="#506DA5" stroke-width="1.4237" stroke-miterlimit="10"/>
<path opacity="0.9" d="M762.928 763.069V868.229H729.391V830.972H706.077V868.229H672.54V763.069H706.077V798.676H729.379V763.069H762.928Z" stroke="#506DA5" stroke-width="1.4237" stroke-miterlimit="10"/>
<path opacity="0.9" d="M773.999 815.649C773.999 782.305 796.733 760.063 830.838 760.063C864.944 760.063 887.678 782.293 887.678 815.649C887.678 849.006 864.944 871.235 830.838 871.235C796.744 871.235 773.999 849.006 773.999 815.649ZM852.446 815.649C852.446 801.529 843.783 792.217 830.85 792.217C817.916 792.217 809.253 801.529 809.253 815.649C809.253 829.77 817.916 839.081 830.85 839.081C843.772 839.081 852.446 829.77 852.446 815.649Z" stroke="#506DA5" stroke-width="1.4237" stroke-miterlimit="10"/>
<path opacity="0.9" d="M984.599 802.884C984.599 826.316 968.399 842.994 945.944 842.994H931.874V868.229H898.76V763.069H945.933C968.399 763.069 984.599 779.44 984.599 802.884ZM950.203 803.026C950.203 796.413 945.944 791.911 939.544 791.911H931.874V814.141H939.544C945.944 814.152 950.203 809.638 950.203 803.026Z" stroke="#506DA5" stroke-width="1.4237" stroke-miterlimit="10"/>
</g>
<g opacity="0.9">
<path opacity="0.9" d="M1155.82 834.873H1190.64C1190.64 839.529 1193.34 842.24 1197.46 842.24C1201.15 842.24 1203.86 840.142 1203.86 836.382C1203.86 830.819 1197.18 829.169 1188.94 826.917C1175.3 823.311 1157.11 818.655 1157.11 793.42C1157.11 772.534 1171.75 760.063 1196.76 760.063C1221.34 760.063 1235.84 772.828 1235.84 794.315H1202.3C1202.3 790.261 1200.32 788.009 1196.76 788.009C1193.35 788.009 1191.36 789.813 1191.36 792.818C1191.36 797.934 1198.04 799.725 1206.43 802.13C1220.5 806.031 1239.39 811.288 1239.39 835.486C1239.39 858.022 1223.76 871.235 1197.47 871.235C1171.31 871.235 1155.82 857.716 1155.82 834.873Z" stroke="#506DA5" stroke-width="1.4237" stroke-miterlimit="10"/>
<path opacity="0.9" d="M1340.83 763.069V868.229H1307.29V830.972H1283.99V868.229H1250.45V763.069H1283.99V798.676H1307.29V763.069H1340.83Z" stroke="#506DA5" stroke-width="1.4237" stroke-miterlimit="10"/>
<path opacity="0.9" d="M1351.91 815.649C1351.91 782.305 1374.65 760.063 1408.75 760.063C1442.86 760.063 1465.59 782.293 1465.59 815.649C1465.59 849.006 1442.86 871.235 1408.75 871.235C1374.65 871.235 1351.91 849.006 1351.91 815.649ZM1430.35 815.649C1430.35 801.529 1421.69 792.217 1408.75 792.217C1395.82 792.217 1387.16 801.529 1387.16 815.649C1387.16 829.77 1395.82 839.081 1408.75 839.081C1421.69 839.081 1430.35 829.77 1430.35 815.649Z" stroke="#506DA5" stroke-width="1.4237" stroke-miterlimit="10"/>
<path opacity="0.9" d="M1562.5 802.884C1562.5 826.316 1546.3 842.994 1523.85 842.994H1509.78V868.229H1476.66V763.069H1523.84C1546.3 763.069 1562.5 779.44 1562.5 802.884ZM1528.12 803.026C1528.12 796.413 1523.86 791.911 1517.46 791.911H1509.79V814.141H1517.46C1523.85 814.152 1528.12 809.638 1528.12 803.026Z" stroke="#506DA5" stroke-width="1.4237" stroke-miterlimit="10"/>
</g>
<g opacity="0.9">
<path opacity="0.9" d="M1733.72 834.873H1768.54C1768.54 839.529 1771.24 842.24 1775.37 842.24C1779.06 842.24 1781.77 840.142 1781.77 836.382C1781.77 830.819 1775.09 829.169 1766.85 826.917C1753.2 823.311 1735.02 818.655 1735.02 793.42C1735.02 772.534 1749.66 760.063 1774.66 760.063C1799.25 760.063 1813.74 772.828 1813.74 794.315H1780.2C1780.2 790.261 1778.22 788.009 1774.66 788.009C1771.25 788.009 1769.27 789.813 1769.27 792.818C1769.27 797.934 1775.95 799.725 1784.33 802.13C1798.4 806.031 1817.3 811.288 1817.3 835.486C1817.3 858.022 1801.67 871.235 1775.38 871.235C1749.21 871.235 1733.72 857.716 1733.72 834.873Z" stroke="#506DA5" stroke-width="1.4237" stroke-miterlimit="10"/>
<path opacity="0.9" d="M1918.74 763.069V868.229H1885.2V830.972H1861.9V868.229H1828.36V763.069H1861.9V798.676H1885.2V763.069H1918.74Z" stroke="#506DA5" stroke-width="1.4237" stroke-miterlimit="10"/>
<path opacity="0.9" d="M1929.82 815.649C1929.82 782.305 1952.55 760.063 1986.66 760.063C2020.76 760.063 2043.5 782.293 2043.5 815.649C2043.5 849.006 2020.76 871.235 1986.66 871.235C1952.55 871.235 1929.82 849.006 1929.82 815.649ZM2008.26 815.649C2008.26 801.529 1999.6 792.217 1986.67 792.217C1973.73 792.217 1965.07 801.529 1965.07 815.649C1965.07 829.77 1973.73 839.081 1986.67 839.081C1999.59 839.081 2008.26 829.77 2008.26 815.649Z" stroke="#506DA5" stroke-width="1.4237" stroke-miterlimit="10"/>
<path opacity="0.9" d="M2140.41 802.884C2140.41 826.316 2124.21 842.994 2101.75 842.994H2087.68V868.229H2054.57V763.069H2101.74C2124.21 763.069 2140.41 779.44 2140.41 802.884ZM2106.02 803.026C2106.02 796.413 2101.76 791.911 2095.36 791.911H2087.69V814.141H2095.36C2101.76 814.152 2106.02 809.638 2106.02 803.026Z" stroke="#506DA5" stroke-width="1.4237" stroke-miterlimit="10"/>
</g>
</g>
</mask>
<g mask="url(#mask0)">
<path d="M110 0.163574H2031V872.072H110V0.163574Z" fill="#506DA5"/>
</g>
</g>
</svg>
